<svg width="454" height="398" viewBox="0 0 454 398" fill="none" xmlns="http://www.w3.org/2000/svg">
<path d="M23.5908 350.946H411.409V352.139C411.409 363.34 402.298 372.421 391.06 372.421H43.9393C32.7011 372.421 23.5908 363.34 23.5908 352.139V350.946Z" fill="white" stroke="black" stroke-width="3"/>
<path d="M63.0907 138.579H371.909C376.536 138.579 380.288 142.318 380.288 146.931V350.945H54.7119V146.931C54.7119 142.318 58.4632 138.579 63.0907 138.579Z" fill="#F15D22" stroke="black" stroke-width="3"/>
<g filter="url(#filter0_d_429_2342)">
<path fill-rule="evenodd" clip-rule="evenodd" d="M253.214 218.37C248.468 211.366 238.122 211.366 233.376 218.37L206.744 257.67L197.734 245.133C192.959 238.489 183.048 238.489 178.273 245.133L162.955 266.448C157.281 274.343 162.942 285.327 172.685 285.327H188.004H276.058C285.651 285.327 291.346 274.642 285.976 266.718L253.214 218.37Z" fill="white"/>
<mask id="mask0_429_2342" style="mask-type:luminance" maskUnits="userSpaceOnUse" x="160" y="213" width="129" height="73">
<path fill-rule="evenodd" clip-rule="evenodd" d="M253.214 218.37C248.468 211.366 238.122 211.366 233.376 218.37L206.744 257.67L197.734 245.133C192.959 238.489 183.048 238.489 178.273 245.133L162.955 266.448C157.281 274.343 162.942 285.327 172.685 285.327H188.004H276.058C285.651 285.327 291.346 274.642 285.976 266.718L253.214 218.37Z" fill="#1F1F1F"/>
</mask>
<g mask="url(#mask0_429_2342)">
<path d="M206.744 257.67L200.906 261.839L206.917 270.204L212.696 261.677L206.744 257.67ZM239.327 222.376C241.226 219.575 245.364 219.575 247.263 222.376L259.165 214.363C251.572 203.157 235.018 203.157 227.424 214.363L239.327 222.376ZM212.696 261.677L239.327 222.376L227.424 214.363L200.793 253.664L212.696 261.677ZM191.896 249.302L200.906 261.839L212.583 253.502L203.573 240.965L191.896 249.302ZM184.111 249.302C186.021 246.644 189.986 246.644 191.896 249.302L203.573 240.965C195.933 230.335 180.074 230.334 172.434 240.965L184.111 249.302ZM168.793 270.617L184.111 249.302L172.434 240.965L157.116 262.279L168.793 270.617ZM172.685 278.168C168.788 278.168 166.524 273.775 168.793 270.617L157.116 262.279C148.038 274.911 157.096 292.485 172.685 292.485V278.168ZM188.004 278.168H172.685V292.485H188.004V278.168ZM276.058 278.168H188.004V292.485H276.058V278.168ZM280.025 270.724C282.172 273.894 279.896 278.168 276.058 278.168V292.485C291.406 292.485 300.519 275.389 291.927 262.711L280.025 270.724ZM247.263 222.376L280.025 270.724L291.927 262.711L259.165 214.363L247.263 222.376Z" fill="#1F1F1F"/>
</g>
</g>
<rect x="67" y="55" width="301" height="60" rx="10" fill="#EFEFEF"/>
<path d="M139.14 100C138.887 100 138.64 99.9567 138.4 99.87C138.16 99.79 137.953 99.67 137.78 99.51L138.19 98.79C138.323 98.9167 138.47 99.0133 138.63 99.08C138.79 99.1467 138.96 99.18 139.14 99.18C139.373 99.18 139.567 99.12 139.72 99C139.873 98.88 140.017 98.6667 140.15 98.36L140.48 97.63L140.58 97.51L142.66 92.7H143.6L141.03 98.53C140.877 98.9033 140.703 99.1967 140.51 99.41C140.323 99.6233 140.117 99.7733 139.89 99.86C139.663 99.9533 139.413 100 139.14 100ZM140.4 98.17L137.98 92.7H138.98L141.04 97.42L140.4 98.17ZM146.619 98.06C146.086 98.06 145.613 97.9433 145.199 97.71C144.786 97.4767 144.459 97.1567 144.219 96.75C143.979 96.3367 143.859 95.87 143.859 95.35C143.859 94.8233 143.979 94.3567 144.219 93.95C144.459 93.5433 144.786 93.2267 145.199 93C145.613 92.7667 146.086 92.65 146.619 92.65C147.146 92.65 147.616 92.7667 148.029 93C148.449 93.2267 148.776 93.5433 149.009 93.95C149.249 94.35 149.369 94.8167 149.369 95.35C149.369 95.8767 149.249 96.3433 149.009 96.75C148.776 97.1567 148.449 97.4767 148.029 97.71C147.616 97.9433 147.146 98.06 146.619 98.06ZM146.619 97.22C146.959 97.22 147.263 97.1433 147.529 96.99C147.803 96.8367 148.016 96.62 148.169 96.34C148.323 96.0533 148.399 95.7233 148.399 95.35C148.399 94.97 148.323 94.6433 148.169 94.37C148.016 94.09 147.803 93.8733 147.529 93.72C147.263 93.5667 146.959 93.49 146.619 93.49C146.279 93.49 145.976 93.5667 145.709 93.72C145.443 93.8733 145.229 94.09 145.069 94.37C144.909 94.6433 144.829 94.97 144.829 95.35C144.829 95.7233 144.909 96.0533 145.069 96.34C145.229 96.62 145.443 96.8367 145.709 96.99C145.976 97.1433 146.279 97.22 146.619 97.22ZM152.927 98.06C152.474 98.06 152.074 97.9767 151.727 97.81C151.387 97.6433 151.12 97.39 150.927 97.05C150.74 96.7033 150.647 96.27 150.647 95.75V92.7H151.607V95.64C151.607 96.16 151.73 96.55 151.977 96.81C152.23 97.07 152.584 97.2 153.037 97.2C153.37 97.2 153.66 97.1333 153.907 97C154.154 96.86 154.344 96.66 154.477 96.4C154.61 96.1333 154.677 95.8133 154.677 95.44V92.7H155.637V98H154.727V96.57L154.877 96.95C154.704 97.3033 154.444 97.5767 154.097 97.77C153.75 97.9633 153.36 98.06 152.927 98.06ZM162.98 92.65C163.414 92.65 163.794 92.7333 164.12 92.9C164.454 93.0667 164.714 93.32 164.9 93.66C165.087 94 165.18 94.43 165.18 94.95V98H164.22V95.06C164.22 94.5467 164.094 94.16 163.84 93.9C163.594 93.64 163.244 93.51 162.79 93.51C162.45 93.51 162.154 93.5767 161.9 93.71C161.647 93.8433 161.45 94.04 161.31 94.3C161.177 94.56 161.11 94.8833 161.11 95.27V98H160.15V90.58H161.11V94.13L160.92 93.75C161.094 93.4033 161.36 93.1333 161.72 92.94C162.08 92.7467 162.5 92.65 162.98 92.65ZM170.247 98V96.88L170.197 96.67V94.76C170.197 94.3533 170.077 94.04 169.837 93.82C169.604 93.5933 169.25 93.48 168.777 93.48C168.464 93.48 168.157 93.5333 167.857 93.64C167.557 93.74 167.304 93.8767 167.097 94.05L166.697 93.33C166.97 93.11 167.297 92.9433 167.677 92.83C168.064 92.71 168.467 92.65 168.887 92.65C169.614 92.65 170.174 92.8267 170.567 93.18C170.96 93.5333 171.157 94.0733 171.157 94.8V98H170.247ZM168.507 98.06C168.114 98.06 167.767 97.9933 167.467 97.86C167.174 97.7267 166.947 97.5433 166.787 97.31C166.627 97.07 166.547 96.8 166.547 96.5C166.547 96.2133 166.614 95.9533 166.747 95.72C166.887 95.4867 167.11 95.3 167.417 95.16C167.73 95.02 168.15 94.95 168.677 94.95H170.357V95.64H168.717C168.237 95.64 167.914 95.72 167.747 95.88C167.58 96.04 167.497 96.2333 167.497 96.46C167.497 96.72 167.6 96.93 167.807 97.09C168.014 97.2433 168.3 97.32 168.667 97.32C169.027 97.32 169.34 97.24 169.607 97.08C169.88 96.92 170.077 96.6867 170.197 96.38L170.387 97.04C170.26 97.3533 170.037 97.6033 169.717 97.79C169.397 97.97 168.994 98.06 168.507 98.06ZM174.226 98L171.906 92.7H172.906L174.966 97.5H174.486L176.586 92.7H177.526L175.206 98H174.226ZM180.635 98.06C180.069 98.06 179.569 97.9433 179.135 97.71C178.709 97.4767 178.375 97.1567 178.135 96.75C177.902 96.3433 177.785 95.8767 177.785 95.35C177.785 94.8233 177.899 94.3567 178.125 93.95C178.359 93.5433 178.675 93.2267 179.075 93C179.482 92.7667 179.939 92.65 180.445 92.65C180.959 92.65 181.412 92.7633 181.805 92.99C182.199 93.2167 182.505 93.5367 182.725 93.95C182.952 94.3567 183.065 94.8333 183.065 95.38C183.065 95.42 183.062 95.4667 183.055 95.52C183.055 95.5733 183.052 95.6233 183.045 95.67H178.535V94.98H182.545L182.155 95.22C182.162 94.88 182.092 94.5767 181.945 94.31C181.799 94.0433 181.595 93.8367 181.335 93.69C181.082 93.5367 180.785 93.46 180.445 93.46C180.112 93.46 179.815 93.5367 179.555 93.69C179.295 93.8367 179.092 94.0467 178.945 94.32C178.799 94.5867 178.725 94.8933 178.725 95.24V95.4C178.725 95.7533 178.805 96.07 178.965 96.35C179.132 96.6233 179.362 96.8367 179.655 96.99C179.949 97.1433 180.285 97.22 180.665 97.22C180.979 97.22 181.262 97.1667 181.515 97.06C181.775 96.9533 182.002 96.7933 182.195 96.58L182.725 97.2C182.485 97.48 182.185 97.6933 181.825 97.84C181.472 97.9867 181.075 98.06 180.635 98.06ZM189.314 98.06C188.86 98.06 188.46 97.9767 188.114 97.81C187.774 97.6433 187.507 97.39 187.314 97.05C187.127 96.7033 187.034 96.27 187.034 95.75V92.7H187.994V95.64C187.994 96.16 188.117 96.55 188.364 96.81C188.617 97.07 188.97 97.2 189.424 97.2C189.757 97.2 190.047 97.1333 190.294 97C190.54 96.86 190.73 96.66 190.864 96.4C190.997 96.1333 191.064 95.8133 191.064 95.44V92.7H192.024V98H191.114V96.57L191.264 96.95C191.09 97.3033 190.83 97.5767 190.484 97.77C190.137 97.9633 189.747 98.06 189.314 98.06ZM196.661 98.06C196.221 98.06 195.818 97.96 195.451 97.76C195.091 97.5533 194.801 97.25 194.581 96.85C194.368 96.45 194.261 95.95 194.261 95.35C194.261 94.75 194.365 94.25 194.571 93.85C194.785 93.45 195.071 93.15 195.431 92.95C195.798 92.75 196.208 92.65 196.661 92.65C197.181 92.65 197.641 92.7633 198.041 92.99C198.441 93.2167 198.758 93.5333 198.991 93.94C199.225 94.34 199.341 94.81 199.341 95.35C199.341 95.89 199.225 96.3633 198.991 96.77C198.758 97.1767 198.441 97.4933 198.041 97.72C197.641 97.9467 197.181 98.06 196.661 98.06ZM193.851 99.94V92.7H194.771V94.13L194.711 95.36L194.811 96.59V99.94H193.851ZM196.581 97.22C196.921 97.22 197.225 97.1433 197.491 96.99C197.765 96.8367 197.978 96.62 198.131 96.34C198.291 96.0533 198.371 95.7233 198.371 95.35C198.371 94.97 198.291 94.6433 198.131 94.37C197.978 94.09 197.765 93.8733 197.491 93.72C197.225 93.5667 196.921 93.49 196.581 93.49C196.248 93.49 195.945 93.5667 195.671 93.72C195.405 93.8733 195.191 94.09 195.031 94.37C194.878 94.6433 194.801 94.97 194.801 95.35C194.801 95.7233 194.878 96.0533 195.031 96.34C195.191 96.62 195.405 96.8367 195.671 96.99C195.945 97.1433 196.248 97.22 196.581 97.22ZM202.858 98.06C202.344 98.06 201.884 97.9467 201.478 97.72C201.078 97.4933 200.761 97.1767 200.528 96.77C200.294 96.3633 200.178 95.89 200.178 95.35C200.178 94.81 200.294 94.34 200.528 93.94C200.761 93.5333 201.078 93.2167 201.478 92.99C201.884 92.7633 202.344 92.65 202.858 92.65C203.304 92.65 203.708 92.75 204.068 92.95C204.428 93.15 204.714 93.45 204.928 93.85C205.148 94.25 205.258 94.75 205.258 95.35C205.258 95.95 205.151 96.45 204.938 96.85C204.731 97.25 204.448 97.5533 204.088 97.76C203.728 97.96 203.318 98.06 202.858 98.06ZM202.938 97.22C203.271 97.22 203.571 97.1433 203.838 96.99C204.111 96.8367 204.324 96.62 204.478 96.34C204.638 96.0533 204.718 95.7233 204.718 95.35C204.718 94.97 204.638 94.6433 204.478 94.37C204.324 94.09 204.111 93.8733 203.838 93.72C203.571 93.5667 203.271 93.49 202.938 93.49C202.598 93.49 202.294 93.5667 202.028 93.72C201.761 93.8733 201.548 94.09 201.388 94.37C201.228 94.6433 201.148 94.97 201.148 95.35C201.148 95.7233 201.228 96.0533 201.388 96.34C201.548 96.62 201.761 96.8367 202.028 96.99C202.294 97.1433 202.598 97.22 202.938 97.22ZM204.748 98V96.57L204.808 95.34L204.708 94.11V90.58H205.668V98H204.748ZM210.774 98V96.88L210.724 96.67V94.76C210.724 94.3533 210.604 94.04 210.364 93.82C210.131 93.5933 209.778 93.48 209.304 93.48C208.991 93.48 208.684 93.5333 208.384 93.64C208.084 93.74 207.831 93.8767 207.624 94.05L207.224 93.33C207.498 93.11 207.824 92.9433 208.204 92.83C208.591 92.71 208.994 92.65 209.414 92.65C210.141 92.65 210.701 92.8267 211.094 93.18C211.488 93.5333 211.684 94.0733 211.684 94.8V98H210.774ZM209.034 98.06C208.641 98.06 208.294 97.9933 207.994 97.86C207.701 97.7267 207.474 97.5433 207.314 97.31C207.154 97.07 207.074 96.8 207.074 96.5C207.074 96.2133 207.141 95.9533 207.274 95.72C207.414 95.4867 207.638 95.3 207.944 95.16C208.258 95.02 208.678 94.95 209.204 94.95H210.884V95.64H209.244C208.764 95.64 208.441 95.72 208.274 95.88C208.108 96.04 208.024 96.2333 208.024 96.46C208.024 96.72 208.128 96.93 208.334 97.09C208.541 97.2433 208.828 97.32 209.194 97.32C209.554 97.32 209.868 97.24 210.134 97.08C210.408 96.92 210.604 96.6867 210.724 96.38L210.914 97.04C210.788 97.3533 210.564 97.6033 210.244 97.79C209.924 97.97 209.521 98.06 209.034 98.06ZM215.281 98.06C214.747 98.06 214.334 97.9167 214.041 97.63C213.747 97.3433 213.601 96.9333 213.601 96.4V91.54H214.561V96.36C214.561 96.6467 214.631 96.8667 214.771 97.02C214.917 97.1733 215.124 97.25 215.391 97.25C215.691 97.25 215.941 97.1667 216.141 97L216.441 97.69C216.294 97.8167 216.117 97.91 215.911 97.97C215.711 98.03 215.501 98.06 215.281 98.06ZM212.701 93.49V92.7H216.081V93.49H212.701ZM219.786 98.06C219.219 98.06 218.719 97.9433 218.286 97.71C217.859 97.4767 217.526 97.1567 217.286 96.75C217.052 96.3433 216.936 95.8767 216.936 95.35C216.936 94.8233 217.049 94.3567 217.276 93.95C217.509 93.5433 217.826 93.2267 218.226 93C218.632 92.7667 219.089 92.65 219.596 92.65C220.109 92.65 220.562 92.7633 220.956 92.99C221.349 93.2167 221.656 93.5367 221.876 93.95C222.102 94.3567 222.216 94.8333 222.216 95.38C222.216 95.42 222.212 95.4667 222.206 95.52C222.206 95.5733 222.202 95.6233 222.196 95.67H217.686V94.98H221.696L221.306 95.22C221.312 94.88 221.242 94.5767 221.096 94.31C220.949 94.0433 220.746 93.8367 220.486 93.69C220.232 93.5367 219.936 93.46 219.596 93.46C219.262 93.46 218.966 93.5367 218.706 93.69C218.446 93.8367 218.242 94.0467 218.096 94.32C217.949 94.5867 217.876 94.8933 217.876 95.24V95.4C217.876 95.7533 217.956 96.07 218.116 96.35C218.282 96.6233 218.512 96.8367 218.806 96.99C219.099 97.1433 219.436 97.22 219.816 97.22C220.129 97.22 220.412 97.1667 220.666 97.06C220.926 96.9533 221.152 96.7933 221.346 96.58L221.876 97.2C221.636 97.48 221.336 97.6933 220.976 97.84C220.622 97.9867 220.226 98.06 219.786 98.06ZM225.739 98.06C225.225 98.06 224.765 97.9467 224.359 97.72C223.959 97.4933 223.642 97.1767 223.409 96.77C223.175 96.3633 223.059 95.89 223.059 95.35C223.059 94.81 223.175 94.34 223.409 93.94C223.642 93.5333 223.959 93.2167 224.359 92.99C224.765 92.7633 225.225 92.65 225.739 92.65C226.185 92.65 226.589 92.75 226.949 92.95C227.309 93.15 227.595 93.45 227.809 93.85C228.029 94.25 228.139 94.75 228.139 95.35C228.139 95.95 228.032 96.45 227.819 96.85C227.612 97.25 227.329 97.5533 226.969 97.76C226.609 97.96 226.199 98.06 225.739 98.06ZM225.819 97.22C226.152 97.22 226.452 97.1433 226.719 96.99C226.992 96.8367 227.205 96.62 227.359 96.34C227.519 96.0533 227.599 95.7233 227.599 95.35C227.599 94.97 227.519 94.6433 227.359 94.37C227.205 94.09 226.992 93.8733 226.719 93.72C226.452 93.5667 226.152 93.49 225.819 93.49C225.479 93.49 225.175 93.5667 224.909 93.72C224.642 93.8733 224.429 94.09 224.269 94.37C224.109 94.6433 224.029 94.97 224.029 95.35C224.029 95.7233 224.109 96.0533 224.269 96.34C224.429 96.62 224.642 96.8367 224.909 96.99C225.175 97.1433 225.479 97.22 225.819 97.22ZM227.629 98V96.57L227.689 95.34L227.589 94.11V90.58H228.549V98H227.629ZM236.341 98V96.88L236.291 96.67V94.76C236.291 94.3533 236.171 94.04 235.931 93.82C235.697 93.5933 235.344 93.48 234.871 93.48C234.557 93.48 234.251 93.5333 233.951 93.64C233.651 93.74 233.397 93.8767 233.191 94.05L232.791 93.33C233.064 93.11 233.391 92.9433 233.771 92.83C234.157 92.71 234.561 92.65 234.981 92.65C235.707 92.65 236.267 92.8267 236.661 93.18C237.054 93.5333 237.251 94.0733 237.251 94.8V98H236.341ZM234.601 98.06C234.207 98.06 233.861 97.9933 233.561 97.86C233.267 97.7267 233.041 97.5433 232.881 97.31C232.721 97.07 232.641 96.8 232.641 96.5C232.641 96.2133 232.707 95.9533 232.841 95.72C232.981 95.4867 233.204 95.3 233.511 95.16C233.824 95.02 234.244 94.95 234.771 94.95H236.451V95.64H234.811C234.331 95.64 234.007 95.72 233.841 95.88C233.674 96.04 233.591 96.2333 233.591 96.46C233.591 96.72 233.694 96.93 233.901 97.09C234.107 97.2433 234.394 97.32 234.761 97.32C235.121 97.32 235.434 97.24 235.701 97.08C235.974 96.92 236.171 96.6867 236.291 96.38L236.481 97.04C236.354 97.3533 236.131 97.6033 235.811 97.79C235.491 97.97 235.087 98.06 234.601 98.06ZM241.837 98.06C241.397 98.06 240.994 97.96 240.627 97.76C240.267 97.5533 239.977 97.25 239.757 96.85C239.544 96.45 239.437 95.95 239.437 95.35C239.437 94.75 239.541 94.25 239.747 93.85C239.961 93.45 240.247 93.15 240.607 92.95C240.974 92.75 241.384 92.65 241.837 92.65C242.357 92.65 242.817 92.7633 243.217 92.99C243.617 93.2167 243.934 93.5333 244.167 93.94C244.401 94.34 244.517 94.81 244.517 95.35C244.517 95.89 244.401 96.3633 244.167 96.77C243.934 97.1767 243.617 97.4933 243.217 97.72C242.817 97.9467 242.357 98.06 241.837 98.06ZM239.027 99.94V92.7H239.947V94.13L239.887 95.36L239.987 96.59V99.94H239.027ZM241.757 97.22C242.097 97.22 242.401 97.1433 242.667 96.99C242.941 96.8367 243.154 96.62 243.307 96.34C243.467 96.0533 243.547 95.7233 243.547 95.35C243.547 94.97 243.467 94.6433 243.307 94.37C243.154 94.09 242.941 93.8733 242.667 93.72C242.401 93.5667 242.097 93.49 241.757 93.49C241.424 93.49 241.121 93.5667 240.847 93.72C240.581 93.8733 240.367 94.09 240.207 94.37C240.054 94.6433 239.977 94.97 239.977 95.35C239.977 95.7233 240.054 96.0533 240.207 96.34C240.367 96.62 240.581 96.8367 240.847 96.99C241.121 97.1433 241.424 97.22 241.757 97.22ZM248.654 98.06C248.214 98.06 247.81 97.96 247.444 97.76C247.084 97.5533 246.794 97.25 246.574 96.85C246.36 96.45 246.254 95.95 246.254 95.35C246.254 94.75 246.357 94.25 246.564 93.85C246.777 93.45 247.064 93.15 247.424 92.95C247.79 92.75 248.2 92.65 248.654 92.65C249.174 92.65 249.634 92.7633 250.034 92.99C250.434 93.2167 250.75 93.5333 250.984 93.94C251.217 94.34 251.334 94.81 251.334 95.35C251.334 95.89 251.217 96.3633 250.984 96.77C250.75 97.1767 250.434 97.4933 250.034 97.72C249.634 97.9467 249.174 98.06 248.654 98.06ZM245.844 99.94V92.7H246.764V94.13L246.704 95.36L246.804 96.59V99.94H245.844ZM248.574 97.22C248.914 97.22 249.217 97.1433 249.484 96.99C249.757 96.8367 249.97 96.62 250.124 96.34C250.284 96.0533 250.364 95.7233 250.364 95.35C250.364 94.97 250.284 94.6433 250.124 94.37C249.97 94.09 249.757 93.8733 249.484 93.72C249.217 93.5667 248.914 93.49 248.574 93.49C248.24 93.49 247.937 93.5667 247.664 93.72C247.397 93.8733 247.184 94.09 247.024 94.37C246.87 94.6433 246.794 94.97 246.794 95.35C246.794 95.7233 246.87 96.0533 247.024 96.34C247.184 96.62 247.397 96.8367 247.664 96.99C247.937 97.1433 248.24 97.22 248.574 97.22ZM256.736 98L254.416 92.7H255.416L257.476 97.5H256.996L259.096 92.7H260.036L257.716 98H256.736ZM263.145 98.06C262.578 98.06 262.078 97.9433 261.645 97.71C261.218 97.4767 260.885 97.1567 260.645 96.75C260.412 96.3433 260.295 95.8767 260.295 95.35C260.295 94.8233 260.408 94.3567 260.635 93.95C260.868 93.5433 261.185 93.2267 261.585 93C261.992 92.7667 262.448 92.65 262.955 92.65C263.468 92.65 263.922 92.7633 264.315 92.99C264.708 93.2167 265.015 93.5367 265.235 93.95C265.462 94.3567 265.575 94.8333 265.575 95.38C265.575 95.42 265.572 95.4667 265.565 95.52C265.565 95.5733 265.562 95.6233 265.555 95.67H261.045V94.98H265.055L264.665 95.22C264.672 94.88 264.602 94.5767 264.455 94.31C264.308 94.0433 264.105 93.8367 263.845 93.69C263.592 93.5367 263.295 93.46 262.955 93.46C262.622 93.46 262.325 93.5367 262.065 93.69C261.805 93.8367 261.602 94.0467 261.455 94.32C261.308 94.5867 261.235 94.8933 261.235 95.24V95.4C261.235 95.7533 261.315 96.07 261.475 96.35C261.642 96.6233 261.872 96.8367 262.165 96.99C262.458 97.1433 262.795 97.22 263.175 97.22C263.488 97.22 263.772 97.1667 264.025 97.06C264.285 96.9533 264.512 96.7933 264.705 96.58L265.235 97.2C264.995 97.48 264.695 97.6933 264.335 97.84C263.982 97.9867 263.585 98.06 263.145 98.06ZM266.908 98V92.7H267.828V94.14L267.738 93.78C267.885 93.4133 268.131 93.1333 268.478 92.94C268.825 92.7467 269.251 92.65 269.758 92.65V93.58C269.718 93.5733 269.678 93.57 269.638 93.57C269.605 93.57 269.571 93.57 269.538 93.57C269.025 93.57 268.618 93.7233 268.318 94.03C268.018 94.3367 267.868 94.78 267.868 95.36V98H266.908ZM272.52 98.06C272.08 98.06 271.66 98 271.26 97.88C270.867 97.76 270.557 97.6133 270.33 97.44L270.73 96.68C270.957 96.8333 271.237 96.9633 271.57 97.07C271.903 97.1767 272.243 97.23 272.59 97.23C273.037 97.23 273.357 97.1667 273.55 97.04C273.75 96.9133 273.85 96.7367 273.85 96.51C273.85 96.3433 273.79 96.2133 273.67 96.12C273.55 96.0267 273.39 95.9567 273.19 95.91C272.997 95.8633 272.78 95.8233 272.54 95.79C272.3 95.75 272.06 95.7033 271.82 95.65C271.58 95.59 271.36 95.51 271.16 95.41C270.96 95.3033 270.8 95.16 270.68 94.98C270.56 94.7933 270.5 94.5467 270.5 94.24C270.5 93.92 270.59 93.64 270.77 93.4C270.95 93.16 271.203 92.9767 271.53 92.85C271.863 92.7167 272.257 92.65 272.71 92.65C273.057 92.65 273.407 92.6933 273.76 92.78C274.12 92.86 274.413 92.9767 274.64 93.13L274.23 93.89C273.99 93.73 273.74 93.62 273.48 93.56C273.22 93.5 272.96 93.47 272.7 93.47C272.28 93.47 271.967 93.54 271.76 93.68C271.553 93.8133 271.45 93.9867 271.45 94.2C271.45 94.38 271.51 94.52 271.63 94.62C271.757 94.7133 271.917 94.7867 272.11 94.84C272.31 94.8933 272.53 94.94 272.77 94.98C273.01 95.0133 273.25 95.06 273.49 95.12C273.73 95.1733 273.947 95.25 274.14 95.35C274.34 95.45 274.5 95.59 274.62 95.77C274.747 95.95 274.81 96.19 274.81 96.49C274.81 96.81 274.717 97.0867 274.53 97.32C274.343 97.5533 274.08 97.7367 273.74 97.87C273.4 97.9967 272.993 98.06 272.52 98.06ZM276.01 98V92.7H276.97V98H276.01ZM276.49 91.68C276.303 91.68 276.146 91.62 276.02 91.5C275.9 91.38 275.84 91.2333 275.84 91.06C275.84 90.88 275.9 90.73 276.02 90.61C276.146 90.49 276.303 90.43 276.49 90.43C276.676 90.43 276.83 90.49 276.95 90.61C277.076 90.7233 277.14 90.8667 277.14 91.04C277.14 91.22 277.08 91.3733 276.96 91.5C276.84 91.62 276.683 91.68 276.49 91.68ZM281.073 98.06C280.539 98.06 280.066 97.9433 279.653 97.71C279.239 97.4767 278.913 97.1567 278.673 96.75C278.433 96.3367 278.313 95.87 278.313 95.35C278.313 94.8233 278.433 94.3567 278.673 93.95C278.913 93.5433 279.239 93.2267 279.653 93C280.066 92.7667 280.539 92.65 281.073 92.65C281.599 92.65 282.069 92.7667 282.483 93C282.903 93.2267 283.229 93.5433 283.463 93.95C283.703 94.35 283.823 94.8167 283.823 95.35C283.823 95.8767 283.703 96.3433 283.463 96.75C283.229 97.1567 282.903 97.4767 282.483 97.71C282.069 97.9433 281.599 98.06 281.073 98.06ZM281.073 97.22C281.413 97.22 281.716 97.1433 281.983 96.99C282.256 96.8367 282.469 96.62 282.623 96.34C282.776 96.0533 282.853 95.7233 282.853 95.35C282.853 94.97 282.776 94.6433 282.623 94.37C282.469 94.09 282.256 93.8733 281.983 93.72C281.716 93.5667 281.413 93.49 281.073 93.49C280.733 93.49 280.429 93.5667 280.163 93.72C279.896 93.8733 279.683 94.09 279.523 94.37C279.363 94.6433 279.283 94.97 279.283 95.35C279.283 95.7233 279.363 96.0533 279.523 96.34C279.683 96.62 279.896 96.8367 280.163 96.99C280.429 97.1433 280.733 97.22 281.073 97.22ZM287.98 92.65C288.414 92.65 288.794 92.7333 289.12 92.9C289.454 93.0667 289.714 93.32 289.9 93.66C290.087 94 290.18 94.43 290.18 94.95V98H289.22V95.06C289.22 94.5467 289.094 94.16 288.84 93.9C288.594 93.64 288.244 93.51 287.79 93.51C287.45 93.51 287.154 93.5767 286.9 93.71C286.647 93.8433 286.45 94.04 286.31 94.3C286.177 94.56 286.11 94.8833 286.11 95.27V98H285.15V92.7H286.07V94.13L285.92 93.75C286.094 93.4033 286.36 93.1333 286.72 92.94C287.08 92.7467 287.5 92.65 287.98 92.65Z" fill="#505050"/>
<path d="M141.708 85.096C141.068 85.096 140.456 85 139.872 84.808C139.288 84.608 138.828 84.352 138.492 84.04L138.936 83.104C139.256 83.384 139.664 83.616 140.16 83.8C140.656 83.984 141.172 84.076 141.708 84.076C142.196 84.076 142.592 84.02 142.896 83.908C143.2 83.796 143.424 83.644 143.568 83.452C143.712 83.252 143.784 83.028 143.784 82.78C143.784 82.492 143.688 82.26 143.496 82.084C143.312 81.908 143.068 81.768 142.764 81.664C142.468 81.552 142.14 81.456 141.78 81.376C141.42 81.296 141.056 81.204 140.688 81.1C140.328 80.988 139.996 80.848 139.692 80.68C139.396 80.512 139.156 80.288 138.972 80.008C138.788 79.72 138.696 79.352 138.696 78.904C138.696 78.472 138.808 78.076 139.032 77.716C139.264 77.348 139.616 77.056 140.088 76.84C140.568 76.616 141.176 76.504 141.912 76.504C142.4 76.504 142.884 76.568 143.364 76.696C143.844 76.824 144.26 77.008 144.612 77.248L144.216 78.208C143.856 77.968 143.476 77.796 143.076 77.692C142.676 77.58 142.288 77.524 141.912 77.524C141.44 77.524 141.052 77.584 140.748 77.704C140.444 77.824 140.22 77.984 140.076 78.184C139.94 78.384 139.872 78.608 139.872 78.856C139.872 79.152 139.964 79.388 140.148 79.564C140.34 79.74 140.584 79.88 140.88 79.984C141.184 80.088 141.516 80.184 141.876 80.272C142.236 80.352 142.596 80.444 142.956 80.548C143.324 80.652 143.656 80.788 143.952 80.956C144.256 81.124 144.5 81.348 144.684 81.628C144.868 81.908 144.96 82.268 144.96 82.708C144.96 83.132 144.844 83.528 144.612 83.896C144.38 84.256 144.02 84.548 143.532 84.772C143.052 84.988 142.444 85.096 141.708 85.096ZM149.221 85.072C148.677 85.072 148.197 84.972 147.781 84.772C147.373 84.572 147.053 84.268 146.821 83.86C146.597 83.444 146.485 82.924 146.485 82.3V78.64H147.637V82.168C147.637 82.792 147.785 83.26 148.081 83.572C148.385 83.884 148.809 84.04 149.353 84.04C149.753 84.04 150.101 83.96 150.397 83.8C150.693 83.632 150.921 83.392 151.081 83.08C151.241 82.76 151.321 82.376 151.321 81.928V78.64H152.473V85H151.381V83.284L151.561 83.74C151.353 84.164 151.041 84.492 150.625 84.724C150.209 84.956 149.741 85.072 149.221 85.072ZM157.438 85.072C156.79 85.072 156.21 84.932 155.698 84.652C155.194 84.372 154.798 83.988 154.51 83.5C154.222 83.012 154.078 82.452 154.078 81.82C154.078 81.188 154.222 80.628 154.51 80.14C154.798 79.652 155.194 79.272 155.698 79C156.21 78.72 156.79 78.58 157.438 78.58C158.014 78.58 158.526 78.696 158.974 78.928C159.43 79.152 159.782 79.488 160.03 79.936L159.154 80.5C158.946 80.188 158.69 79.96 158.386 79.816C158.09 79.664 157.77 79.588 157.426 79.588C157.01 79.588 156.638 79.68 156.31 79.864C155.982 80.048 155.722 80.308 155.53 80.644C155.338 80.972 155.242 81.364 155.242 81.82C155.242 82.276 155.338 82.672 155.53 83.008C155.722 83.344 155.982 83.604 156.31 83.788C156.638 83.972 157.01 84.064 157.426 84.064C157.77 84.064 158.09 83.992 158.386 83.848C158.69 83.696 158.946 83.464 159.154 83.152L160.03 83.704C159.782 84.144 159.43 84.484 158.974 84.724C158.526 84.956 158.014 85.072 157.438 85.072ZM164.2 85.072C163.552 85.072 162.972 84.932 162.46 84.652C161.956 84.372 161.56 83.988 161.272 83.5C160.984 83.012 160.84 82.452 160.84 81.82C160.84 81.188 160.984 80.628 161.272 80.14C161.56 79.652 161.956 79.272 162.46 79C162.972 78.72 163.552 78.58 164.2 78.58C164.776 78.58 165.288 78.696 165.736 78.928C166.192 79.152 166.544 79.488 166.792 79.936L165.916 80.5C165.708 80.188 165.452 79.96 165.148 79.816C164.852 79.664 164.532 79.588 164.188 79.588C163.772 79.588 163.4 79.68 163.072 79.864C162.744 80.048 162.484 80.308 162.292 80.644C162.1 80.972 162.004 81.364 162.004 81.82C162.004 82.276 162.1 82.672 162.292 83.008C162.484 83.344 162.744 83.604 163.072 83.788C163.4 83.972 163.772 84.064 164.188 84.064C164.532 84.064 164.852 83.992 165.148 83.848C165.452 83.696 165.708 83.464 165.916 83.152L166.792 83.704C166.544 84.144 166.192 84.484 165.736 84.724C165.288 84.956 164.776 85.072 164.2 85.072ZM171.022 85.072C170.342 85.072 169.742 84.932 169.222 84.652C168.71 84.372 168.31 83.988 168.022 83.5C167.742 83.012 167.602 82.452 167.602 81.82C167.602 81.188 167.738 80.628 168.01 80.14C168.29 79.652 168.67 79.272 169.15 79C169.638 78.72 170.186 78.58 170.794 78.58C171.41 78.58 171.954 78.716 172.426 78.988C172.898 79.26 173.266 79.644 173.53 80.14C173.802 80.628 173.938 81.2 173.938 81.856C173.938 81.904 173.934 81.96 173.926 82.024C173.926 82.088 173.922 82.148 173.914 82.204H168.502V81.376H173.314L172.846 81.664C172.854 81.256 172.77 80.892 172.594 80.572C172.418 80.252 172.174 80.004 171.862 79.828C171.558 79.644 171.202 79.552 170.794 79.552C170.394 79.552 170.038 79.644 169.726 79.828C169.414 80.004 169.17 80.256 168.994 80.584C168.818 80.904 168.73 81.272 168.73 81.688V81.88C168.73 82.304 168.826 82.684 169.018 83.02C169.218 83.348 169.494 83.604 169.846 83.788C170.198 83.972 170.602 84.064 171.058 84.064C171.434 84.064 171.774 84 172.078 83.872C172.39 83.744 172.662 83.552 172.894 83.296L173.53 84.04C173.242 84.376 172.882 84.632 172.45 84.808C172.026 84.984 171.55 85.072 171.022 85.072ZM177.361 85.072C176.833 85.072 176.329 85 175.849 84.856C175.377 84.712 175.005 84.536 174.733 84.328L175.213 83.416C175.485 83.6 175.821 83.756 176.221 83.884C176.621 84.012 177.029 84.076 177.445 84.076C177.981 84.076 178.365 84 178.597 83.848C178.837 83.696 178.957 83.484 178.957 83.212C178.957 83.012 178.885 82.856 178.741 82.744C178.597 82.632 178.405 82.548 178.165 82.492C177.933 82.436 177.673 82.388 177.385 82.348C177.097 82.3 176.809 82.244 176.521 82.18C176.233 82.108 175.969 82.012 175.729 81.892C175.489 81.764 175.297 81.592 175.153 81.376C175.009 81.152 174.937 80.856 174.937 80.488C174.937 80.104 175.045 79.768 175.261 79.48C175.477 79.192 175.781 78.972 176.173 78.82C176.573 78.66 177.045 78.58 177.589 78.58C178.005 78.58 178.425 78.632 178.849 78.736C179.281 78.832 179.633 78.972 179.905 79.156L179.413 80.068C179.125 79.876 178.825 79.744 178.513 79.672C178.201 79.6 177.889 79.564 177.577 79.564C177.073 79.564 176.697 79.648 176.449 79.816C176.201 79.976 176.077 80.184 176.077 80.44C176.077 80.656 176.149 80.824 176.293 80.944C176.445 81.056 176.637 81.144 176.869 81.208C177.109 81.272 177.373 81.328 177.661 81.376C177.949 81.416 178.237 81.472 178.525 81.544C178.813 81.608 179.073 81.7 179.305 81.82C179.545 81.94 179.737 82.108 179.881 82.324C180.033 82.54 180.109 82.828 180.109 83.188C180.109 83.572 179.997 83.904 179.773 84.184C179.549 84.464 179.233 84.684 178.825 84.844C178.417 84.996 177.929 85.072 177.361 85.072ZM183.373 85.072C182.845 85.072 182.341 85 181.861 84.856C181.389 84.712 181.017 84.536 180.745 84.328L181.225 83.416C181.497 83.6 181.833 83.756 182.233 83.884C182.633 84.012 183.041 84.076 183.457 84.076C183.993 84.076 184.377 84 184.609 83.848C184.849 83.696 184.969 83.484 184.969 83.212C184.969 83.012 184.897 82.856 184.753 82.744C184.609 82.632 184.417 82.548 184.177 82.492C183.945 82.436 183.685 82.388 183.397 82.348C183.109 82.3 182.821 82.244 182.533 82.18C182.245 82.108 181.981 82.012 181.741 81.892C181.501 81.764 181.309 81.592 181.165 81.376C181.021 81.152 180.949 80.856 180.949 80.488C180.949 80.104 181.057 79.768 181.273 79.48C181.489 79.192 181.793 78.972 182.185 78.82C182.585 78.66 183.057 78.58 183.601 78.58C184.017 78.58 184.437 78.632 184.861 78.736C185.293 78.832 185.645 78.972 185.917 79.156L185.425 80.068C185.137 79.876 184.837 79.744 184.525 79.672C184.213 79.6 183.901 79.564 183.589 79.564C183.085 79.564 182.709 79.648 182.461 79.816C182.213 79.976 182.089 80.184 182.089 80.44C182.089 80.656 182.161 80.824 182.305 80.944C182.457 81.056 182.649 81.144 182.881 81.208C183.121 81.272 183.385 81.328 183.673 81.376C183.961 81.416 184.249 81.472 184.537 81.544C184.825 81.608 185.085 81.7 185.317 81.82C185.557 81.94 185.749 82.108 185.893 82.324C186.045 82.54 186.121 82.828 186.121 83.188C186.121 83.572 186.009 83.904 185.785 84.184C185.561 84.464 185.245 84.684 184.837 84.844C184.429 84.996 183.941 85.072 183.373 85.072Z" fill="#30C26B"/>
<path d="M111 87C111 93.0751 106.075 98 100 98C93.9249 98 89 93.0751 89 87C89 80.9249 93.9249 76 100 76C106.075 76 111 80.9249 111 87ZM98.7276 92.8244L106.889 84.6631C107.166 84.386 107.166 83.9366 106.889 83.6595L105.885 82.6559C105.608 82.3787 105.159 82.3787 104.882 82.6559L98.2258 89.3117L95.1184 86.2042C94.8412 85.9271 94.3919 85.9271 94.1147 86.2042L93.1111 87.2078C92.8339 87.485 92.8339 87.9343 93.1111 88.2115L97.724 92.8244C98.0011 93.1015 98.4505 93.1015 98.7276 92.8244Z" fill="#30C26B"/>
<rect x="356" y="179" width="82" height="140.982" rx="10" fill="#EFEFEF"/>
<rect x="363.193" y="193.386" width="67.614" height="31.6491" rx="2" fill="#D9D9D9"/>
<rect x="363.193" y="232.228" width="67.614" height="31.6491" rx="2" fill="#D9D9D9"/>
<rect x="363.193" y="269.632" width="31.6491" height="31.6491" rx="2" fill="#D9D9D9"/>
<rect x="399.158" y="269.632" width="31.6491" height="31.6491" rx="2" fill="#D9D9D9"/>
<g clip-path="url(#clip0_429_2342)">
<path d="M0 288.85V160.15C0 156.098 3.10781 153 7.17188 153H145.828C149.892 153 153 156.098 153 160.15V288.85C153 292.902 149.892 296 145.828 296H7.17188C3.10781 296 0 292.902 0 288.85Z" fill="#EFEFEF"/>
<path d="M7.17188 164.917C8.49217 164.917 9.5625 163.85 9.5625 162.533C9.5625 161.217 8.49217 160.15 7.17188 160.15C5.85158 160.15 4.78125 161.217 4.78125 162.533C4.78125 163.85 5.85158 164.917 7.17188 164.917Z" fill="#9BA7AF"/>
<path d="M16.7344 164.917C18.0547 164.917 19.125 163.85 19.125 162.533C19.125 161.217 18.0547 160.15 16.7344 160.15C15.4141 160.15 14.3438 161.217 14.3438 162.533C14.3438 163.85 15.4141 164.917 16.7344 164.917Z" fill="#9BA7AF"/>
<path d="M26.2969 164.917C27.6172 164.917 28.6875 163.85 28.6875 162.533C28.6875 161.217 27.6172 160.15 26.2969 160.15C24.9765 160.15 23.9062 161.217 23.9062 162.533C23.9062 163.85 24.9765 164.917 26.2969 164.917Z" fill="#9BA7AF"/>
<path d="M145.828 291.233H7.17188C5.7375 291.233 4.78125 290.28 4.78125 288.85V174.45C4.78125 173.02 5.7375 172.067 7.17188 172.067H145.828C147.263 172.067 148.219 173.02 148.219 174.45V288.85C148.219 290.28 147.263 291.233 145.828 291.233Z" fill="#35363E"/>
<path d="M145.828 164.917H35.8594C34.425 164.917 33.4688 163.963 33.4688 162.533C33.4688 161.103 34.425 160.15 35.8594 160.15H145.828C147.263 160.15 148.219 161.103 148.219 162.533C148.219 163.963 147.263 164.917 145.828 164.917Z" fill="#E2E5E7"/>
<path d="M38.25 186.367H19.125C17.6906 186.367 16.7344 185.413 16.7344 183.983C16.7344 182.553 17.6906 181.6 19.125 181.6H38.25C39.6844 181.6 40.6406 182.553 40.6406 183.983C40.6406 185.413 39.6844 186.367 38.25 186.367Z" fill="#CAD1D8"/>
<path d="M52.5938 195.9H28.6875C27.2531 195.9 26.2969 194.947 26.2969 193.517C26.2969 192.087 27.2531 191.134 28.6875 191.134H52.5938C54.0281 191.134 54.9844 192.087 54.9844 193.517C54.9844 194.947 54.0281 195.9 52.5938 195.9Z" fill="#CAD1D8"/>
<path d="M105.188 195.9H81.2812C79.8469 195.9 78.8906 194.947 78.8906 193.517C78.8906 192.087 79.8469 191.134 81.2812 191.134H105.188C106.622 191.134 107.578 192.087 107.578 193.517C107.578 194.947 106.622 195.9 105.188 195.9Z" fill="#CAD1D8"/>
<path d="M76.5 214.967H52.5938C51.1594 214.967 50.2031 214.014 50.2031 212.584C50.2031 211.154 51.1594 210.2 52.5938 210.2H76.5C77.9344 210.2 78.8906 211.154 78.8906 212.584C78.8906 214.014 77.9344 214.967 76.5 214.967Z" fill="#EE2C39"/>
<path d="M71.7188 195.9H62.1562C60.7219 195.9 59.7656 194.947 59.7656 193.517C59.7656 192.087 60.7219 191.134 62.1562 191.134H71.7188C73.1531 191.134 74.1094 192.087 74.1094 193.517C74.1094 194.947 73.1531 195.9 71.7188 195.9Z" fill="#3BB54A"/>
<path d="M59.7656 205.433H28.6875C27.2531 205.433 26.2969 204.48 26.2969 203.05C26.2969 201.62 27.2531 200.667 28.6875 200.667H59.7656C61.2 200.667 62.1562 201.62 62.1562 203.05C62.1562 204.48 61.2 205.433 59.7656 205.433Z" fill="#CAD1D8"/>
<path d="M43.0312 214.967H28.6875C27.2531 214.967 26.2969 214.014 26.2969 212.584C26.2969 211.154 27.2531 210.2 28.6875 210.2H43.0312C44.4656 210.2 45.4219 211.154 45.4219 212.584C45.4219 214.014 44.4656 214.967 43.0312 214.967Z" fill="#FDBA4D"/>
<path d="M117.141 205.433H102.797C101.362 205.433 100.406 204.48 100.406 203.05C100.406 201.62 101.362 200.667 102.797 200.667H117.141C118.575 200.667 119.531 201.62 119.531 203.05C119.531 204.48 118.575 205.433 117.141 205.433Z" fill="#CAD1D8"/>
<path d="M90.8438 253.1H76.5C75.0656 253.1 74.1094 252.147 74.1094 250.717C74.1094 249.287 75.0656 248.333 76.5 248.333H90.8438C92.2781 248.333 93.2344 249.287 93.2344 250.717C93.2344 252.147 92.2781 253.1 90.8438 253.1Z" fill="#CAD1D8"/>
<path d="M74.1094 262.633H59.7656C58.3312 262.633 57.375 261.68 57.375 260.25C57.375 258.82 58.3312 257.867 59.7656 257.867H74.1094C75.5438 257.867 76.5 258.82 76.5 260.25C76.5 261.68 75.5438 262.633 74.1094 262.633Z" fill="#EE2C39"/>
<path d="M98.0156 262.633H83.6719C82.2375 262.633 81.2812 261.68 81.2812 260.25C81.2812 258.82 82.2375 257.867 83.6719 257.867H98.0156C99.45 257.867 100.406 258.82 100.406 260.25C100.406 261.68 99.45 262.633 98.0156 262.633Z" fill="#EE2C39"/>
<path d="M78.8906 243.567H69.3281C67.8937 243.567 66.9375 242.613 66.9375 241.183C66.9375 239.753 67.8937 238.8 69.3281 238.8H78.8906C80.325 238.8 81.2812 239.753 81.2812 241.183C81.2812 242.613 80.325 243.567 78.8906 243.567Z" fill="#3BB54A"/>
<path d="M133.875 272.167H124.312C122.878 272.167 121.922 271.213 121.922 269.783C121.922 268.353 122.878 267.4 124.312 267.4H133.875C135.309 267.4 136.266 268.353 136.266 269.783C136.266 271.213 135.309 272.167 133.875 272.167Z" fill="#3689C9"/>
<path d="M81.2812 224.5H62.1562C60.7219 224.5 59.7656 223.547 59.7656 222.117C59.7656 220.687 60.7219 219.733 62.1562 219.733H81.2812C82.7156 219.733 83.6719 220.687 83.6719 222.117C83.6719 223.547 82.7156 224.5 81.2812 224.5Z" fill="#3689C9"/>
<path d="M93.2344 205.433H69.3281C67.8937 205.433 66.9375 204.48 66.9375 203.05C66.9375 201.62 67.8937 200.667 69.3281 200.667H93.2344C94.6688 200.667 95.625 201.62 95.625 203.05C95.625 204.48 94.6688 205.433 93.2344 205.433Z" fill="#CAD1D8"/>
<path d="M52.5938 224.5H28.6875C27.2531 224.5 26.2969 223.547 26.2969 222.117C26.2969 220.687 27.2531 219.733 28.6875 219.733H52.5938C54.0281 219.733 54.9844 220.687 54.9844 222.117C54.9844 223.547 54.0281 224.5 52.5938 224.5Z" fill="#CAD1D8"/>
<path d="M38.25 234.034H19.125C17.6906 234.034 16.7344 233.08 16.7344 231.65C16.7344 230.22 17.6906 229.267 19.125 229.267H38.25C39.6844 229.267 40.6406 230.22 40.6406 231.65C40.6406 233.08 39.6844 234.034 38.25 234.034Z" fill="#CAD1D8"/>
<path d="M59.7656 243.567H28.6875C27.2531 243.567 26.2969 242.613 26.2969 241.183C26.2969 239.753 27.2531 238.8 28.6875 238.8H59.7656C61.2 238.8 62.1562 239.753 62.1562 241.183C62.1562 242.613 61.2 243.567 59.7656 243.567Z" fill="#CAD1D8"/>
<path d="M66.9375 253.1H28.6875C27.2531 253.1 26.2969 252.147 26.2969 250.717C26.2969 249.287 27.2531 248.333 28.6875 248.333H66.9375C68.3719 248.333 69.3281 249.287 69.3281 250.717C69.3281 252.147 68.3719 253.1 66.9375 253.1Z" fill="#FDBA4D"/>
<path d="M102.797 243.567H88.4531C87.0187 243.567 86.0625 242.613 86.0625 241.183C86.0625 239.753 87.0187 238.8 88.4531 238.8H102.797C104.231 238.8 105.188 239.753 105.188 241.183C105.188 242.613 104.231 243.567 102.797 243.567Z" fill="#FDBA4D"/>
<path d="M50.2031 262.633H28.6875C27.2531 262.633 26.2969 261.68 26.2969 260.25C26.2969 258.82 27.2531 257.867 28.6875 257.867H50.2031C51.6375 257.867 52.5938 258.82 52.5938 260.25C52.5938 261.68 51.6375 262.633 50.2031 262.633Z" fill="#CAD1D8"/>
<path d="M66.9375 272.167H28.6875C27.2531 272.167 26.2969 271.213 26.2969 269.783C26.2969 268.353 27.2531 267.4 28.6875 267.4H66.9375C68.3719 267.4 69.3281 268.353 69.3281 269.783C69.3281 271.213 68.3719 272.167 66.9375 272.167Z" fill="#CAD1D8"/>
<path d="M114.75 272.167H76.5C75.0656 272.167 74.1094 271.213 74.1094 269.783C74.1094 268.353 75.0656 267.4 76.5 267.4H114.75C116.184 267.4 117.141 268.353 117.141 269.783C117.141 271.213 116.184 272.167 114.75 272.167Z" fill="#CAD1D8"/>
<path d="M16.7344 279.317C16.7344 277.887 17.6906 276.933 19.125 276.933H38.25C39.6844 276.933 40.6406 277.887 40.6406 279.317C40.6406 280.747 39.6844 281.7 38.25 281.7H19.125C17.6906 281.7 16.7344 280.747 16.7344 279.317Z" fill="#CAD1D8"/>
<path d="M112.359 243.567C113.68 243.567 114.75 242.5 114.75 241.183C114.75 239.867 113.68 238.8 112.359 238.8C111.039 238.8 109.969 239.867 109.969 241.183C109.969 242.5 111.039 243.567 112.359 243.567Z" fill="#CAD1D8"/>
<path d="M86.0625 214.967C87.3828 214.967 88.4531 213.9 88.4531 212.584C88.4531 211.267 87.3828 210.2 86.0625 210.2C84.7422 210.2 83.6719 211.267 83.6719 212.584C83.6719 213.9 84.7422 214.967 86.0625 214.967Z" fill="#CAD1D8"/>
</g>
<defs>
<filter id="filter0_d_429_2342" x="160.695" y="213.117" width="130.353" height="76.2097" filterUnits="userSpaceOnUse" color-interpolation-filters="sRGB">
<feFlood flood-opacity="0" result="BackgroundImageFix"/>
<feColorMatrix in="SourceAlpha" type="matrix" values="0 0 0 0 0 0 0 0 0 0 0 0 0 0 0 0 0 0 127 0" result="hardAlpha"/>
<feOffset dx="3" dy="4"/>
<feColorMatrix type="matrix" values="0 0 0 0 0 0 0 0 0 0 0 0 0 0 0 0 0 0 0.2 0"/>
<feBlend mode="normal" in2="BackgroundImageFix" result="effect1_dropShadow_429_2342"/>
<feBlend mode="normal" in="SourceGraphic" in2="effect1_dropShadow_429_2342" result="shape"/>
</filter>
<clipPath id="clip0_429_2342">
<rect width="153" height="143" fill="white" transform="translate(0 153)"/>
</clipPath>
</defs>
</svg>
