<svg width="110" height="115" viewBox="0 0 110 115" fill="none" xmlns="http://www.w3.org/2000/svg">
<path d="M18.375 84.6667V86.1667H19.875H100.031C100.684 86.1667 101.5 86.8187 101.5 88V94.6667C101.5 95.848 100.684 96.5 100.031 96.5H13.9375C11.6459 96.5 9.5 94.3542 9.5 91.3333V21.3333C9.5 20.152 10.3156 19.5 10.9688 19.5H16.9062C17.5594 19.5 18.375 20.152 18.375 21.3333V84.6667ZM76.1713 40.9496L77.0597 39.952L76.1712 38.9545L70.1595 32.2045C69.1765 31.1008 69.0029 29.5691 69.4813 28.2723C69.9593 26.9768 70.9742 26.1667 72.1881 26.1667H94.0938C94.747 26.1667 95.5618 26.8185 95.5606 27.9985V28V52.5938C95.5606 54.2547 94.6844 55.3854 93.6792 55.8529C92.7027 56.3071 91.522 56.1904 90.5789 55.1315L84.5672 48.3815L83.4471 47.1238L82.3269 48.3815L64.5144 68.3815L64.514 68.382C62.7934 70.3155 60.0817 70.3161 58.3587 68.3815L44.7451 53.0961L43.6249 51.8383L42.5047 53.0962L33.9586 62.694C33.3955 63.3263 32.563 63.3263 31.9999 62.694L27.8029 57.9815C27.1497 57.2481 27.1497 55.9956 27.8029 55.2622L40.5481 40.9518L40.5485 40.9514C42.2691 39.0179 44.9808 39.0172 46.7038 40.9518L60.3174 56.2372L61.4376 57.495L62.5577 56.2371L76.1713 40.9496Z" stroke="#F15D22" stroke-width="3"/>
</svg>
