<svg width="110" height="115" viewBox="0 0 110 115" fill="none" xmlns="http://www.w3.org/2000/svg">
<path d="M92.8307 28.1428L92.8292 28.1422L57.6321 13.628C57.6317 13.6279 57.6313 13.6277 57.631 13.6276C56.8004 13.2868 55.9095 13.1111 55.0092 13.1111C54.1089 13.1111 53.2179 13.2868 52.3874 13.6276C52.387 13.6277 52.3866 13.6279 52.3863 13.628L17.1891 28.1422L17.184 28.1443C14.6459 29.1827 13 31.6318 13 34.331C13 69.5652 33.5283 93.7099 52.3686 101.483L92.8307 28.1428ZM92.8307 28.1428C95.352 29.1801 97 31.63 97 34.331C97 73.5722 72.6725 95.2745 57.6114 101.484M92.8307 28.1428L57.6114 101.484M57.6114 101.484C55.9364 102.172 54.0461 102.172 52.371 101.484L57.6114 101.484Z" stroke="#F15D22" stroke-width="4"/>
<path d="M49.6875 68.2623L37.9297 56.3304C37.2233 55.6135 37.2233 54.4513 37.9297 53.7343L40.4878 51.1383C41.1942 50.4214 42.3396 50.4214 43.046 51.1383L50.9666 59.1761L67.9316 41.9599C68.638 41.243 69.7834 41.243 70.4898 41.9599L73.0479 44.5559C73.7543 45.2728 73.7543 46.4351 73.0479 47.152L52.2456 68.2624C51.5392 68.9792 50.3939 68.9792 49.6875 68.2623Z" fill="#F15D22"/>
</svg>
