<svg width="630" height="633" viewBox="0 0 630 633" fill="none" xmlns="http://www.w3.org/2000/svg">
<g clip-path="url(#clip0_184_360)">
<path d="M38.2131 43.1689L50.088 41.7582L67.3974 23.6392" stroke="#A0A09C" stroke-linecap="round" stroke-linejoin="round"/>
<path d="M58.2703 17.1743L79.3335 32.1038L132.083 2.45337" stroke="#A0A09C" stroke-linecap="round" stroke-linejoin="round"/>
<path d="M70.3291 35.9803L85.6634 44.776L100.801 35.9803L99.771 27.3931" stroke="#A0A09C" stroke-linecap="round" stroke-linejoin="round"/>
<path d="M112.247 19.4192L78.2786 40.5437" stroke="#A0A09C" stroke-linecap="round" stroke-linejoin="round"/>
<path d="M92.9625 40.5437L88.3254 33.4041" stroke="#A0A09C" stroke-linecap="round" stroke-linejoin="round"/>
<path d="M121.656 10.967L132.795 28.3868" stroke="#A0A09C" stroke-linecap="round" stroke-linejoin="round"/>
<path d="M44.5798 49.8794L34.1402 66.8575L12.0588 74.8314" stroke="#A0A09C" stroke-linecap="round" stroke-linejoin="round"/>
<path d="M41.7828 81.4311L34.1401 66.8574" stroke="#A0A09C" stroke-linecap="round" stroke-linejoin="round"/>
<path d="M102.335 46.6284C102.335 46.6284 129.421 55.4364 137.8 58.3684C146.179 61.3003 163.451 70.7707 163.451 70.7707C163.451 70.7707 184.465 84.3876 194.439 85.1973C204.412 86.0192 220.753 85.185 230.395 87.6876C240.025 90.2024 257.935 96.1275 257.935 96.1275L299.681 108.174L361.19 125.839C361.19 125.839 421.019 135.445 427.312 135.028C433.593 134.611 440.303 132.132 448.265 132.525C456.226 132.93 483.08 134.88 489.974 137.677C496.868 140.474 521.17 153.036 527.868 153.453C534.566 153.87 565.026 148.841 565.026 148.841C565.026 148.841 579.821 146.743 585.267 148.841C590.714 150.938 627.504 153.478 627.504 153.478" stroke="#A0A09C" stroke-linecap="round" stroke-linejoin="round"/>
<path d="M70.3291 74.3283C70.3291 74.3283 82.204 71.4823 88.3254 69.3723C94.4469 67.2623 94.8272 67.4095 102.335 66.8452C109.843 66.2931 116.651 65.14 124.76 53.9644" stroke="#A0A09C" stroke-linecap="round" stroke-linejoin="round"/>
<path d="M90.6442 53.2651L85.5654 70.2678" stroke="#A0A09C" stroke-linecap="round" stroke-linejoin="round"/>
<path d="M104.396 47.3032L92.9626 67.9248" stroke="#A0A09C" stroke-linecap="round" stroke-linejoin="round"/>
<path d="M108.542 48.6526L99.6238 67.0538" stroke="#A0A09C" stroke-linecap="round" stroke-linejoin="round"/>
<path d="M116.148 51.1428L107.978 66.1582" stroke="#A0A09C" stroke-linecap="round" stroke-linejoin="round"/>
<path d="M127.998 62.3552L107.303 103.881" stroke="#A0A09C" stroke-linecap="round" stroke-linejoin="round"/>
<path d="M145.173 61.4597L120.785 115.007" stroke="#A0A09C" stroke-linecap="round" stroke-linejoin="round"/>
<path d="M120.785 76.8433L135.31 83.1119" stroke="#A0A09C" stroke-linecap="round" stroke-linejoin="round"/>
<path d="M113.977 109.364L127.998 79.9836" stroke="#A0A09C" stroke-linecap="round" stroke-linejoin="round"/>
<path d="M114.431 89.5891L129.004 96.9496" stroke="#A0A09C" stroke-linecap="round" stroke-linejoin="round"/>
<path d="M152.092 64.8088L125.839 119.215" stroke="#A0A09C" stroke-linecap="round" stroke-linejoin="round"/>
<path d="M118.822 80.7566L113.253 78.7815L99.6238 97.5875" stroke="#A0A09C" stroke-linecap="round" stroke-linejoin="round"/>
<path d="M130.194 29.9814L132.807 56.6631C132.807 56.6631 151.319 40.372 179.706 37.8571C208.093 35.3423 221.697 38.1638 235.559 34.41" stroke="#A0A09C" stroke-linecap="round" stroke-linejoin="round"/>
<path d="M132.255 51.1428L146.301 43.3162" stroke="#A0A09C" stroke-linecap="round" stroke-linejoin="round"/>
<path d="M172.235 53.2652L161.059 47.3032" stroke="#A0A09C" stroke-linecap="round" stroke-linejoin="round"/>
<path d="M164.776 40.5437L156.999 54.6513" stroke="#A0A09C" stroke-linecap="round" stroke-linejoin="round"/>
<path d="M124.76 68.8571L121.656 67.9248L100.802 85.9089" stroke="#A0A09C" stroke-linecap="round" stroke-linejoin="round"/>
<path d="M104.077 74.8313L79.8977 81.7869" stroke="#A0A09C" stroke-linecap="round" stroke-linejoin="round"/>
<path d="M211.687 5.52026L142.425 133.114" stroke="#A0A09C" stroke-linecap="round" stroke-linejoin="round"/>
<path d="M237.375 5.52026L158.593 146.841L107.34 202.388" stroke="#A0A09C" stroke-linecap="round" stroke-linejoin="round"/>
<path d="M221.832 33.4041L206.093 36.6549L150.975 140.364" stroke="#A0A09C" stroke-linecap="round" stroke-linejoin="round"/>
<path d="M179.497 64.8088L188.734 69.3233" stroke="#A0A09C" stroke-linecap="round" stroke-linejoin="round"/>
<path d="M200.364 15.1257L221.832 27.3932" stroke="#A0A09C" stroke-linecap="round" stroke-linejoin="round"/>
<path d="M219.992 5.52026L230.824 17.2725" stroke="#A0A09C" stroke-linecap="round" stroke-linejoin="round"/>
<path d="M238.81 9.81372L253.728 21.2592" stroke="#A0A09C" stroke-linecap="round" stroke-linejoin="round"/>
<path d="M259.861 6.95557L228.677 87.295" stroke="#A0A09C" stroke-linecap="round" stroke-linejoin="round"/>
<path d="M266.608 14.1074L260.855 25.5652" stroke="#A0A09C" stroke-linecap="round" stroke-linejoin="round"/>
<path d="M271.417 30.8033L257.003 23.6392" stroke="#A0A09C" stroke-linecap="round" stroke-linejoin="round"/>
<path d="M215.22 85.9088L214.68 76.8432L217.134 70.2678" stroke="#A0A09C" stroke-linecap="round" stroke-linejoin="round"/>
<path d="M245.177 44.7761L266.608 54.6514L297.277 71.1511" stroke="#A0A09C" stroke-linecap="round" stroke-linejoin="round"/>
<path d="M232.161 78.3152L259.555 88.2273" stroke="#A0A09C" stroke-linecap="round" stroke-linejoin="round"/>
<path d="M264.204 53.9766L244.735 83.2712" stroke="#A0A09C" stroke-linecap="round" stroke-linejoin="round"/>
<path d="M242.319 52.1487L259.236 61.4597" stroke="#A0A09C" stroke-linecap="round" stroke-linejoin="round"/>
<path d="M262.327 74.8313L254.476 74.1443" stroke="#A0A09C" stroke-linecap="round" stroke-linejoin="round"/>
<path d="M290.935 38.7896L279.845 61.7665" stroke="#A0A09C" stroke-linecap="round" stroke-linejoin="round"/>
<path d="M288.898 6.95557L360.479 127.79L442.536 61.3371" stroke="#A0A09C" stroke-linecap="round" stroke-linejoin="round"/>
<path d="M321.039 75.7882L304.637 71.1511" stroke="#A0A09C" stroke-linecap="round" stroke-linejoin="round"/>
<path d="M332.828 71.8872L386.633 85.1974L397.06 85.9089L499.726 108.174L564.646 127.79L627.48 146.191" stroke="#A0A09C" stroke-linecap="round" stroke-linejoin="round"/>
<path d="M356.553 63.9133L352.848 76.8432" stroke="#A0A09C" stroke-linecap="round" stroke-linejoin="round"/>
<path d="M369.213 59.5828L363.104 79.3701" stroke="#A0A09C" stroke-linecap="round" stroke-linejoin="round"/>
<path d="M380.72 83.7375L401.44 94.9745L432.832 103.255L453.282 106.322L494.562 122.466L524.409 188.367L537.105 224.703L528.592 294.59" stroke="#A0A09C" stroke-linecap="round" stroke-linejoin="round"/>
<path d="M435.899 87.295L416.909 82.5721L406.874 62.7724L414.529 41.7583" stroke="#A0A09C" stroke-linecap="round" stroke-linejoin="round"/>
<path d="M464.531 5.52026L440.61 66.2441L426.293 135.04L474.75 165.61" stroke="#A0A09C" stroke-linecap="round" stroke-linejoin="round"/>
<path d="M404.666 5.52026L442.536 61.3371L458.913 79.3703L487.017 105.414" stroke="#A0A09C" stroke-linecap="round" stroke-linejoin="round"/>
<path d="M527.598 5.52026L517.686 37.8572L426.294 135.04L381.873 154.214L307.434 139.309L250.562 131.838" stroke="#A0A09C" stroke-linecap="round" stroke-linejoin="round"/>
<path d="M251.715 126.232L239.877 117.694L219.759 108.309L224.457 96.741" stroke="#A0A09C" stroke-linecap="round" stroke-linejoin="round"/>
<path d="M287.929 104.788L274.938 138.732" stroke="#A0A09C" stroke-linecap="round" stroke-linejoin="round"/>
<path d="M296.394 107.229L279.845 146.191" stroke="#A0A09C" stroke-linecap="round" stroke-linejoin="round"/>
<path d="M250.292 133.114L282.826 158.667L341.525 120.196L344.053 100.053" stroke="#A0A09C" stroke-linecap="round" stroke-linejoin="round"/>
<path d="M319.211 186.551L335.416 155.821L339.747 145.786L341.525 120.196" stroke="#A0A09C" stroke-linecap="round" stroke-linejoin="round"/>
<path d="M341.526 176.933L335.417 155.821" stroke="#A0A09C" stroke-linecap="round" stroke-linejoin="round"/>
<path d="M334.901 191.372L323.443 178.528" stroke="#A0A09C" stroke-linecap="round" stroke-linejoin="round"/>
<path d="M306.71 79.9836L321.039 84.6821L315.445 103.881L342.887 109.364" stroke="#A0A09C" stroke-linecap="round" stroke-linejoin="round"/>
<path d="M319.211 113.793L321.039 104.997" stroke="#A0A09C" stroke-linecap="round" stroke-linejoin="round"/>
<path d="M316.733 83.2712L309.765 107.23L320.131 109.033" stroke="#A0A09C" stroke-linecap="round" stroke-linejoin="round"/>
<path d="M396.643 98.5073L383.1 129.274" stroke="#A0A09C" stroke-linecap="round" stroke-linejoin="round"/>
<path d="M385.872 107.229L376.819 128.305" stroke="#A0A09C" stroke-linecap="round" stroke-linejoin="round"/>
<path d="M393.711 130.869L381.873 154.214L433.151 165.61L484.036 182.331L477.424 197.677L478.295 206.657L466.457 221.341L467.782 240.847L462.961 243.913L450.522 240.847" stroke="#A0A09C" stroke-linecap="round" stroke-linejoin="round"/>
<path d="M460.323 195.702L484.036 182.331L494.071 211.92L492.979 224.703L484.036 244.784L466.285 246.539L463.39 251.36L450.522 246.097V232.075L448.24 224.703L427.68 220.225L428.551 190.219L433.151 165.61" stroke="#A0A09C" stroke-linecap="round" stroke-linejoin="round"/>
<path d="M411.671 167.34L406.874 182.331L428.551 190.219L449.589 191.372L462.299 196.794L477.424 197.677" stroke="#A0A09C" stroke-linecap="round" stroke-linejoin="round"/>
<path d="M466.285 176.504L460.323 188.256L430.207 181.399" stroke="#A0A09C" stroke-linecap="round" stroke-linejoin="round"/>
<path d="M440.941 168.174L442.143 184.11" stroke="#A0A09C" stroke-linecap="round" stroke-linejoin="round"/>
<path d="M456.312 173.229L452.853 186.551" stroke="#A0A09C" stroke-linecap="round" stroke-linejoin="round"/>
<path d="M430.857 177.915L410.91 169.732" stroke="#A0A09C" stroke-linecap="round" stroke-linejoin="round"/>
<path d="M419.571 186.551L421.387 174.026" stroke="#A0A09C" stroke-linecap="round" stroke-linejoin="round"/>
<path d="M452.853 208.485L428.183 202.928L405.537 191.372L394.803 215.637L408.825 225.942" stroke="#A0A09C" stroke-linecap="round" stroke-linejoin="round"/>
<path d="M406.874 218.925L423.828 221.341L417.375 230.014L423.828 238.651" stroke="#A0A09C" stroke-linecap="round" stroke-linejoin="round"/>
<path d="M430.207 237.117L437.751 239.963L444.106 231.855L427.68 220.225L423.828 221.341" stroke="#A0A09C" stroke-linecap="round" stroke-linejoin="round"/>
<path d="M403.574 184.11L399.845 168.174L391.331 169.07L389.074 173.817L370.477 182.38L368.943 193.948L376.181 200.744L392.62 205.173" stroke="#A0A09C" stroke-linecap="round" stroke-linejoin="round"/>
<path d="M400.728 189.789L390.644 187.385L381.873 188.587L369.814 187.385" stroke="#A0A09C" stroke-linecap="round" stroke-linejoin="round"/>
<path d="M369.287 191.372L357.988 195.702L353.83 208.657L345.5 222.433L346.592 234.05L360.184 247.422" stroke="#A0A09C" stroke-linecap="round" stroke-linejoin="round"/>
<path d="M338.483 211.368L346.837 220.225L368.943 228.788L380.72 239.963L438.635 265.823L444.106 268.24L456.312 299.35L457.22 320.487L472.554 365.373" stroke="#A0A09C" stroke-linecap="round" stroke-linejoin="round"/>
<path d="M329.172 231.29L377.935 256.843L400.728 270.423L427.68 292.775V329.013L437.445 355.658" stroke="#A0A09C" stroke-linecap="round" stroke-linejoin="round"/>
<path d="M329.172 248.955L364.907 270.865" stroke="#A0A09C" stroke-linecap="round" stroke-linejoin="round"/>
<path d="M345.721 239.963L333.012 261.664L344.053 269.332" stroke="#A0A09C" stroke-linecap="round" stroke-linejoin="round"/>
<path d="M360.184 247.422L329.172 292.407L345.917 282.642" stroke="#A0A09C" stroke-linecap="round" stroke-linejoin="round"/>
<path d="M353.609 303.079L342.384 273.245" stroke="#A0A09C" stroke-linecap="round" stroke-linejoin="round"/>
<path d="M353.609 256.954L396.557 283.132L394.803 289.058L414.308 296.872" stroke="#A0A09C" stroke-linecap="round" stroke-linejoin="round"/>
<path d="M419.571 286.052L401.501 322.216" stroke="#A0A09C" stroke-linecap="round" stroke-linejoin="round"/>
<path d="M393.171 265.921L378.426 313.445" stroke="#A0A09C" stroke-linecap="round" stroke-linejoin="round"/>
<path d="M373.764 292.407L366.796 308.673" stroke="#A0A09C" stroke-linecap="round" stroke-linejoin="round"/>
<path d="M387.21 285.132L374.648 280.151" stroke="#A0A09C" stroke-linecap="round" stroke-linejoin="round"/>
<path d="M394.803 296.872L387.209 317.653" stroke="#A0A09C" stroke-linecap="round" stroke-linejoin="round"/>
<path d="M403.182 292.407L393.171 318.635" stroke="#A0A09C" stroke-linecap="round" stroke-linejoin="round"/>
<path d="M364.907 289.683L359.338 305.521" stroke="#A0A09C" stroke-linecap="round" stroke-linejoin="round"/>
<path d="M368.943 228.788L362.871 248.955" stroke="#A0A09C" stroke-linecap="round" stroke-linejoin="round"/>
<path d="M380.72 239.963L372.979 254.243" stroke="#A0A09C" stroke-linecap="round" stroke-linejoin="round"/>
<path d="M386.265 242.441L394.803 256.954" stroke="#A0A09C" stroke-linecap="round" stroke-linejoin="round"/>
<path d="M402.507 249.691L396.165 267.712" stroke="#A0A09C" stroke-linecap="round" stroke-linejoin="round"/>
<path d="M402.507 271.908L406.874 261.665L415.351 264.952" stroke="#A0A09C" stroke-linecap="round" stroke-linejoin="round"/>
<path d="M414.308 281.697L415.351 271.908H437.322L438.635 265.823" stroke="#A0A09C" stroke-linecap="round" stroke-linejoin="round"/>
<path d="M427.68 292.775V271.908" stroke="#A0A09C" stroke-linecap="round" stroke-linejoin="round"/>
<path d="M415.351 280.151L451.92 288.162" stroke="#A0A09C" stroke-linecap="round" stroke-linejoin="round"/>
<path d="M427.68 295.841L456.312 299.35L513.135 282.642L533.818 298.638" stroke="#A0A09C" stroke-linecap="round" stroke-linejoin="round"/>
<path d="M507.467 305.165L488.6 276.79V262.756L501.309 247.103L503.529 208.657" stroke="#A0A09C" stroke-linecap="round" stroke-linejoin="round"/>
<path d="M487.017 290.321L494.071 308.906L526.298 329.7L572.104 350.199L628.375 368.833" stroke="#A0A09C" stroke-linecap="round" stroke-linejoin="round"/>
<path d="M486.073 311.274L477.424 277.906" stroke="#A0A09C" stroke-linecap="round" stroke-linejoin="round"/>
<path d="M371.593 231.29L378.426 214.104" stroke="#A0A09C" stroke-linecap="round" stroke-linejoin="round"/>
<path d="M350.53 214.104L374.648 223.611L383.959 220.225L393.171 224.703L403.574 238.871" stroke="#A0A09C" stroke-linecap="round" stroke-linejoin="round"/>
<path d="M439.947 249.691L438.635 256.954" stroke="#A0A09C" stroke-linecap="round" stroke-linejoin="round"/>
<path d="M466.285 261.664L415.351 237.78L406.874 236.455L401.501 240.847L463.832 267.712" stroke="#A0A09C" stroke-linecap="round" stroke-linejoin="round"/>
<path d="M467.782 240.847L479.301 239.963V220.225L503.529 208.657L508.534 214.103L538.553 213.233" stroke="#A0A09C" stroke-linecap="round" stroke-linejoin="round"/>
<path d="M501.971 235.584L537.105 224.703L545.582 172.038L554.218 102.85L564.634 44.5061" stroke="#A0A09C" stroke-linecap="round" stroke-linejoin="round"/>
<path d="M534.063 249.691L501.309 247.103L498.451 275.784" stroke="#A0A09C" stroke-linecap="round" stroke-linejoin="round"/>
<path d="M530.935 275.379L499.285 269.332" stroke="#A0A09C" stroke-linecap="round" stroke-linejoin="round"/>
<path d="M501.971 233.167L519.538 222.703L524.31 233.167L521.464 248.955" stroke="#A0A09C" stroke-linecap="round" stroke-linejoin="round"/>
<path d="M457.22 264.866L450.743 285.132L469.095 278.753L498.451 275.784L513.135 282.642" stroke="#A0A09C" stroke-linecap="round" stroke-linejoin="round"/>
<path d="M307.287 254.647L301.129 280.151" stroke="#A0A09C" stroke-linecap="round" stroke-linejoin="round"/>
<path d="M532.211 264.866L563.628 276.913" stroke="#A0A09C" stroke-linecap="round" stroke-linejoin="round"/>
<path d="M545.582 296.111L554.059 273.245" stroke="#A0A09C" stroke-linecap="round" stroke-linejoin="round"/>
<path d="M563.689 281.697L552.317 277.906" stroke="#A0A09C" stroke-linecap="round" stroke-linejoin="round"/>
<path d="M563.628 285.132L549.814 286.052" stroke="#A0A09C" stroke-linecap="round" stroke-linejoin="round"/>
<path d="M563.689 254.648L535.67 236.455L564.18 215.858L591.806 194.255L590.273 149.933" stroke="#A0A09C" stroke-linecap="round" stroke-linejoin="round"/>
<path d="M563.628 231.29L535.67 236.455" stroke="#A0A09C" stroke-linecap="round" stroke-linejoin="round"/>
<path d="M521.698 182.38L544.245 180.295L564.854 169.732L590.273 149.933L592.898 129.274L606.711 91.834L610.428 55.4733L607.14 6.95557" stroke="#A0A09C" stroke-linecap="round" stroke-linejoin="round"/>
<path d="M517.686 37.8572L610.428 52.8235L590.923 75.8372L583.918 83.7374L564.302 124.514" stroke="#A0A09C" stroke-linecap="round" stroke-linejoin="round"/>
<path d="M564.634 167.34L517.686 113.596L504.499 144.4" stroke="#A0A09C" stroke-linecap="round" stroke-linejoin="round"/>
<path d="M542.491 81.1858L531.327 109.033" stroke="#A0A09C" stroke-linecap="round" stroke-linejoin="round"/>
<path d="M521.01 43.0708L542.086 52.0383L562.278 57.6936L598.099 67.3726L608.907 70.3781L627.48 73.2119" stroke="#A0A09C" stroke-linecap="round" stroke-linejoin="round"/>
<path d="M628.179 95.1095L606.711 91.8341L559.236 74.7578L537.105 65.9375" stroke="#A0A09C" stroke-linecap="round" stroke-linejoin="round"/>
<path d="M579.207 62.2695L577.784 69.4828L607.803 81.1859" stroke="#A0A09C" stroke-linecap="round" stroke-linejoin="round"/>
<path d="M615.273 142.609L622.131 192.059" stroke="#A0A09C" stroke-linecap="round" stroke-linejoin="round"/>
<path d="M590.812 165.61L618.696 164.654" stroke="#A0A09C" stroke-linecap="round" stroke-linejoin="round"/>
<path d="M591.033 180.294L620.806 182.515" stroke="#A0A09C" stroke-linecap="round" stroke-linejoin="round"/>
<path d="M533.302 153.245L534.566 162.605H525.586" stroke="#A0A09C" stroke-linecap="round" stroke-linejoin="round"/>
<path d="M485.901 154.95L510.62 157.919" stroke="#A0A09C" stroke-linecap="round" stroke-linejoin="round"/>
<path d="M513.172 163.562L504.499 162.605" stroke="#A0A09C" stroke-linecap="round" stroke-linejoin="round"/>
<path d="M496.022 175.4L513.172 171.241" stroke="#A0A09C" stroke-linecap="round" stroke-linejoin="round"/>
<path d="M487.618 146.866L496.022 147.994" stroke="#A0A09C" stroke-linecap="round" stroke-linejoin="round"/>
<path d="M487.017 119.509L481.742 135.776L480.16 146.866L472.48 164.175" stroke="#A0A09C" stroke-linecap="round" stroke-linejoin="round"/>
<path d="M440.941 132.881L438.414 142.682L435.899 158.667L394.803 148.632L400.728 131.899" stroke="#A0A09C" stroke-linecap="round" stroke-linejoin="round"/>
<path d="M452.853 132.881L451.43 145.48" stroke="#A0A09C" stroke-linecap="round" stroke-linejoin="round"/>
<path d="M445.848 146.866L460.066 147.994V155.821" stroke="#A0A09C" stroke-linecap="round" stroke-linejoin="round"/>
<path d="M461.98 133.506L460.875 141.848" stroke="#A0A09C" stroke-linecap="round" stroke-linejoin="round"/>
<path d="M466.285 100.924L458.017 132.881" stroke="#A0A09C" stroke-linecap="round" stroke-linejoin="round"/>
<path d="M478.062 103.476L469.193 134.181" stroke="#A0A09C" stroke-linecap="round" stroke-linejoin="round"/>
<path d="M426.293 135.04L419.056 151.343" stroke="#A0A09C" stroke-linecap="round" stroke-linejoin="round"/>
<path d="M602.074 104.384L564.057 93.3184" stroke="#A0A09C" stroke-linecap="round" stroke-linejoin="round"/>
<path d="M603.349 100.924L569.258 89.6995" stroke="#A0A09C" stroke-linecap="round" stroke-linejoin="round"/>
<path d="M511.516 83.7374L519.612 93.3183L514.901 106.359L521.698 109.033L547.754 36.1765L524.09 28.9387" stroke="#A0A09C" stroke-linecap="round" stroke-linejoin="round"/>
<path d="M512.644 81.1858L528.935 88.7793" stroke="#A0A09C" stroke-linecap="round" stroke-linejoin="round"/>
<path d="M451.785 37.8572L458.913 51.5231L532.309 79.3702" stroke="#A0A09C" stroke-linecap="round" stroke-linejoin="round"/>
<path d="M450.743 70.3783L458.913 51.5232" stroke="#A0A09C" stroke-linecap="round" stroke-linejoin="round"/>
<path d="M472.48 91.9444L474.75 57.5342L478.062 37.8572L479.547 28.9388L488.98 5.52026" stroke="#A0A09C" stroke-linecap="round" stroke-linejoin="round"/>
<path d="M455.601 28.1782L474.75 37.8572" stroke="#A0A09C" stroke-linecap="round" stroke-linejoin="round"/>
<path d="M460.385 16.0457L480.724 25.283" stroke="#A0A09C" stroke-linecap="round" stroke-linejoin="round"/>
<path d="M477.179 43.0708L489.606 48.7261" stroke="#A0A09C" stroke-linecap="round" stroke-linejoin="round"/>
<path d="M490.783 106.236L504.94 68.9919L515.343 40.3474" stroke="#A0A09C" stroke-linecap="round" stroke-linejoin="round"/>
<path d="M520.336 58.1352L509.847 55.4731" stroke="#A0A09C" stroke-linecap="round" stroke-linejoin="round"/>
<path d="M492.599 64.5266L484.036 102.654" stroke="#A0A09C" stroke-linecap="round" stroke-linejoin="round"/>
<path d="M474.75 16.9534L494.636 25.283" stroke="#A0A09C" stroke-linecap="round" stroke-linejoin="round"/>
<path d="M431.115 44.5061L424.085 62.9931" stroke="#A0A09C" stroke-linecap="round" stroke-linejoin="round"/>
<path d="M411.303 43.0708L416.958 23.6392L457.085 24.412" stroke="#A0A09C" stroke-linecap="round" stroke-linejoin="round"/>
<path d="M414.406 77.6527L398.005 75.7881L394.803 85.5652" stroke="#A0A09C" stroke-linecap="round" stroke-linejoin="round"/>
<path d="M389.872 88.6936L384.965 100.053L388.89 104.788" stroke="#A0A09C" stroke-linecap="round" stroke-linejoin="round"/>
<path d="M401.489 76.1808L403.194 68.624" stroke="#A0A09C" stroke-linecap="round" stroke-linejoin="round"/>
<path d="M410.027 68.9919L417.878 70.3046" stroke="#A0A09C" stroke-linecap="round" stroke-linejoin="round"/>
<path d="M411.303 53.7437L419.841 55.4734" stroke="#A0A09C" stroke-linecap="round" stroke-linejoin="round"/>
<path d="M345.218 6.95557L333.981 30.8035L328.559 64.8088L325.431 68.624" stroke="#A0A09C" stroke-linecap="round" stroke-linejoin="round"/>
<path d="M383.1 5.52026L378.806 21.2594L403.979 32.1038" stroke="#A0A09C" stroke-linecap="round" stroke-linejoin="round"/>
<path d="M343.317 10.967L370.698 22.94L373.495 5.52026" stroke="#A0A09C" stroke-linecap="round" stroke-linejoin="round"/>
<path d="M295.927 18.8059L305.312 12.5618" stroke="#A0A09C" stroke-linecap="round" stroke-linejoin="round"/>
<path d="M313.482 15.1257L308.293 27.3932" stroke="#A0A09C" stroke-linecap="round" stroke-linejoin="round"/>
<path d="M320.131 10.967L309.765 35.1952L291.29 67.9248L285.157 87.4791L290.935 96.9495L290.125 105.414" stroke="#A0A09C" stroke-linecap="round" stroke-linejoin="round"/>
<path d="M325.431 16.6467L319.211 27.393" stroke="#A0A09C" stroke-linecap="round" stroke-linejoin="round"/>
<path d="M331.699 17.2725L324.805 32.1038" stroke="#A0A09C" stroke-linecap="round" stroke-linejoin="round"/>
<path d="M273.674 19.8364L285.157 27.2214" stroke="#A0A09C" stroke-linecap="round" stroke-linejoin="round"/>
<path d="M293.817 29.0615L303.717 36.3606" stroke="#A0A09C" stroke-linecap="round" stroke-linejoin="round"/>
<path d="M591.806 194.255L574.116 240.847L563.382 257.825" stroke="#A0A09C" stroke-linecap="round" stroke-linejoin="round"/>
<path d="M627.48 208.657L611.74 209.773L588.751 202.29" stroke="#A0A09C" stroke-linecap="round" stroke-linejoin="round"/>
<path d="M582.434 218.925L611.741 209.773" stroke="#A0A09C" stroke-linecap="round" stroke-linejoin="round"/>
<path d="M618.696 192.059L617.052 236.455L611.74 251.36L604.76 264.866" stroke="#A0A09C" stroke-linecap="round" stroke-linejoin="round"/>
<path d="M563.628 260.573L580.459 261.444L609.483 265.823L627.48 264.866" stroke="#A0A09C" stroke-linecap="round" stroke-linejoin="round"/>
<path d="M571.111 245.594H598.651L627.48 256.905" stroke="#A0A09C" stroke-linecap="round" stroke-linejoin="round"/>
<path d="M574.95 238.651L585.562 238.871L627.48 226.494" stroke="#A0A09C" stroke-linecap="round" stroke-linejoin="round"/>
<path d="M598.651 245.594L596.688 235.584" stroke="#A0A09C" stroke-linecap="round" stroke-linejoin="round"/>
<path d="M627.48 251.36L613.249 247.103L608.122 232.21L605.926 222.703L627.48 220.225" stroke="#A0A09C" stroke-linecap="round" stroke-linejoin="round"/>
<path d="M577.748 231.29L605.926 222.703" stroke="#A0A09C" stroke-linecap="round" stroke-linejoin="round"/>
<path d="M590.812 245.594L588.751 261.664" stroke="#A0A09C" stroke-linecap="round" stroke-linejoin="round"/>
<path d="M544.061 195.052L564.18 215.858" stroke="#A0A09C" stroke-linecap="round" stroke-linejoin="round"/>
<path d="M494.071 173.817L505.419 201.186L527.598 195.874" stroke="#A0A09C" stroke-linecap="round" stroke-linejoin="round"/>
<path d="M516.263 184.797L500.193 188.587" stroke="#A0A09C" stroke-linecap="round" stroke-linejoin="round"/>
<path d="M515.11 198.867L510.62 186.134L504.597 179.436" stroke="#A0A09C" stroke-linecap="round" stroke-linejoin="round"/>
<path d="M580.458 261.444V289.683" stroke="#A0A09C" stroke-linecap="round" stroke-linejoin="round"/>
<path d="M601.215 264.572L603.386 287.696" stroke="#A0A09C" stroke-linecap="round" stroke-linejoin="round"/>
<path d="M627.48 272.362L602.883 282.347" stroke="#A0A09C" stroke-linecap="round" stroke-linejoin="round"/>
<path d="M319.714 188.587L282.826 158.667L273.012 166.383L258.254 195.899L273.687 217.453L211.527 278.017L143.664 300.969L111.106 314.316L93.3306 326.571L105.623 343.304" stroke="#A0A09C" stroke-linecap="round" stroke-linejoin="round"/>
<path d="M8.75879 360.982L32.2264 332.3L39.0103 322.094L52.7253 302.073L108.972 250.979L193.175 177.044L257.935 96.1274" stroke="#A0A09C" stroke-linecap="round" stroke-linejoin="round"/>
<path d="M186.404 119.215L247.459 146.841L273.012 166.383" stroke="#A0A09C" stroke-linecap="round" stroke-linejoin="round"/>
<path d="M168.53 326.179L157.539 292.407L123.963 239.963L112.775 230.615L132.795 207.467L165.12 152.447L184.122 120.196L200.965 85.5652" stroke="#A0A09C" stroke-linecap="round" stroke-linejoin="round"/>
<path d="M196.181 123.631L172.345 158.667" stroke="#A0A09C" stroke-linecap="round" stroke-linejoin="round"/>
<path d="M206.522 128.317L179.215 164.654L151.012 196.892" stroke="#A0A09C" stroke-linecap="round" stroke-linejoin="round"/>
<path d="M219.759 134.304L188.158 172.541" stroke="#A0A09C" stroke-linecap="round" stroke-linejoin="round"/>
<path d="M200.965 184.232L226.273 157.354L243.791 164.654" stroke="#A0A09C" stroke-linecap="round" stroke-linejoin="round"/>
<path d="M212.803 196.892L218.336 187.385L205.59 179.301" stroke="#A0A09C" stroke-linecap="round" stroke-linejoin="round"/>
<path d="M263.725 184.956L242.515 170.787" stroke="#A0A09C" stroke-linecap="round" stroke-linejoin="round"/>
<path d="M270.804 170.787L246.502 151.49" stroke="#A0A09C" stroke-linecap="round" stroke-linejoin="round"/>
<path d="M259.554 191.372L240.92 178.528" stroke="#A0A09C" stroke-linecap="round" stroke-linejoin="round"/>
<path d="M236.185 201.505L253.126 214.104V219.391L243.791 230.014L237.375 230.616" stroke="#A0A09C" stroke-linecap="round" stroke-linejoin="round"/>
<path d="M283.832 276.3L282.985 254.648L265.97 235.596L261.885 226.494L253.126 219.391" stroke="#A0A09C" stroke-linecap="round" stroke-linejoin="round"/>
<path d="M265.799 206.424L259.861 210.411L254.476 208.424L253.126 214.103" stroke="#A0A09C" stroke-linecap="round" stroke-linejoin="round"/>
<path d="M202.327 113.891L220.826 123.631" stroke="#A0A09C" stroke-linecap="round" stroke-linejoin="round"/>
<path d="M145.406 161.133L154.643 170.272" stroke="#A0A09C" stroke-linecap="round" stroke-linejoin="round"/>
<path d="M115.927 154.214L184.257 212.276L228.395 261.579L253.126 299.657" stroke="#A0A09C" stroke-linecap="round" stroke-linejoin="round"/>
<path d="M235.743 305.778L223.746 266.117" stroke="#A0A09C" stroke-linecap="round" stroke-linejoin="round"/>
<path d="M230.689 307.434L215.993 273.674" stroke="#A0A09C" stroke-linecap="round" stroke-linejoin="round"/>
<path d="M219.759 269.994L188.158 235.854L156.864 208.927L140.192 194.881L107.941 166.383" stroke="#A0A09C" stroke-linecap="round" stroke-linejoin="round"/>
<path d="M100.016 177.865L132.795 207.467L177.056 249.287L202.327 281.133" stroke="#A0A09C" stroke-linecap="round" stroke-linejoin="round"/>
<path d="M218.336 311.348L188.084 285.954L132.795 230.015L121.767 220.225" stroke="#A0A09C" stroke-linecap="round" stroke-linejoin="round"/>
<path d="M124.968 216.52L92.6069 188.097" stroke="#A0A09C" stroke-linecap="round" stroke-linejoin="round"/>
<path d="M164.653 237.571L139.689 264.547" stroke="#A0A09C" stroke-linecap="round" stroke-linejoin="round"/>
<path d="M137.138 226.248L160.311 242.257" stroke="#A0A09C" stroke-linecap="round" stroke-linejoin="round"/>
<path d="M218.336 202.032L195.518 224.862L188.158 235.854L177.056 249.287L165.978 263.578L141.395 281.133" stroke="#A0A09C" stroke-linecap="round" stroke-linejoin="round"/>
<path d="M175.952 273.674L165.905 283.451L170.051 292.051" stroke="#A0A09C" stroke-linecap="round" stroke-linejoin="round"/>
<path d="M174.468 290.554L184.257 321.615" stroke="#A0A09C" stroke-linecap="round" stroke-linejoin="round"/>
<path d="M192.231 289.426L200.487 316.806L220.593 354.541L230.689 383.762" stroke="#A0A09C" stroke-linecap="round" stroke-linejoin="round"/>
<path d="M192.231 268.399L207.479 256.733" stroke="#A0A09C" stroke-linecap="round" stroke-linejoin="round"/>
<path d="M223.341 219.391L203.186 233.425" stroke="#A0A09C" stroke-linecap="round" stroke-linejoin="round"/>
<path d="M213.257 233.425L234.247 219.391" stroke="#A0A09C" stroke-linecap="round" stroke-linejoin="round"/>
<path d="M211.687 242.92L236.786 226.935" stroke="#A0A09C" stroke-linecap="round" stroke-linejoin="round"/>
<path d="M221.832 254.243L240.135 237.571" stroke="#A0A09C" stroke-linecap="round" stroke-linejoin="round"/>
<path d="M184.257 212.276L205.59 188.808" stroke="#A0A09C" stroke-linecap="round" stroke-linejoin="round"/>
<path d="M200.965 296.762L223.341 290.554" stroke="#A0A09C" stroke-linecap="round" stroke-linejoin="round"/>
<path d="M209.761 304.159L207.479 294.946" stroke="#A0A09C" stroke-linecap="round" stroke-linejoin="round"/>
<path d="M262.756 241.583L245.962 256.733" stroke="#A0A09C" stroke-linecap="round" stroke-linejoin="round"/>
<path d="M259.555 253.286L247.986 263.468L262.756 261.664L276.631 247.851" stroke="#A0A09C" stroke-linecap="round" stroke-linejoin="round"/>
<path d="M251.716 276.3L262.756 265.786L270.804 273.674L278.078 265.786L283.562 269.332" stroke="#A0A09C" stroke-linecap="round" stroke-linejoin="round"/>
<path d="M133.347 305.202L102.335 257.003L68.4768 216.066L70.3292 239.963L82.1059 275.379" stroke="#A0A09C" stroke-linecap="round" stroke-linejoin="round"/>
<path d="M76.8433 280.151L94.9745 301.46L107.978 292.051" stroke="#A0A09C" stroke-linecap="round" stroke-linejoin="round"/>
<path d="M121.718 309.974L90.8895 267.406L74.6965 242.92L51.5356 224.347L25.0747 205.173" stroke="#A0A09C" stroke-linecap="round" stroke-linejoin="round"/>
<path d="M88.3255 306.085L81.5784 309.973" stroke="#A0A09C" stroke-linecap="round" stroke-linejoin="round"/>
<path d="M93.3306 326.571L65.6307 290.346L28.3254 263.468" stroke="#A0A09C" stroke-linecap="round" stroke-linejoin="round"/>
<path d="M8.75879 242.92L29.7852 269.331L44.5797 290.554L83.2835 336.802" stroke="#A0A09C" stroke-linecap="round" stroke-linejoin="round"/>
<path d="M11.335 307.434L52.7253 302.073" stroke="#A0A09C" stroke-linecap="round" stroke-linejoin="round"/>
<path d="M41.378 318.634L2.45337 289.426" stroke="#A0A09C" stroke-linecap="round" stroke-linejoin="round"/>
<path d="M2.45337 280.151L32.0302 259.91L73.2488 212.276" stroke="#A0A09C" stroke-linecap="round" stroke-linejoin="round"/>
<path d="M19.7505 256.733L46.0151 231.29" stroke="#A0A09C" stroke-linecap="round" stroke-linejoin="round"/>
<path d="M13.7273 249.152L30.1043 234.247" stroke="#A0A09C" stroke-linecap="round" stroke-linejoin="round"/>
<path d="M37.9676 205.872L2.45337 237.571" stroke="#A0A09C" stroke-linecap="round" stroke-linejoin="round"/>
<path d="M32.8889 205.283L25.0745 196.892L2.45337 188.808" stroke="#A0A09C" stroke-linecap="round" stroke-linejoin="round"/>
<path d="M2.45337 195.702L39.5624 148.976L62.3798 128.317" stroke="#A0A09C" stroke-linecap="round" stroke-linejoin="round"/>
<path d="M91.9812 91.4045L71.1633 116.737L88.3255 135.935L116.541 111.486" stroke="#A0A09C" stroke-linecap="round" stroke-linejoin="round"/>
<path d="M127.311 135.935L97.5505 109.033" stroke="#A0A09C" stroke-linecap="round" stroke-linejoin="round"/>
<path d="M80.4009 105.5L91.9813 120.196L116.541 121.754" stroke="#A0A09C" stroke-linecap="round" stroke-linejoin="round"/>
<path d="M74.4388 85.1973L64.3181 95.2934L74.4388 105.5L84.8293 94.6677L74.4388 85.1973Z" stroke="#A0A09C" stroke-linecap="round" stroke-linejoin="round"/>
<path d="M2.45337 59.4603L25.4794 44.7761" stroke="#A0A09C" stroke-linecap="round" stroke-linejoin="round"/>
<path d="M93.8459 186.416L62.3799 167.046L28.6199 205.173" stroke="#A0A09C" stroke-linecap="round" stroke-linejoin="round"/>
<path d="M18.3152 175.719L53.0443 208.093" stroke="#A0A09C" stroke-linecap="round" stroke-linejoin="round"/>
<path d="M73.2489 191.912L78.2908 181.816L62.38 167.046L21.9097 134.304" stroke="#A0A09C" stroke-linecap="round" stroke-linejoin="round"/>
<path d="M50.9343 264.547L57.4851 271.589L65.3731 264.547L58.1476 257.567" stroke="#A0A09C" stroke-linecap="round" stroke-linejoin="round"/>
<path d="M55.4734 262.56L61.2391 268.24" stroke="#A0A09C" stroke-linecap="round" stroke-linejoin="round"/>
<path d="M58.3562 270.816L72.5128 284.102" stroke="#A0A09C" stroke-linecap="round" stroke-linejoin="round"/>
<path d="M63.9868 265.786L75.6041 280.152" stroke="#A0A09C" stroke-linecap="round" stroke-linejoin="round"/>
<path d="M32.3247 272.975L57.4852 296.872" stroke="#A0A09C" stroke-linecap="round" stroke-linejoin="round"/>
<path d="M123.827 271.589L115.927 278.127" stroke="#A0A09C" stroke-linecap="round" stroke-linejoin="round"/>
<path d="M133.347 285.414L124.883 292.051" stroke="#A0A09C" stroke-linecap="round" stroke-linejoin="round"/>
<path d="M111.106 314.316L125.79 338.066" stroke="#A0A09C" stroke-linecap="round" stroke-linejoin="round"/>
<path d="M129.115 307.434L139.689 334.288" stroke="#A0A09C" stroke-linecap="round" stroke-linejoin="round"/>
<path d="M138.426 303.116L151.172 331.098" stroke="#A0A09C" stroke-linecap="round" stroke-linejoin="round"/>
<path d="M134.697 321.615H139.689L144.793 332.877" stroke="#A0A09C" stroke-linecap="round" stroke-linejoin="round"/>
<path d="M83.9584 314.316L44.0647 346.42" stroke="#A0A09C" stroke-linecap="round" stroke-linejoin="round"/>
<path d="M74.5981 313.041L79.272 318.095" stroke="#A0A09C" stroke-linecap="round" stroke-linejoin="round"/>
<path d="M2.45337 315.568L27.9819 327.246L32.2265 332.3L2.45337 357.167" stroke="#A0A09C" stroke-linecap="round" stroke-linejoin="round"/>
<path d="M5.96191 347.046L20.2044 323.688" stroke="#A0A09C" stroke-linecap="round" stroke-linejoin="round"/>
<path d="M5.96191 414.014H16.0826L20.2044 421.423L113.903 354.664" stroke="#A0A09C" stroke-linecap="round" stroke-linejoin="round"/>
<path d="M121.718 351.708L139.751 344.568" stroke="#A0A09C" stroke-linecap="round" stroke-linejoin="round"/>
<path d="M138.426 334.644L144.793 358.565L168.8 351.708" stroke="#A0A09C" stroke-linecap="round" stroke-linejoin="round"/>
<path d="M171.965 360.982L153.613 367.201" stroke="#A0A09C" stroke-linecap="round" stroke-linejoin="round"/>
<path d="M175.007 369.826L91.3188 389.552" stroke="#A0A09C" stroke-linecap="round" stroke-linejoin="round"/>
<path d="M105.046 360.982L134.697 427.189L138.426 440.364L177.314 435.838" stroke="#A0A09C" stroke-linecap="round" stroke-linejoin="round"/>
<path d="M184.257 396.606L151.172 407.389L144.792 439.616L150.092 475.106" stroke="#A0A09C" stroke-linecap="round" stroke-linejoin="round"/>
<path d="M95.1462 468.334L139.751 461.881L194.439 459.416L213.147 470.174L234.958 494.488L329.528 490.882L464.212 495.96H541.877L577.428 500.377L606.515 509.319L627.48 522.053" stroke="#A0A09C" stroke-linecap="round" stroke-linejoin="round"/>
<path d="M138.426 440.364L52.7254 442.818L20.2044 421.423L5.96191 432.121" stroke="#A0A09C" stroke-linecap="round" stroke-linejoin="round"/>
<path d="M5.96191 422.797L92.7541 418.958" stroke="#A0A09C" stroke-linecap="round" stroke-linejoin="round"/>
<path d="M62.429 391.331L83.2836 419.375L83.9583 432.121L93.6864 441.64" stroke="#A0A09C" stroke-linecap="round" stroke-linejoin="round"/>
<path d="M52.7253 420.884L54.2342 472.358" stroke="#A0A09C" stroke-linecap="round" stroke-linejoin="round"/>
<path d="M95.1462 471.499L52.7253 442.818L62.4289 433.777L60.8219 420.884" stroke="#A0A09C" stroke-linecap="round" stroke-linejoin="round"/>
<path d="M83.2836 425.815H61.4353" stroke="#A0A09C" stroke-linecap="round" stroke-linejoin="round"/>
<path d="M83.9583 432.121L62.429 433.777" stroke="#A0A09C" stroke-linecap="round" stroke-linejoin="round"/>
<path d="M34.447 430.796L25.0747 443.934L28.3256 447.762" stroke="#A0A09C" stroke-linecap="round" stroke-linejoin="round"/>
<path d="M52.7253 442.818L34.4469 446.191L2.45337 464.801" stroke="#A0A09C" stroke-linecap="round" stroke-linejoin="round"/>
<path d="M41.4393 473.069L41.3779 456.557" stroke="#A0A09C" stroke-linecap="round" stroke-linejoin="round"/>
<path d="M55.4364 360.012L41.3779 367.201" stroke="#A0A09C" stroke-linecap="round" stroke-linejoin="round"/>
<path d="M62.429 368.379L42.4331 378.917" stroke="#A0A09C" stroke-linecap="round" stroke-linejoin="round"/>
<path d="M68.9798 376.206L54.2344 386.559" stroke="#A0A09C" stroke-linecap="round" stroke-linejoin="round"/>
<path d="M48.4072 401.329V415.388" stroke="#A0A09C" stroke-linecap="round" stroke-linejoin="round"/>
<path d="M133.163 385.038L179.362 382.474" stroke="#A0A09C" stroke-linecap="round" stroke-linejoin="round"/>
<path d="M170.051 460.52V451.344L248.305 301.46" stroke="#A0A09C" stroke-linecap="round" stroke-linejoin="round"/>
<path d="M146.633 451.908L170.051 451.344" stroke="#A0A09C" stroke-linecap="round" stroke-linejoin="round"/>
<path d="M180.086 432.121L195.457 428.453" stroke="#A0A09C" stroke-linecap="round" stroke-linejoin="round"/>
<path d="M211.699 371.581L180.086 322.842L251.716 378.917L209.761 388.044" stroke="#A0A09C" stroke-linecap="round" stroke-linejoin="round"/>
<path d="M213.147 312.955L220.593 354.541" stroke="#A0A09C" stroke-linecap="round" stroke-linejoin="round"/>
<path d="M237.412 322.315L216.017 329.013" stroke="#A0A09C" stroke-linecap="round" stroke-linejoin="round"/>
<path d="M253.126 354.541L227.573 360.013" stroke="#A0A09C" stroke-linecap="round" stroke-linejoin="round"/>
<path d="M252.415 360.982L276.766 360.012" stroke="#A0A09C" stroke-linecap="round" stroke-linejoin="round"/>
<path d="M282.752 377.825L251.716 378.917" stroke="#A0A09C" stroke-linecap="round" stroke-linejoin="round"/>
<path d="M251.139 396.606L287.426 391.331" stroke="#A0A09C" stroke-linecap="round" stroke-linejoin="round"/>
<path d="M250.575 415.191L293.977 410.051" stroke="#A0A09C" stroke-linecap="round" stroke-linejoin="round"/>
<path d="M262.302 460.949L254.611 430.796L255.58 417.583" stroke="#A0A09C" stroke-linecap="round" stroke-linejoin="round"/>
<path d="M118.442 362.38L127.802 358.565" stroke="#A0A09C" stroke-linecap="round" stroke-linejoin="round"/>
<path d="M130.734 463.182L134.697 487.778" stroke="#A0A09C" stroke-linecap="round" stroke-linejoin="round"/>
<path d="M144.793 468.211L131.863 470.174" stroke="#A0A09C" stroke-linecap="round" stroke-linejoin="round"/>
<path d="M101.206 472.296L119.742 492.157L125.79 511.54L132.721 545.496L173.363 566.351L193.04 572.301" stroke="#A0A09C" stroke-linecap="round" stroke-linejoin="round"/>
<path d="M186.563 557.96H177.314L144.793 541.104H131.863" stroke="#A0A09C" stroke-linecap="round" stroke-linejoin="round"/>
<path d="M132.721 545.496L124.784 552.648L100.691 556.647L85.8107 564.498L64.1709 592.934" stroke="#A0A09C" stroke-linecap="round" stroke-linejoin="round"/>
<path d="M144.792 541.104L148.411 507.835L147.123 484.049" stroke="#A0A09C" stroke-linecap="round" stroke-linejoin="round"/>
<path d="M188.55 502.474L148.056 501.223" stroke="#A0A09C" stroke-linecap="round" stroke-linejoin="round"/>
<path d="M118.994 570.743L128.624 556.647" stroke="#A0A09C" stroke-linecap="round" stroke-linejoin="round"/>
<path d="M124.784 552.648L149.601 567.872" stroke="#A0A09C" stroke-linecap="round" stroke-linejoin="round"/>
<path d="M154.459 556.647L141.186 587.304" stroke="#A0A09C" stroke-linecap="round" stroke-linejoin="round"/>
<path d="M158.336 597.584L181.08 545.496" stroke="#A0A09C" stroke-linecap="round" stroke-linejoin="round"/>
<path d="M122.306 572.301L101.206 615.212" stroke="#A0A09C" stroke-linecap="round" stroke-linejoin="round"/>
<path d="M125.876 626.461C125.876 626.461 115.167 613.556 98.4216 616.034C81.6766 618.5 80.413 607.361 80.413 607.361L78.0454 599.51L2.44116 563.689" stroke="#A0A09C" stroke-linecap="round" stroke-linejoin="round"/>
<path d="M20.8545 595.081L29.7607 576.631L50.9466 533.916L2.45337 557.96" stroke="#A0A09C" stroke-linecap="round" stroke-linejoin="round"/>
<path d="M38.0903 516.778L18.0085 491.421L75.5428 479.89" stroke="#A0A09C" stroke-linecap="round" stroke-linejoin="round"/>
<path d="M56.7123 573.822L42.3103 551.335" stroke="#A0A09C" stroke-linecap="round" stroke-linejoin="round"/>
<path d="M206.854 471.119L209.184 492.869L191.016 567.872L180.086 606.453L169.708 631.16" stroke="#A0A09C" stroke-linecap="round" stroke-linejoin="round"/>
<path d="M234.308 628.939L225.954 592.493" stroke="#A0A09C" stroke-linecap="round" stroke-linejoin="round"/>
<path d="M213.147 628.939L228.493 603.558" stroke="#A0A09C" stroke-linecap="round" stroke-linejoin="round"/>
<path d="M266.535 587.304L249.949 616.243" stroke="#A0A09C" stroke-linecap="round" stroke-linejoin="round"/>
<path d="M270.35 516.778L242.908 519.489L235.731 589.917" stroke="#A0A09C" stroke-linecap="round" stroke-linejoin="round"/>
<path d="M244.735 587.549L260.082 517.784" stroke="#A0A09C" stroke-linecap="round" stroke-linejoin="round"/>
<path d="M265.099 582.225L269.528 516.116" stroke="#A0A09C" stroke-linecap="round" stroke-linejoin="round"/>
<path d="M292.603 534.615L268.363 531.941" stroke="#A0A09C" stroke-linecap="round" stroke-linejoin="round"/>
<path d="M283.586 604.895L300.098 581.035" stroke="#A0A09C" stroke-linecap="round" stroke-linejoin="round"/>
<path d="M330.362 600.54L313.041 631.16" stroke="#A0A09C" stroke-linecap="round" stroke-linejoin="round"/>
<path d="M337.171 610.71L324.302 631.16" stroke="#A0A09C" stroke-linecap="round" stroke-linejoin="round"/>
<path d="M209.184 526.764L234.958 537.522" stroke="#A0A09C" stroke-linecap="round" stroke-linejoin="round"/>
<path d="M490.366 495.96L493.544 454.435L542.834 459.416" stroke="#A0A09C" stroke-linecap="round" stroke-linejoin="round"/>
<path d="M509.111 448.461L505.762 495.96L497.396 542.957L475.167 539.767" stroke="#A0A09C" stroke-linecap="round" stroke-linejoin="round"/>
<path d="M627.48 485.226L583.893 468.628L542.834 459.415L523.685 442.916L518.913 456.999" stroke="#A0A09C" stroke-linecap="round" stroke-linejoin="round"/>
<path d="M606.515 509.32L617.187 481.313" stroke="#A0A09C" stroke-linecap="round" stroke-linejoin="round"/>
<path d="M510.632 560.033L516.41 533.634L541.669 530.8L570.645 536.664L627.48 550.698" stroke="#A0A09C" stroke-linecap="round" stroke-linejoin="round"/>
<path d="M627.48 560.033L608.232 558.168L541.117 539.767L494.93 529.463" stroke="#A0A09C" stroke-linecap="round" stroke-linejoin="round"/>
<path d="M504.241 543.901L505.922 531.916" stroke="#A0A09C" stroke-linecap="round" stroke-linejoin="round"/>
<path d="M439.837 511.601L472.75 515.343H526.102V495.715" stroke="#A0A09C" stroke-linecap="round" stroke-linejoin="round"/>
<path d="M564.302 292.627L565.259 308.673L568.117 359.522L564.351 369.397L561.272 385.185L558.23 422.515L554.93 431.115L542.834 459.416L541.877 495.96L541.117 539.767L539.743 568.424L538.761 614.66" stroke="#A0A09C" stroke-linecap="round" stroke-linejoin="round"/>
<path d="M575.576 511.405L541.669 508.363" stroke="#A0A09C" stroke-linecap="round" stroke-linejoin="round"/>
<path d="M627.48 533.634L597.388 521.096L587.292 540.773" stroke="#A0A09C" stroke-linecap="round" stroke-linejoin="round"/>
<path d="M526.102 532.542V515.343L541.522 517.122" stroke="#A0A09C" stroke-linecap="round" stroke-linejoin="round"/>
<path d="M472.75 515.343L499.113 495.715L497.015 515.343" stroke="#A0A09C" stroke-linecap="round" stroke-linejoin="round"/>
<path d="M529.475 440.732H550.82" stroke="#A0A09C" stroke-linecap="round" stroke-linejoin="round"/>
<path d="M549.888 442.916L585.341 453.22" stroke="#A0A09C" stroke-linecap="round" stroke-linejoin="round"/>
<path d="M586.678 445.247L602.712 448.461" stroke="#A0A09C" stroke-linecap="round" stroke-linejoin="round"/>
<path d="M600.246 433.85L597.768 446.854" stroke="#A0A09C" stroke-linecap="round" stroke-linejoin="round"/>
<path d="M627.48 426.428L590.996 419.534" stroke="#A0A09C" stroke-linecap="round" stroke-linejoin="round"/>
<path d="M626.474 439.174L578.95 429.851L531.241 417.117L502.229 405.856" stroke="#A0A09C" stroke-linecap="round" stroke-linejoin="round"/>
<path d="M628.375 331L581.182 325.897" stroke="#A0A09C" stroke-linecap="round" stroke-linejoin="round"/>
<path d="M601.325 360.16L607.091 328.706" stroke="#A0A09C" stroke-linecap="round" stroke-linejoin="round"/>
<path d="M588.862 339.17L577.392 400.581L591.708 415.253L575.576 511.405L563.063 575.38" stroke="#A0A09C" stroke-linecap="round" stroke-linejoin="round"/>
<path d="M565.823 318.634H524.396L520.593 352.296L514.325 376.242L504.437 396.582L495.69 426.428L492.133 442.916L481.951 458.912" stroke="#A0A09C" stroke-linecap="round" stroke-linejoin="round"/>
<path d="M454.276 469.659L466.028 442.916" stroke="#A0A09C" stroke-linecap="round" stroke-linejoin="round"/>
<path d="M424.674 442.916H492.133H523.685" stroke="#A0A09C" stroke-linecap="round" stroke-linejoin="round"/>
<path d="M495.69 426.428L511.282 431.372L515.834 442.916" stroke="#A0A09C" stroke-linecap="round" stroke-linejoin="round"/>
<path d="M533.609 439.174L526.102 425.104L550.82 384.192" stroke="#A0A09C" stroke-linecap="round" stroke-linejoin="round"/>
<path d="M511.282 431.372L526.102 425.104" stroke="#A0A09C" stroke-linecap="round" stroke-linejoin="round"/>
<path d="M526.102 415.13L532.358 391.969" stroke="#A0A09C" stroke-linecap="round" stroke-linejoin="round"/>
<path d="M513.981 400.066L435.568 371.875L415.927 433.85" stroke="#A0A09C" stroke-linecap="round" stroke-linejoin="round"/>
<path d="M456.619 435.838L418.283 426.428" stroke="#A0A09C" stroke-linecap="round" stroke-linejoin="round"/>
<path d="M466.028 428.771L421.509 416.222" stroke="#A0A09C" stroke-linecap="round" stroke-linejoin="round"/>
<path d="M468.886 405.856L428.428 394.398L389.258 383.247" stroke="#A0A09C" stroke-linecap="round" stroke-linejoin="round"/>
<path d="M461.44 432.157L464.948 419.534L492.133 339.072L498.033 337.281L509.111 374.599" stroke="#A0A09C" stroke-linecap="round" stroke-linejoin="round"/>
<path d="M556.721 381.677L514.325 376.242L482.92 366.355L435.568 361.889L378.426 344.875L342.9 322.842L271.368 288.162" stroke="#A0A09C" stroke-linecap="round" stroke-linejoin="round"/>
<path d="M262.756 312.954L284.494 305.778L290.861 297.608" stroke="#A0A09C" stroke-linecap="round" stroke-linejoin="round"/>
<path d="M306.244 282.347L294.455 299.35" stroke="#A0A09C" stroke-linecap="round" stroke-linejoin="round"/>
<path d="M268.485 330.62L278.213 322.842L298.798 301.46L327.111 291.499" stroke="#A0A09C" stroke-linecap="round" stroke-linejoin="round"/>
<path d="M284.494 305.778L290.861 310.366L317.616 324.277" stroke="#A0A09C" stroke-linecap="round" stroke-linejoin="round"/>
<path d="M276.802 323.958L315.322 337.281" stroke="#A0A09C" stroke-linecap="round" stroke-linejoin="round"/>
<path d="M281.072 372.893L313.261 366.747" stroke="#A0A09C" stroke-linecap="round" stroke-linejoin="round"/>
<path d="M273.748 350.37L304.208 340.323L364.22 361.889" stroke="#A0A09C" stroke-linecap="round" stroke-linejoin="round"/>
<path d="M332.202 376.206L339.366 347.917" stroke="#A0A09C" stroke-linecap="round" stroke-linejoin="round"/>
<path d="M332.202 350.383L335.784 341.648" stroke="#A0A09C" stroke-linecap="round" stroke-linejoin="round"/>
<path d="M318.99 416.222L329.172 400.127L373.764 349.438L398.213 321.051" stroke="#A0A09C" stroke-linecap="round" stroke-linejoin="round"/>
<path d="M351.156 435.85L355.4 396.606L366.797 365.974L371.507 352.014" stroke="#A0A09C" stroke-linecap="round" stroke-linejoin="round"/>
<path d="M353.609 411.033H347.99V417.584" stroke="#A0A09C" stroke-linecap="round" stroke-linejoin="round"/>
<path d="M398.213 410.051L391.307 438.217L392.853 493.261" stroke="#A0A09C" stroke-linecap="round" stroke-linejoin="round"/>
<path d="M327.676 483.742L297.167 482.822L324.302 469.659L427.336 475.106" stroke="#A0A09C" stroke-linecap="round" stroke-linejoin="round"/>
<path d="M396.373 417.584L371.507 406.727L368.489 437.898L365.19 471.818L367.152 524.74L358.602 558.585L360.025 582.225L344.997 628.939" stroke="#A0A09C" stroke-linecap="round" stroke-linejoin="round"/>
<path d="M355.572 626.081L359.792 618.831L367.312 620.941L364.257 628.939" stroke="#A0A09C" stroke-linecap="round" stroke-linejoin="round"/>
<path d="M374.832 554.488L375.997 588.506L362.859 619.69" stroke="#A0A09C" stroke-linecap="round" stroke-linejoin="round"/>
<path d="M370.685 617.359L375.997 604.895L374.979 590.935" stroke="#A0A09C" stroke-linecap="round" stroke-linejoin="round"/>
<path d="M352.431 605.852L347.377 579.465L375.605 576.84" stroke="#A0A09C" stroke-linecap="round" stroke-linejoin="round"/>
<path d="M349.904 592.493L338.189 604.699" stroke="#A0A09C" stroke-linecap="round" stroke-linejoin="round"/>
<path d="M384.682 614.108L405.77 617.359L424.981 624.351" stroke="#A0A09C" stroke-linecap="round" stroke-linejoin="round"/>
<path d="M449.246 609.729L444.916 624.351" stroke="#A0A09C" stroke-linecap="round" stroke-linejoin="round"/>
<path d="M454.276 628.939L472.566 564.793" stroke="#A0A09C" stroke-linecap="round" stroke-linejoin="round"/>
<path d="M438.377 583.93L464.666 592.493" stroke="#A0A09C" stroke-linecap="round" stroke-linejoin="round"/>
<path d="M418.283 583.427L424.981 585.464L469.131 576.84L422.785 570.743L404.617 564.793" stroke="#A0A09C" stroke-linecap="round" stroke-linejoin="round"/>
<path d="M425.582 562.671L407.021 556.107" stroke="#A0A09C" stroke-linecap="round" stroke-linejoin="round"/>
<path d="M400.532 547.987L390.338 575.134L400.532 576.84L410.346 545.509" stroke="#A0A09C" stroke-linecap="round" stroke-linejoin="round"/>
<path d="M373.347 526.003L388.068 551.139L396.373 530.726L404.617 493.715L414.051 455.331" stroke="#A0A09C" stroke-linecap="round" stroke-linejoin="round"/>
<path d="M408.874 455.331L414.051 435.85" stroke="#A0A09C" stroke-linecap="round" stroke-linejoin="round"/>
<path d="M418.283 456.287L422.724 440.732" stroke="#A0A09C" stroke-linecap="round" stroke-linejoin="round"/>
<path d="M380.34 498.855L378.77 512.57L399.244 517.833" stroke="#A0A09C" stroke-linecap="round" stroke-linejoin="round"/>
<path d="M401.133 509.356L437.727 521.796" stroke="#A0A09C" stroke-linecap="round" stroke-linejoin="round"/>
<path d="M420.503 535.964L428.428 494.611L425.668 480.871" stroke="#A0A09C" stroke-linecap="round" stroke-linejoin="round"/>
<path d="M344.997 491.458V508.338H353.609V491.789" stroke="#A0A09C" stroke-linecap="round" stroke-linejoin="round"/>
<path d="M306.846 451.344L313.041 476.701L310.072 493.262V512.779L291.56 575.539L335.048 603.558" stroke="#A0A09C" stroke-linecap="round" stroke-linejoin="round"/>
<path d="M289.094 492.427V509.356" stroke="#A0A09C" stroke-linecap="round" stroke-linejoin="round"/>
<path d="M343.034 542.957L309.679 514.104" stroke="#A0A09C" stroke-linecap="round" stroke-linejoin="round"/>
<path d="M514.632 561.174L502.119 593.671L473.842 583.93" stroke="#A0A09C" stroke-linecap="round" stroke-linejoin="round"/>
<path d="M472.75 561.272L509.982 573.245" stroke="#A0A09C" stroke-linecap="round" stroke-linejoin="round"/>
<path d="M524.899 564.106L512.448 597.743L504.241 628.939" stroke="#A0A09C" stroke-linecap="round" stroke-linejoin="round"/>
<path d="M476.676 598.602L508.964 610.98" stroke="#A0A09C" stroke-linecap="round" stroke-linejoin="round"/>
<path d="M478.528 605.852L507.369 617.04" stroke="#A0A09C" stroke-linecap="round" stroke-linejoin="round"/>
<path d="M533.634 617.04L523.881 602.368" stroke="#A0A09C" stroke-linecap="round" stroke-linejoin="round"/>
<path d="M512.448 597.743L538.761 606.833" stroke="#A0A09C" stroke-linecap="round" stroke-linejoin="round"/>
<path d="M565.406 614.108L599.583 631.16" stroke="#A0A09C" stroke-linecap="round" stroke-linejoin="round"/>
<path d="M591.708 631.16L602.552 595.081L627.48 604.785" stroke="#A0A09C" stroke-linecap="round" stroke-linejoin="round"/>
<path d="M538.761 598.602L565.823 596.872L594.934 585.464" stroke="#A0A09C" stroke-linecap="round" stroke-linejoin="round"/>
<path d="M582.495 581.428L602.405 556.574" stroke="#A0A09C" stroke-linecap="round" stroke-linejoin="round"/>
<path d="M607.385 582.397L617.187 559.04" stroke="#A0A09C" stroke-linecap="round" stroke-linejoin="round"/>
<path d="M578.447 564.106V580.14" stroke="#A0A09C" stroke-linecap="round" stroke-linejoin="round"/>
<path d="M566.842 576.533L565.823 596.872" stroke="#A0A09C" stroke-linecap="round" stroke-linejoin="round"/>
<path d="M555.985 573.245V597.743" stroke="#A0A09C" stroke-linecap="round" stroke-linejoin="round"/>
<path d="M551.679 570.718L549.888 597.89" stroke="#A0A09C" stroke-linecap="round" stroke-linejoin="round"/>
<path d="M545.104 570.718V598.185" stroke="#A0A09C" stroke-linecap="round" stroke-linejoin="round"/>
<path d="M540.405 577.428L560.622 585.488L591.879 584.458" stroke="#A0A09C" stroke-linecap="round" stroke-linejoin="round"/>
<path d="M627.48 611.446L600 603.558" stroke="#A0A09C" stroke-linecap="round" stroke-linejoin="round"/>
<path d="M424.981 585.464L424.343 603.558L335.723 605.852" stroke="#A0A09C" stroke-linecap="round" stroke-linejoin="round"/>
<path d="M416.553 588.211L435.151 593.67" stroke="#A0A09C" stroke-linecap="round" stroke-linejoin="round"/>
<path d="M222.74 480.871H247.042" stroke="#A0A09C" stroke-linecap="round" stroke-linejoin="round"/>
<path d="M361.337 305.778L352.345 328.706L391.847 328.448L401.501 351.106L385.799 392.313L347.046 380.99L313.286 369.814" stroke="#A0A09C" stroke-linecap="round" stroke-linejoin="round"/>
<path d="M431.961 383.247L394.374 369.814" stroke="#A0A09C" stroke-linecap="round" stroke-linejoin="round"/>
<path d="M435.568 371.875L437.445 361.889" stroke="#A0A09C" stroke-linecap="round" stroke-linejoin="round"/>
<path d="M436.512 327.393L443.775 347.07" stroke="#A0A09C" stroke-linecap="round" stroke-linejoin="round"/>
<path d="M523.035 329.7L435.568 356.222" stroke="#A0A09C" stroke-linecap="round" stroke-linejoin="round"/>
<path d="M441.91 354.308L448.571 332.276L445.934 324.277" stroke="#A0A09C" stroke-linecap="round" stroke-linejoin="round"/>
<path d="M445.333 342.961L463.599 339.17" stroke="#A0A09C" stroke-linecap="round" stroke-linejoin="round"/>
<path d="M458.913 328.448L448.571 332.276" stroke="#A0A09C" stroke-linecap="round" stroke-linejoin="round"/>
<path d="M393.699 326.302L405.525 334.926V346.015L401.501 351.106" stroke="#A0A09C" stroke-linecap="round" stroke-linejoin="round"/>
<path d="M408.874 353.94L411.462 346.015L436.108 352.014" stroke="#A0A09C" stroke-linecap="round" stroke-linejoin="round"/>
<path d="M431.397 339.17L411.462 334.153V325.48" stroke="#A0A09C" stroke-linecap="round" stroke-linejoin="round"/>
<path d="M445.234 385.823L450.742 396.606L469.818 384.192" stroke="#A0A09C" stroke-linecap="round" stroke-linejoin="round"/>
<path d="M445.234 408.604L437.445 442.916" stroke="#A0A09C" stroke-linecap="round" stroke-linejoin="round"/>
<path d="M490.366 376.524L503.161 381.677" stroke="#A0A09C" stroke-linecap="round" stroke-linejoin="round"/>
<path d="M502.229 372.439L499.285 380.119" stroke="#A0A09C" stroke-linecap="round" stroke-linejoin="round"/>
<path d="M520.593 352.296L568.117 359.522" stroke="#A0A09C" stroke-linecap="round" stroke-linejoin="round"/>
<path d="M534.063 379.101L538.761 355.056" stroke="#A0A09C" stroke-linecap="round" stroke-linejoin="round"/>
<path d="M516.594 365.373L535.67 370.845" stroke="#A0A09C" stroke-linecap="round" stroke-linejoin="round"/>
<path d="M564.351 378.389L589.782 383.247L599.007 380.818L602.307 361.791" stroke="#A0A09C" stroke-linecap="round" stroke-linejoin="round"/>
<path d="M620.315 366.158L612.967 387.001L599.007 380.818" stroke="#A0A09C" stroke-linecap="round" stroke-linejoin="round"/>
<path d="M494.071 308.906L500.757 332.276L516.594 312.55L524.311 313.445L526.138 300.417" stroke="#A0A09C" stroke-linecap="round" stroke-linejoin="round"/>
<path d="M313.261 356.222L335.784 361.889" stroke="#A0A09C" stroke-linecap="round" stroke-linejoin="round"/>
<path d="M301.129 368.833L298.945 353.94" stroke="#A0A09C" stroke-linecap="round" stroke-linejoin="round"/>
<path d="M306.244 357.277L292.284 358.565" stroke="#A0A09C" stroke-linecap="round" stroke-linejoin="round"/>
<path d="M357.35 368.109L343.243 366.747" stroke="#A0A09C" stroke-linecap="round" stroke-linejoin="round"/>
<path d="M298.945 422.515C298.945 422.515 304.478 420.148 306.232 422.515C306.232 422.515 308.244 415.645 314.954 419.166C314.954 419.166 316.009 417.596 320.217 417.596H353.131" stroke="#A0A09C" stroke-linecap="round" stroke-linejoin="round"/>
<path d="M304.208 437.948L324.094 431.372" stroke="#A0A09C" stroke-linecap="round" stroke-linejoin="round"/>
<path d="M306.244 422.503L310.526 435.85" stroke="#A0A09C" stroke-linecap="round" stroke-linejoin="round"/>
<path d="M314.967 419.142L318.99 433.065" stroke="#A0A09C" stroke-linecap="round" stroke-linejoin="round"/>
<path d="M322.523 231.29L312.231 241.583L268.485 196.242C268.485 196.242 265.995 192.709 271.368 188.06C276.741 183.41 279.845 187.385 279.845 187.385L322.523 231.29Z" stroke="#A0A09C" stroke-linecap="round" stroke-linejoin="round"/>
<path d="M268.485 196.242L258.254 195.899" stroke="#A0A09C" stroke-linecap="round" stroke-linejoin="round"/>
<path d="M279.047 186.673L279.845 161.01" stroke="#A0A09C" stroke-linecap="round" stroke-linejoin="round"/>
<path d="M303.19 175.179L271.662 206.424" stroke="#A0A09C" stroke-linecap="round" stroke-linejoin="round"/>
<path d="M305.214 251.053L275.833 222.703L297.167 201.505C297.167 201.505 302.822 197.53 306.551 196.07C310.28 194.611 315.052 193.924 314.304 189.79C313.556 185.655 301.399 176.946 301.399 176.946" stroke="#A0A09C" stroke-linecap="round" stroke-linejoin="round"/>
<path d="M289.978 208.657L312.832 231.29L307.827 237.031" stroke="#A0A09C" stroke-linecap="round" stroke-linejoin="round"/>
<path d="M305.41 213.699L295.216 223.942" stroke="#A0A09C" stroke-linecap="round" stroke-linejoin="round"/>
<path d="M308.048 247.103L279.845 218.925" stroke="#A0A09C" stroke-linecap="round" stroke-linejoin="round"/>
<path d="M279.047 213.993L262.315 195.899L279.845 164.654L299.019 179.301L319.211 228.555L309.397 238.651" stroke="#A0A09C" stroke-linecap="round" stroke-linejoin="round"/>
<path d="M303.19 253.212L283.562 233.977" stroke="#A0A09C" stroke-linecap="round" stroke-linejoin="round"/>
<path d="M315.789 220.225L319.714 218.925L317.751 208.657" stroke="#A0A09C" stroke-linecap="round" stroke-linejoin="round"/>
<path d="M2.45337 2.45337C2.45337 2.45337 47.2295 57.0435 74.8313 77.8981C102.433 98.7528 198.732 179.718 207.32 190.759C215.907 201.799 229.401 209.773 233.081 216.52C236.762 223.267 268.657 334.288 275.404 355.756C282.151 377.224 303.006 435.494 303.006 435.494C303.006 435.494 309.139 450.215 318.34 447.762C318.34 447.762 329.332 447.148 322.609 425.68C315.887 404.212 303.386 355.449 327.111 291.499C327.111 291.499 359.792 358.209 370.035 370.477C380.278 382.744 409.72 429.36 417.694 435.494C425.668 441.628 430.575 453.282 437.322 461.256C444.069 469.23 445.909 479.657 458.177 489.471C470.444 499.285 479.031 524.433 473.511 555.102C467.991 585.77 487.005 631.16 487.005 631.16" stroke="#686866" stroke-width="3" stroke-linecap="round" stroke-linejoin="round"/>
<path d="M523.035 46.6284C523.035 46.6284 517.686 74.2179 507.872 90.7789C498.058 107.34 484.736 149.307 484.036 169.732" stroke="#686866" stroke-width="3" stroke-linecap="round" stroke-linejoin="round"/>
<path d="M293.817 84.6821L330.043 230.015C330.043 230.015 326.927 206.093 334.901 191.372C342.875 176.651 361.19 125.852 361.19 125.852" stroke="#686866" stroke-width="3" stroke-linecap="round" stroke-linejoin="round"/>
<path d="M233.081 216.52L276.631 5.52026" stroke="#686866" stroke-width="3" stroke-linecap="round" stroke-linejoin="round"/>
<path d="M214.68 5.52026C214.68 5.52026 221.918 51.5232 285.157 39.8691C348.395 28.215 453.282 5.52026 453.282 5.52026" stroke="#686866" stroke-width="3" stroke-linecap="round" stroke-linejoin="round"/>
<path d="M411.303 14.4631L396.643 49.732" stroke="#686866" stroke-width="3" stroke-linecap="round" stroke-linejoin="round"/>
<path d="M194.439 5.52026C194.439 5.52026 137.076 140.303 71.1633 214.668" stroke="#686866" stroke-width="3" stroke-linecap="round" stroke-linejoin="round"/>
<path d="M2.45337 296.872C2.45337 296.872 146.596 468.003 151.503 477.203C156.41 486.404 201.186 596.455 206.706 597.559C212.227 598.663 232.259 567.369 232.259 567.369" stroke="#686866" stroke-width="3" stroke-linecap="round" stroke-linejoin="round"/>
<path d="M198.193 583.206C198.193 583.206 210.742 555.715 219.771 560.622C228.8 565.529 257.383 575.92 275.6 595.866C293.817 615.826 304.159 631.16 304.159 631.16" stroke="#686866" stroke-width="3" stroke-linecap="round" stroke-linejoin="round"/>
<path d="M433.041 539.767L261.223 583.206L206.706 597.559L193.04 631.16" stroke="#686866" stroke-width="3" stroke-linecap="round" stroke-linejoin="round"/>
<path d="M358.602 558.585L332.57 595.081" stroke="#686866" stroke-width="3" stroke-linecap="round" stroke-linejoin="round"/>
<path d="M2.45337 475.977C2.45337 475.977 77.2848 469.23 101.206 472.296C125.128 475.363 378.45 526.887 410.346 533.634C442.241 540.381 597.424 582.728 627.48 597.743" stroke="#686866" stroke-width="3" stroke-linecap="round" stroke-linejoin="round"/>
<path d="M2.45337 534.615C2.45337 534.615 27.6016 519.526 49.0697 512.779C70.5377 506.032 135.702 487.937 153.723 481.951C171.744 475.977 206.743 471.07 228.187 468.003C249.63 464.936 307.287 449.602 318.328 447.761C318.328 447.761 324.302 447.896 324.437 441.137C324.437 441.137 338.765 432.427 365.042 437.334C391.319 442.241 410.677 432.194 420.933 438.438" stroke="#686866" stroke-width="3" stroke-linecap="round" stroke-linejoin="round"/>
<path d="M324.302 560.033L250.955 501.211C250.955 501.211 243.815 475.093 247.655 463.574C251.495 452.055 250.219 336.128 257.911 296.872" stroke="#686866" stroke-width="3" stroke-linecap="round" stroke-linejoin="round"/>
<path d="M107.34 342.875C107.34 342.875 126.968 380.291 147.209 402.985C167.451 425.68 191.985 449.602 194.439 459.416C196.892 469.23 179.89 542.761 179.89 542.761L215.895 560.033" stroke="#686866" stroke-width="3" stroke-linecap="round" stroke-linejoin="round"/>
<path d="M2.45337 510.325C2.45337 510.325 30.0551 521.366 47.2295 531.793C64.404 542.221 98.1394 552.648 108.567 561.849C118.994 571.049 142.916 591.291 163.157 599.264C183.398 607.238 215.294 622.573 223.881 631.16" stroke="#686866" stroke-width="3" stroke-linecap="round" stroke-linejoin="round"/>
<path d="M65.6306 631.16C65.6306 631.16 98.9367 582.74 100.691 556.647C102.433 530.567 94.4591 473.057 93.8457 447.222C93.2324 421.387 89.0369 347.034 89.0369 347.034" stroke="#686866" stroke-width="3" stroke-linecap="round" stroke-linejoin="round"/>
<path d="M444.915 473.314C444.915 473.314 442.854 507.258 433.04 539.767C423.227 572.276 400.532 631.16 400.532 631.16" stroke="#686866" stroke-width="3" stroke-linecap="round" stroke-linejoin="round"/>
<path d="M451.65 543.901L422.724 631.16" stroke="#686866" stroke-width="3" stroke-linecap="round" stroke-linejoin="round"/>
<path d="M506.645 631.16C506.645 631.16 545.901 610.919 560.622 603.558" stroke="#686866" stroke-width="3" stroke-linecap="round" stroke-linejoin="round"/>
<path d="M530.26 631.16C530.26 631.16 581.636 606.858 610.391 590.8" stroke="#686866" stroke-width="3" stroke-linecap="round" stroke-linejoin="round"/>
<path d="M482.773 619.69L326.449 573.245" stroke="#686866" stroke-width="3" stroke-linecap="round" stroke-linejoin="round"/>
<path d="M389.786 550.698C389.786 550.698 395.024 586.997 378.77 631.16" stroke="#686866" stroke-width="3" stroke-linecap="round" stroke-linejoin="round"/>
<path d="M295.02 618.831L325.112 567.872" stroke="#686866" stroke-width="3" stroke-linecap="round" stroke-linejoin="round"/>
<path d="M250.955 501.223L223.881 562.671" stroke="#686866" stroke-width="3" stroke-linecap="round" stroke-linejoin="round"/>
<path d="M55.4365 536.234C55.4365 536.234 122.245 504.29 164.776 507.614C207.307 510.939 244.723 515.331 244.723 515.331" stroke="#686866" stroke-width="3" stroke-linecap="round" stroke-linejoin="round"/>
<path d="M2.45337 603.558C2.45337 603.558 52.1365 582.483 62.5638 567.872C72.9912 553.262 81.9219 531.438 80.2167 520.569C78.5115 509.712 74.8313 482.957 75.4446 471.499" stroke="#686866" stroke-width="3" stroke-linecap="round" stroke-linejoin="round"/>
<path d="M347.463 560.033L318.34 447.761L478.099 460.397" stroke="#686866" stroke-width="3" stroke-linecap="round" stroke-linejoin="round"/>
<path d="M410.346 533.633L433.04 455.465C433.04 455.465 468.53 422.613 506.596 403.599C544.674 384.584 616.439 362.503 627.479 336.128" stroke="#686866" stroke-width="3" stroke-linecap="round" stroke-linejoin="round"/>
<path d="M2.45337 246.576C2.45337 246.576 50.3087 225.696 71.1633 214.668" stroke="#686866" stroke-width="3" stroke-linecap="round" stroke-linejoin="round"/>
<path d="M627.48 394.398C627.48 394.398 607.852 411.573 543.448 435.494C479.044 459.416 348.837 510.939 339.109 515.846C329.381 520.753 321.726 553.114 325.112 567.872C328.51 582.63 343.317 631.16 343.317 631.16" stroke="#222221" stroke-width="3" stroke-linecap="round" stroke-linejoin="round"/>
<path d="M2.45337 207.933C2.45337 207.933 63.1772 191.985 98.1394 236.761C133.102 281.538 160.851 328.375 160.851 328.375C160.851 328.375 195.666 431.2 204.253 452.055C212.84 472.91 224.494 483.337 217.747 499.285C211 515.232 203.026 552.648 203.026 552.648" stroke="#222221" stroke-width="3" stroke-linecap="round" stroke-linejoin="round"/>
<path d="M2.45337 310.366C2.45337 310.366 84.0319 336.128 108.567 345.942C133.102 355.756 200.315 391.331 219.759 400.532C239.215 409.732 318.34 447.762 318.34 447.762L347.819 561.309L358.602 558.586L332.57 595.081" stroke="#222221" stroke-width="3" stroke-linecap="round" stroke-linejoin="round"/>
<path d="M285.156 275.784C285.156 275.784 323.958 239.828 330.043 230.015C336.128 220.201 350.849 173.584 364.956 171.744C379.064 169.904 464.936 161.93 474.75 165.61C484.564 169.291 531.793 193.826 544.061 195.052C556.328 196.279 612.145 193.826 627.479 191.372" stroke="#222221" stroke-width="3" stroke-linecap="round" stroke-linejoin="round"/>
<path d="M2.45337 361.889C2.45337 361.889 68.0842 352.689 107.34 342.875C146.596 333.061 248.955 303.619 260.646 296.259C272.337 288.898 279.587 274.791 288.223 275.404C296.872 276.017 412.799 333.674 431.814 328.767C450.828 323.86 536.7 288.285 627.48 286.445" stroke="#222221" stroke-width="4" stroke-linecap="round" stroke-linejoin="round"/>
<path d="M3.72925 479.89L18.0086 491.421L16.0826 628.939" stroke="#222221" stroke-width="4" stroke-linecap="round" stroke-linejoin="round"/>
<path d="M2.45337 105.5C2.45337 105.5 56.4301 71.7644 87.0987 55.2034C117.767 38.6423 174.198 2.45337 174.198 2.45337" stroke="#222221" stroke-width="4" stroke-linecap="round" stroke-linejoin="round"/>
<path d="M517.686 37.8573C517.686 37.8573 462.482 39.2558 442.241 38.029C422 36.8023 412.799 42.3226 401.145 47.843C389.491 53.3633 309.753 79.7383 274.791 90.779C239.828 101.82 145.492 135.715 145.492 135.715L63.6065 68.4891L8.75879 10.967" stroke="#222221" stroke-width="4" stroke-linecap="round" stroke-linejoin="round"/>
<path d="M499.285 5.52026C499.285 5.52026 561.849 112.247 564.302 124.514C566.756 136.782 561.849 279.808 564.302 292.627C566.756 305.459 627.479 402.985 627.479 402.985" stroke="#222221" stroke-width="4" stroke-linecap="round" stroke-linejoin="round"/>
</g>
<defs>
<clipPath id="clip0_184_360">
<rect width="629.933" height="633" fill="white"/>
</clipPath>
</defs>
</svg>
