<svg width="110" height="115" viewBox="0 0 110 115" fill="none" xmlns="http://www.w3.org/2000/svg">
<path d="M76 33.5714V35.0714H77.5H92.1875C96.0634 35.0714 99.5 38.5042 99.5 42.3571V55.5H8.5V42.3571C8.5 38.5042 11.9366 35.0714 15.8125 35.0714H30.5H32V33.5714V24.7857C32 20.9327 35.4366 17.5 39.3125 17.5H68.6875C72.5634 17.5 76 20.9327 76 24.7857V33.5714ZM65.75 35.0714H67.25V33.5714V27.7143V26.2143H65.75H42.25H40.75V27.7143V33.5714V35.0714H42.25H65.75ZM62.8125 76.0714C65.2596 76.0714 67.25 74.0936 67.25 71.6429V64.3571H99.5V89.2143C99.5 93.0673 96.0634 96.5 92.1875 96.5H15.8125C11.9366 96.5 8.5 93.0673 8.5 89.2143V64.3571H40.75V71.6429C40.75 74.0936 42.7404 76.0714 45.1875 76.0714H62.8125Z" stroke="#F15D22" stroke-width="3"/>
</svg>
