<svg width="110" height="115" viewBox="0 0 110 115" fill="none" xmlns="http://www.w3.org/2000/svg">
<path d="M65.0714 48.5C65.0714 57.6065 57.6605 65 48.5 65C39.3395 65 31.9286 57.6065 31.9286 48.5C31.9286 39.3935 39.3395 32 48.5 32C57.6605 32 65.0714 39.3935 65.0714 48.5ZM48.5 75.9375C52.4136 75.9375 56.1383 75.1011 59.5044 73.625H61.5C71.1683 73.625 79 81.4376 79 91.05V97.0625C79 99.7807 76.7833 102 74.0357 102H22.9643C20.2167 102 18 99.7807 18 97.0625V91.05C18 81.4376 25.8317 73.625 35.5 73.625H37.4971C40.8726 75.1 44.5837 75.9375 48.5 75.9375Z" stroke="#F15D22" stroke-width="4"/>
<path d="M76.0767 33.6066L76.4724 32.7117L75.8129 31.9889C74.3222 30.3553 73.5 28.4469 73.5 26.4286C73.5 21.2808 79.071 16.5 86.8056 16.5C94.5401 16.5 100.111 21.2808 100.111 26.4286C100.111 31.5764 94.5401 36.3571 86.8056 36.3571C84.1134 36.3571 81.6272 35.7441 79.5424 34.7241L78.8202 34.3707L78.1261 34.7765C77.1783 35.3306 76.0029 35.8593 74.6401 36.1427C75.1267 35.4345 75.6542 34.5623 76.0767 33.6066Z" stroke="#F15D22" stroke-width="3"/>
</svg>
