<svg width="110" height="115" viewBox="0 0 110 115" fill="none" xmlns="http://www.w3.org/2000/svg">
<mask id="path-1-inside-1_118_692" fill="white">
<path fill-rule="evenodd" clip-rule="evenodd" d="M67.416 84.9546V104H24.4629V70.4456C15.0542 63.553 9 52.7806 9 40.6746C9 19.8675 26.8846 3 48.9464 3C70.7132 3 88.4139 19.4196 88.8832 39.8424L99.3866 56.8177C101.351 59.9928 100.279 64.0022 96.992 65.773C94.68 67.0186 91.8881 66.8249 89.7515 65.4956V72.5627C89.7515 80.6283 83.2131 87.1667 75.1475 87.1667C72.3082 87.1667 69.6582 86.3565 67.416 84.9546Z"/>
</mask>
<path d="M67.416 84.9546L69.5365 81.5629L63.416 77.7361V84.9546H67.416ZM67.416 104V108H71.416V104H67.416ZM24.4629 104H20.4629V108H24.4629V104ZM24.4629 70.4456H28.4629V68.4174L26.8268 67.2188L24.4629 70.4456ZM88.8832 39.8424L84.8842 39.9343L84.9092 41.0219L85.4816 41.9471L88.8832 39.8424ZM99.3866 56.8177L102.788 54.7131L102.788 54.713L99.3866 56.8177ZM96.992 65.773L95.0949 62.2515L95.0949 62.2515L96.992 65.773ZM89.7515 65.4956L91.8646 62.0993L85.7515 58.296V65.4956H89.7515ZM63.416 84.9546V104H71.416V84.9546H63.416ZM67.416 100H24.4629V108H67.416V100ZM28.4629 104V70.4456H20.4629V104H28.4629ZM26.8268 67.2188C18.3549 61.0125 13 51.3963 13 40.6746H5C5 54.1649 11.7535 66.0935 22.099 73.6723L26.8268 67.2188ZM13 40.6746C13 22.2941 28.8698 7 48.9464 7V-1C24.8993 -1 5 17.4409 5 40.6746H13ZM48.9464 7C68.7513 7 84.4696 21.8896 84.8842 39.9343L92.8821 39.7505C92.3582 16.9496 72.6752 -1 48.9464 -1V7ZM85.4816 41.9471L95.9851 58.9224L102.788 54.713L92.2847 37.7377L85.4816 41.9471ZM95.9851 58.9224C96.7377 60.1387 96.3541 61.5732 95.0949 62.2515L98.8891 69.2945C104.204 66.4313 105.965 59.8469 102.788 54.7131L95.9851 58.9224ZM95.0949 62.2515C94.1296 62.7716 92.8669 62.7229 91.8646 62.0993L87.6385 68.8919C90.9093 70.9269 95.2305 71.2655 98.8891 69.2945L95.0949 62.2515ZM85.7515 65.4956V72.5627H93.7515V65.4956H85.7515ZM85.7515 72.5627C85.7515 78.4191 81.0039 83.1667 75.1475 83.1667V91.1667C85.4222 91.1667 93.7515 82.8374 93.7515 72.5627H85.7515ZM75.1475 83.1667C73.0797 83.1667 71.1614 82.5789 69.5365 81.5629L65.2954 88.3462C68.1549 90.1341 71.5367 91.1667 75.1475 91.1667V83.1667Z" fill="#F15D22" mask="url(#path-1-inside-1_118_692)"/>
<path d="M46.3044 49.3754C46.3049 49.6662 46.3909 49.951 46.5522 50.1932L47.3423 51.3809C47.4773 51.5839 47.6604 51.7505 47.8753 51.8656C48.0902 51.9808 48.3302 52.0411 48.574 52.0411H51.427C51.6708 52.0411 51.9108 51.9808 52.1257 51.8656C52.3406 51.7505 52.5237 51.5839 52.6587 51.3809L53.4488 50.1932C53.6101 49.9509 53.6963 49.6664 53.6966 49.3754L53.6984 47.6024H46.3021L46.3044 49.3754ZM41.8633 36.5067C41.8633 38.558 42.6238 40.4295 43.8772 41.8595C44.641 42.7309 45.8356 44.5515 46.291 46.0874C46.2929 46.0994 46.2942 46.1114 46.2961 46.1234H53.7044C53.7063 46.1114 53.7077 46.0998 53.7095 46.0874C54.1649 44.5515 55.3596 42.7309 56.1234 41.8595C57.3767 40.4295 58.1373 38.558 58.1373 36.5067C58.1373 32.0042 54.4807 28.356 49.9748 28.3699C45.2586 28.3842 41.8633 32.2058 41.8633 36.5067ZM50.0003 32.8082C47.9609 32.8082 46.3016 34.4674 46.3016 36.5067C46.3016 36.9154 45.9706 37.2464 45.5619 37.2464C45.1532 37.2464 44.8222 36.9154 44.8222 36.5067C44.8222 33.6514 47.1449 31.3288 50.0003 31.3288C50.409 31.3288 50.74 31.6598 50.74 32.0685C50.74 32.4772 50.409 32.8082 50.0003 32.8082Z" fill="#F15D22"/>
<path d="M50.2534 19L50.2534 25.9041" stroke="#F15D22" stroke-linecap="round"/>
<path d="M60.1094 36.7466H67.9998" stroke="#F15D22" stroke-linecap="round"/>
<path d="M39.8906 37.7466H32.0002" stroke="#F15D22" stroke-linecap="round"/>
<path d="M42.5132 29.233L37.0885 24.3015" stroke="#F15D22" stroke-linecap="round"/>
<path d="M65.1978 50.4385L59.7731 45.507" stroke="#F15D22" stroke-linecap="round"/>
<path d="M42.5132 44.7671L37.0885 49.6986" stroke="#F15D22" stroke-linecap="round"/>
<path d="M65.1978 23.5615L59.7731 28.493" stroke="#F15D22" stroke-linecap="round"/>
</svg>
