<svg width="454" height="398" viewBox="0 0 454 398" fill="none" xmlns="http://www.w3.org/2000/svg">
<ellipse cx="85.5" cy="294" rx="71.5" ry="72" fill="#F15D22"/>
<rect x="145" y="327" width="301" height="60" rx="10" fill="#EFEFEF"/>
<path d="M219.09 370.08C218.557 370.08 218.047 370 217.56 369.84C217.073 369.673 216.69 369.46 216.41 369.2L216.78 368.42C217.047 368.653 217.387 368.847 217.8 369C218.213 369.153 218.643 369.23 219.09 369.23C219.497 369.23 219.827 369.183 220.08 369.09C220.333 368.997 220.52 368.87 220.64 368.71C220.76 368.543 220.82 368.357 220.82 368.15C220.82 367.91 220.74 367.717 220.58 367.57C220.427 367.423 220.223 367.307 219.97 367.22C219.723 367.127 219.45 367.047 219.15 366.98C218.85 366.913 218.547 366.837 218.24 366.75C217.94 366.657 217.663 366.54 217.41 366.4C217.163 366.26 216.963 366.073 216.81 365.84C216.657 365.6 216.58 365.293 216.58 364.92C216.58 364.56 216.673 364.23 216.86 363.93C217.053 363.623 217.347 363.38 217.74 363.2C218.14 363.013 218.647 362.92 219.26 362.92C219.667 362.92 220.07 362.973 220.47 363.08C220.87 363.187 221.217 363.34 221.51 363.54L221.18 364.34C220.88 364.14 220.563 363.997 220.23 363.91C219.897 363.817 219.573 363.77 219.26 363.77C218.867 363.77 218.543 363.82 218.29 363.92C218.037 364.02 217.85 364.153 217.73 364.32C217.617 364.487 217.56 364.673 217.56 364.88C217.56 365.127 217.637 365.323 217.79 365.47C217.95 365.617 218.153 365.733 218.4 365.82C218.653 365.907 218.93 365.987 219.23 366.06C219.53 366.127 219.83 366.203 220.13 366.29C220.437 366.377 220.713 366.49 220.96 366.63C221.213 366.77 221.417 366.957 221.57 367.19C221.723 367.423 221.8 367.723 221.8 368.09C221.8 368.443 221.703 368.773 221.51 369.08C221.317 369.38 221.017 369.623 220.61 369.81C220.21 369.99 219.703 370.08 219.09 370.08ZM225.391 370.06C224.858 370.06 224.384 369.943 223.971 369.71C223.558 369.477 223.231 369.157 222.991 368.75C222.751 368.337 222.631 367.87 222.631 367.35C222.631 366.823 222.751 366.357 222.991 365.95C223.231 365.543 223.558 365.227 223.971 365C224.384 364.767 224.858 364.65 225.391 364.65C225.918 364.65 226.388 364.767 226.801 365C227.221 365.227 227.548 365.543 227.781 365.95C228.021 366.35 228.141 366.817 228.141 367.35C228.141 367.877 228.021 368.343 227.781 368.75C227.548 369.157 227.221 369.477 226.801 369.71C226.388 369.943 225.918 370.06 225.391 370.06ZM225.391 369.22C225.731 369.22 226.034 369.143 226.301 368.99C226.574 368.837 226.788 368.62 226.941 368.34C227.094 368.053 227.171 367.723 227.171 367.35C227.171 366.97 227.094 366.643 226.941 366.37C226.788 366.09 226.574 365.873 226.301 365.72C226.034 365.567 225.731 365.49 225.391 365.49C225.051 365.49 224.748 365.567 224.481 365.72C224.214 365.873 224.001 366.09 223.841 366.37C223.681 366.643 223.601 366.97 223.601 367.35C223.601 367.723 223.681 368.053 223.841 368.34C224.001 368.62 224.214 368.837 224.481 368.99C224.748 369.143 225.051 369.22 225.391 369.22ZM229.469 370V362.58H230.429V370H229.469ZM233.652 370L231.332 364.7H232.332L234.392 369.5H233.912L236.012 364.7H236.952L234.632 370H233.652ZM237.848 370V364.7H238.808V370H237.848ZM238.328 363.68C238.141 363.68 237.984 363.62 237.858 363.5C237.738 363.38 237.678 363.233 237.678 363.06C237.678 362.88 237.738 362.73 237.858 362.61C237.984 362.49 238.141 362.43 238.328 362.43C238.514 362.43 238.668 362.49 238.788 362.61C238.914 362.723 238.978 362.867 238.978 363.04C238.978 363.22 238.918 363.373 238.798 363.5C238.678 363.62 238.521 363.68 238.328 363.68ZM243.47 364.65C243.904 364.65 244.284 364.733 244.61 364.9C244.944 365.067 245.204 365.32 245.39 365.66C245.577 366 245.67 366.43 245.67 366.95V370H244.71V367.06C244.71 366.547 244.584 366.16 244.33 365.9C244.084 365.64 243.734 365.51 243.28 365.51C242.94 365.51 242.644 365.577 242.39 365.71C242.137 365.843 241.94 366.04 241.8 366.3C241.667 366.56 241.6 366.883 241.6 367.27V370H240.64V364.7H241.56V366.13L241.41 365.75C241.584 365.403 241.85 365.133 242.21 364.94C242.57 364.747 242.99 364.65 243.47 364.65ZM249.767 372C249.28 372 248.807 371.93 248.347 371.79C247.894 371.657 247.524 371.463 247.237 371.21L247.697 370.47C247.944 370.683 248.247 370.85 248.607 370.97C248.967 371.097 249.344 371.16 249.737 371.16C250.364 371.16 250.824 371.013 251.117 370.72C251.41 370.427 251.557 369.98 251.557 369.38V368.26L251.657 367.21L251.607 366.15V364.7H252.517V369.28C252.517 370.213 252.284 370.9 251.817 371.34C251.35 371.78 250.667 372 249.767 372ZM249.647 369.78C249.134 369.78 248.674 369.673 248.267 369.46C247.867 369.24 247.547 368.937 247.307 368.55C247.074 368.163 246.957 367.717 246.957 367.21C246.957 366.697 247.074 366.25 247.307 365.87C247.547 365.483 247.867 365.183 248.267 364.97C248.674 364.757 249.134 364.65 249.647 364.65C250.1 364.65 250.514 364.743 250.887 364.93C251.26 365.11 251.557 365.39 251.777 365.77C252.004 366.15 252.117 366.63 252.117 367.21C252.117 367.783 252.004 368.26 251.777 368.64C251.557 369.02 251.26 369.307 250.887 369.5C250.514 369.687 250.1 369.78 249.647 369.78ZM249.757 368.94C250.11 368.94 250.424 368.867 250.697 368.72C250.97 368.573 251.184 368.37 251.337 368.11C251.497 367.85 251.577 367.55 251.577 367.21C251.577 366.87 251.497 366.57 251.337 366.31C251.184 366.05 250.97 365.85 250.697 365.71C250.424 365.563 250.11 365.49 249.757 365.49C249.404 365.49 249.087 365.563 248.807 365.71C248.534 365.85 248.317 366.05 248.157 366.31C248.004 366.57 247.927 366.87 247.927 367.21C247.927 367.55 248.004 367.85 248.157 368.11C248.317 368.37 248.534 368.573 248.807 368.72C249.087 368.867 249.404 368.94 249.757 368.94ZM259.847 370.06C259.407 370.06 259.004 369.96 258.637 369.76C258.277 369.553 257.987 369.25 257.767 368.85C257.554 368.45 257.447 367.95 257.447 367.35C257.447 366.75 257.55 366.25 257.757 365.85C257.97 365.45 258.257 365.15 258.617 364.95C258.984 364.75 259.394 364.65 259.847 364.65C260.367 364.65 260.827 364.763 261.227 364.99C261.627 365.217 261.944 365.533 262.177 365.94C262.41 366.34 262.527 366.81 262.527 367.35C262.527 367.89 262.41 368.363 262.177 368.77C261.944 369.177 261.627 369.493 261.227 369.72C260.827 369.947 260.367 370.06 259.847 370.06ZM257.037 371.94V364.7H257.957V366.13L257.897 367.36L257.997 368.59V371.94H257.037ZM259.767 369.22C260.107 369.22 260.41 369.143 260.677 368.99C260.95 368.837 261.164 368.62 261.317 368.34C261.477 368.053 261.557 367.723 261.557 367.35C261.557 366.97 261.477 366.643 261.317 366.37C261.164 366.09 260.95 365.873 260.677 365.72C260.41 365.567 260.107 365.49 259.767 365.49C259.434 365.49 259.13 365.567 258.857 365.72C258.59 365.873 258.377 366.09 258.217 366.37C258.064 366.643 257.987 366.97 257.987 367.35C257.987 367.723 258.064 368.053 258.217 368.34C258.377 368.62 258.59 368.837 258.857 368.99C259.13 369.143 259.434 369.22 259.767 369.22ZM263.853 370V364.7H264.773V366.14L264.683 365.78C264.83 365.413 265.077 365.133 265.423 364.94C265.77 364.747 266.197 364.65 266.703 364.65V365.58C266.663 365.573 266.623 365.57 266.583 365.57C266.55 365.57 266.517 365.57 266.483 365.57C265.97 365.57 265.563 365.723 265.263 366.03C264.963 366.337 264.813 366.78 264.813 367.36V370H263.853ZM270.108 370.06C269.574 370.06 269.101 369.943 268.688 369.71C268.274 369.477 267.948 369.157 267.708 368.75C267.468 368.337 267.348 367.87 267.348 367.35C267.348 366.823 267.468 366.357 267.708 365.95C267.948 365.543 268.274 365.227 268.688 365C269.101 364.767 269.574 364.65 270.108 364.65C270.634 364.65 271.104 364.767 271.518 365C271.938 365.227 272.264 365.543 272.498 365.95C272.738 366.35 272.858 366.817 272.858 367.35C272.858 367.877 272.738 368.343 272.498 368.75C272.264 369.157 271.938 369.477 271.518 369.71C271.104 369.943 270.634 370.06 270.108 370.06ZM270.108 369.22C270.448 369.22 270.751 369.143 271.018 368.99C271.291 368.837 271.504 368.62 271.658 368.34C271.811 368.053 271.888 367.723 271.888 367.35C271.888 366.97 271.811 366.643 271.658 366.37C271.504 366.09 271.291 365.873 271.018 365.72C270.751 365.567 270.448 365.49 270.108 365.49C269.768 365.49 269.464 365.567 269.198 365.72C268.931 365.873 268.718 366.09 268.558 366.37C268.398 366.643 268.318 366.97 268.318 367.35C268.318 367.723 268.398 368.053 268.558 368.34C268.718 368.62 268.931 368.837 269.198 368.99C269.464 369.143 269.768 369.22 270.108 369.22ZM276.995 370.06C276.542 370.06 276.132 369.96 275.765 369.76C275.405 369.553 275.119 369.25 274.905 368.85C274.699 368.45 274.595 367.95 274.595 367.35C274.595 366.75 274.702 366.25 274.915 365.85C275.135 365.45 275.425 365.15 275.785 364.95C276.152 364.75 276.555 364.65 276.995 364.65C277.515 364.65 277.975 364.763 278.375 364.99C278.775 365.217 279.092 365.533 279.325 365.94C279.559 366.34 279.675 366.81 279.675 367.35C279.675 367.89 279.559 368.363 279.325 368.77C279.092 369.177 278.775 369.493 278.375 369.72C277.975 369.947 277.515 370.06 276.995 370.06ZM274.185 370V362.58H275.145V366.11L275.045 367.34L275.105 368.57V370H274.185ZM276.915 369.22C277.255 369.22 277.559 369.143 277.825 368.99C278.099 368.837 278.312 368.62 278.465 368.34C278.625 368.053 278.705 367.723 278.705 367.35C278.705 366.97 278.625 366.643 278.465 366.37C278.312 366.09 278.099 365.873 277.825 365.72C277.559 365.567 277.255 365.49 276.915 365.49C276.582 365.49 276.279 365.567 276.005 365.72C275.739 365.873 275.525 366.09 275.365 366.37C275.212 366.643 275.135 366.97 275.135 367.35C275.135 367.723 275.212 368.053 275.365 368.34C275.525 368.62 275.739 368.837 276.005 368.99C276.279 369.143 276.582 369.22 276.915 369.22ZM281.002 370V362.58H281.962V370H281.002ZM286.155 370.06C285.588 370.06 285.088 369.943 284.655 369.71C284.228 369.477 283.895 369.157 283.655 368.75C283.421 368.343 283.305 367.877 283.305 367.35C283.305 366.823 283.418 366.357 283.645 365.95C283.878 365.543 284.195 365.227 284.595 365C285.001 364.767 285.458 364.65 285.965 364.65C286.478 364.65 286.931 364.763 287.325 364.99C287.718 365.217 288.025 365.537 288.245 365.95C288.471 366.357 288.585 366.833 288.585 367.38C288.585 367.42 288.581 367.467 288.575 367.52C288.575 367.573 288.571 367.623 288.565 367.67H284.055V366.98H288.065L287.675 367.22C287.681 366.88 287.611 366.577 287.465 366.31C287.318 366.043 287.115 365.837 286.855 365.69C286.601 365.537 286.305 365.46 285.965 365.46C285.631 365.46 285.335 365.537 285.075 365.69C284.815 365.837 284.611 366.047 284.465 366.32C284.318 366.587 284.245 366.893 284.245 367.24V367.4C284.245 367.753 284.325 368.07 284.485 368.35C284.651 368.623 284.881 368.837 285.175 368.99C285.468 369.143 285.805 369.22 286.185 369.22C286.498 369.22 286.781 369.167 287.035 369.06C287.295 368.953 287.521 368.793 287.715 368.58L288.245 369.2C288.005 369.48 287.705 369.693 287.345 369.84C286.991 369.987 286.595 370.06 286.155 370.06ZM296.548 364.65C296.974 364.65 297.351 364.733 297.678 364.9C298.004 365.067 298.258 365.32 298.438 365.66C298.624 366 298.718 366.43 298.718 366.95V370H297.758V367.06C297.758 366.547 297.638 366.16 297.398 365.9C297.158 365.64 296.821 365.51 296.388 365.51C296.068 365.51 295.788 365.577 295.548 365.71C295.308 365.843 295.121 366.04 294.988 366.3C294.861 366.56 294.798 366.883 294.798 367.27V370H293.838V367.06C293.838 366.547 293.718 366.16 293.478 365.9C293.244 365.64 292.908 365.51 292.468 365.51C292.154 365.51 291.878 365.577 291.638 365.71C291.398 365.843 291.211 366.04 291.078 366.3C290.944 366.56 290.878 366.883 290.878 367.27V370H289.918V364.7H290.838V366.11L290.688 365.75C290.854 365.403 291.111 365.133 291.458 364.94C291.804 364.747 292.208 364.65 292.668 364.65C293.174 364.65 293.611 364.777 293.978 365.03C294.344 365.277 294.584 365.653 294.698 366.16L294.308 366C294.468 365.593 294.748 365.267 295.148 365.02C295.548 364.773 296.014 364.65 296.548 364.65ZM302.004 370.06C301.564 370.06 301.144 370 300.744 369.88C300.351 369.76 300.041 369.613 299.814 369.44L300.214 368.68C300.441 368.833 300.721 368.963 301.054 369.07C301.388 369.177 301.728 369.23 302.074 369.23C302.521 369.23 302.841 369.167 303.034 369.04C303.234 368.913 303.334 368.737 303.334 368.51C303.334 368.343 303.274 368.213 303.154 368.12C303.034 368.027 302.874 367.957 302.674 367.91C302.481 367.863 302.264 367.823 302.024 367.79C301.784 367.75 301.544 367.703 301.304 367.65C301.064 367.59 300.844 367.51 300.644 367.41C300.444 367.303 300.284 367.16 300.164 366.98C300.044 366.793 299.984 366.547 299.984 366.24C299.984 365.92 300.074 365.64 300.254 365.4C300.434 365.16 300.688 364.977 301.014 364.85C301.348 364.717 301.741 364.65 302.194 364.65C302.541 364.65 302.891 364.693 303.244 364.78C303.604 364.86 303.898 364.977 304.124 365.13L303.714 365.89C303.474 365.73 303.224 365.62 302.964 365.56C302.704 365.5 302.444 365.47 302.184 365.47C301.764 365.47 301.451 365.54 301.244 365.68C301.038 365.813 300.934 365.987 300.934 366.2C300.934 366.38 300.994 366.52 301.114 366.62C301.241 366.713 301.401 366.787 301.594 366.84C301.794 366.893 302.014 366.94 302.254 366.98C302.494 367.013 302.734 367.06 302.974 367.12C303.214 367.173 303.431 367.25 303.624 367.35C303.824 367.45 303.984 367.59 304.104 367.77C304.231 367.95 304.294 368.19 304.294 368.49C304.294 368.81 304.201 369.087 304.014 369.32C303.828 369.553 303.564 369.737 303.224 369.87C302.884 369.997 302.478 370.06 302.004 370.06ZM311.47 370V368.88L311.42 368.67V366.76C311.42 366.353 311.3 366.04 311.06 365.82C310.826 365.593 310.473 365.48 310 365.48C309.686 365.48 309.38 365.533 309.08 365.64C308.78 365.74 308.526 365.877 308.32 366.05L307.92 365.33C308.193 365.11 308.52 364.943 308.9 364.83C309.286 364.71 309.69 364.65 310.11 364.65C310.836 364.65 311.396 364.827 311.79 365.18C312.183 365.533 312.38 366.073 312.38 366.8V370H311.47ZM309.73 370.06C309.336 370.06 308.99 369.993 308.69 369.86C308.396 369.727 308.17 369.543 308.01 369.31C307.85 369.07 307.77 368.8 307.77 368.5C307.77 368.213 307.836 367.953 307.97 367.72C308.11 367.487 308.333 367.3 308.64 367.16C308.953 367.02 309.373 366.95 309.9 366.95H311.58V367.64H309.94C309.46 367.64 309.136 367.72 308.97 367.88C308.803 368.04 308.72 368.233 308.72 368.46C308.72 368.72 308.823 368.93 309.03 369.09C309.236 369.243 309.523 369.32 309.89 369.32C310.25 369.32 310.563 369.24 310.83 369.08C311.103 368.92 311.3 368.687 311.42 368.38L311.61 369.04C311.483 369.353 311.26 369.603 310.94 369.79C310.62 369.97 310.216 370.06 309.73 370.06ZM316.986 364.65C317.419 364.65 317.799 364.733 318.126 364.9C318.459 365.067 318.719 365.32 318.906 365.66C319.093 366 319.186 366.43 319.186 366.95V370H318.226V367.06C318.226 366.547 318.099 366.16 317.846 365.9C317.599 365.64 317.249 365.51 316.796 365.51C316.456 365.51 316.159 365.577 315.906 365.71C315.653 365.843 315.456 366.04 315.316 366.3C315.183 366.56 315.116 366.883 315.116 367.27V370H314.156V364.7H315.076V366.13L314.926 365.75C315.099 365.403 315.366 365.133 315.726 364.94C316.086 364.747 316.506 364.65 316.986 364.65ZM323.153 370.06C322.639 370.06 322.179 369.947 321.773 369.72C321.373 369.493 321.056 369.177 320.823 368.77C320.589 368.363 320.473 367.89 320.473 367.35C320.473 366.81 320.589 366.34 320.823 365.94C321.056 365.533 321.373 365.217 321.773 364.99C322.179 364.763 322.639 364.65 323.153 364.65C323.599 364.65 324.003 364.75 324.363 364.95C324.723 365.15 325.009 365.45 325.223 365.85C325.443 366.25 325.553 366.75 325.553 367.35C325.553 367.95 325.446 368.45 325.233 368.85C325.026 369.25 324.743 369.553 324.383 369.76C324.023 369.96 323.613 370.06 323.153 370.06ZM323.233 369.22C323.566 369.22 323.866 369.143 324.133 368.99C324.406 368.837 324.619 368.62 324.773 368.34C324.933 368.053 325.013 367.723 325.013 367.35C325.013 366.97 324.933 366.643 324.773 366.37C324.619 366.09 324.406 365.873 324.133 365.72C323.866 365.567 323.566 365.49 323.233 365.49C322.893 365.49 322.589 365.567 322.323 365.72C322.056 365.873 321.843 366.09 321.683 366.37C321.523 366.643 321.443 366.97 321.443 367.35C321.443 367.723 321.523 368.053 321.683 368.34C321.843 368.62 322.056 368.837 322.323 368.99C322.589 369.143 322.893 369.22 323.233 369.22ZM325.043 370V368.57L325.103 367.34L325.003 366.11V362.58H325.963V370H325.043ZM331.985 370.06C331.545 370.06 331.125 370 330.725 369.88C330.331 369.76 330.021 369.613 329.795 369.44L330.195 368.68C330.421 368.833 330.701 368.963 331.035 369.07C331.368 369.177 331.708 369.23 332.055 369.23C332.501 369.23 332.821 369.167 333.015 369.04C333.215 368.913 333.315 368.737 333.315 368.51C333.315 368.343 333.255 368.213 333.135 368.12C333.015 368.027 332.855 367.957 332.655 367.91C332.461 367.863 332.245 367.823 332.005 367.79C331.765 367.75 331.525 367.703 331.285 367.65C331.045 367.59 330.825 367.51 330.625 367.41C330.425 367.303 330.265 367.16 330.145 366.98C330.025 366.793 329.965 366.547 329.965 366.24C329.965 365.92 330.055 365.64 330.235 365.4C330.415 365.16 330.668 364.977 330.995 364.85C331.328 364.717 331.721 364.65 332.175 364.65C332.521 364.65 332.871 364.693 333.225 364.78C333.585 364.86 333.878 364.977 334.105 365.13L333.695 365.89C333.455 365.73 333.205 365.62 332.945 365.56C332.685 365.5 332.425 365.47 332.165 365.47C331.745 365.47 331.431 365.54 331.225 365.68C331.018 365.813 330.915 365.987 330.915 366.2C330.915 366.38 330.975 366.52 331.095 366.62C331.221 366.713 331.381 366.787 331.575 366.84C331.775 366.893 331.995 366.94 332.235 366.98C332.475 367.013 332.715 367.06 332.955 367.12C333.195 367.173 333.411 367.25 333.605 367.35C333.805 367.45 333.965 367.59 334.085 367.77C334.211 367.95 334.275 368.19 334.275 368.49C334.275 368.81 334.181 369.087 333.995 369.32C333.808 369.553 333.545 369.737 333.205 369.87C332.865 369.997 332.458 370.06 331.985 370.06ZM338.304 364.65C338.738 364.65 339.118 364.733 339.444 364.9C339.778 365.067 340.038 365.32 340.224 365.66C340.411 366 340.504 366.43 340.504 366.95V370H339.544V367.06C339.544 366.547 339.418 366.16 339.164 365.9C338.918 365.64 338.568 365.51 338.114 365.51C337.774 365.51 337.478 365.577 337.224 365.71C336.971 365.843 336.774 366.04 336.634 366.3C336.501 366.56 336.434 366.883 336.434 367.27V370H335.474V362.58H336.434V366.13L336.244 365.75C336.418 365.403 336.684 365.133 337.044 364.94C337.404 364.747 337.824 364.65 338.304 364.65ZM345.571 370V368.88L345.521 368.67V366.76C345.521 366.353 345.401 366.04 345.161 365.82C344.928 365.593 344.574 365.48 344.101 365.48C343.788 365.48 343.481 365.533 343.181 365.64C342.881 365.74 342.628 365.877 342.421 366.05L342.021 365.33C342.294 365.11 342.621 364.943 343.001 364.83C343.388 364.71 343.791 364.65 344.211 364.65C344.938 364.65 345.498 364.827 345.891 365.18C346.284 365.533 346.481 366.073 346.481 366.8V370H345.571ZM343.831 370.06C343.438 370.06 343.091 369.993 342.791 369.86C342.498 369.727 342.271 369.543 342.111 369.31C341.951 369.07 341.871 368.8 341.871 368.5C341.871 368.213 341.938 367.953 342.071 367.72C342.211 367.487 342.434 367.3 342.741 367.16C343.054 367.02 343.474 366.95 344.001 366.95H345.681V367.64H344.041C343.561 367.64 343.238 367.72 343.071 367.88C342.904 368.04 342.821 368.233 342.821 368.46C342.821 368.72 342.924 368.93 343.131 369.09C343.338 369.243 343.624 369.32 343.991 369.32C344.351 369.32 344.664 369.24 344.931 369.08C345.204 368.92 345.401 368.687 345.521 368.38L345.711 369.04C345.584 369.353 345.361 369.603 345.041 369.79C344.721 369.97 344.318 370.06 343.831 370.06ZM348.258 370V364.7H349.178V366.14L349.088 365.78C349.234 365.413 349.481 365.133 349.828 364.94C350.174 364.747 350.601 364.65 351.108 364.65V365.58C351.068 365.573 351.028 365.57 350.988 365.57C350.954 365.57 350.921 365.57 350.888 365.57C350.374 365.57 349.968 365.723 349.668 366.03C349.368 366.337 349.218 366.78 349.218 367.36V370H348.258ZM352.291 370V364.7H353.251V370H352.291ZM352.771 363.68C352.584 363.68 352.428 363.62 352.301 363.5C352.181 363.38 352.121 363.233 352.121 363.06C352.121 362.88 352.181 362.73 352.301 362.61C352.428 362.49 352.584 362.43 352.771 362.43C352.958 362.43 353.111 362.49 353.231 362.61C353.358 362.723 353.421 362.867 353.421 363.04C353.421 363.22 353.361 363.373 353.241 363.5C353.121 363.62 352.964 363.68 352.771 363.68ZM357.914 364.65C358.347 364.65 358.727 364.733 359.054 364.9C359.387 365.067 359.647 365.32 359.834 365.66C360.02 366 360.114 366.43 360.114 366.95V370H359.154V367.06C359.154 366.547 359.027 366.16 358.774 365.9C358.527 365.64 358.177 365.51 357.724 365.51C357.384 365.51 357.087 365.577 356.834 365.71C356.58 365.843 356.384 366.04 356.244 366.3C356.11 366.56 356.044 366.883 356.044 367.27V370H355.084V364.7H356.004V366.13L355.854 365.75C356.027 365.403 356.294 365.133 356.654 364.94C357.014 364.747 357.434 364.65 357.914 364.65ZM364.21 372C363.724 372 363.25 371.93 362.79 371.79C362.337 371.657 361.967 371.463 361.68 371.21L362.14 370.47C362.387 370.683 362.69 370.85 363.05 370.97C363.41 371.097 363.787 371.16 364.18 371.16C364.807 371.16 365.267 371.013 365.56 370.72C365.854 370.427 366 369.98 366 369.38V368.26L366.1 367.21L366.05 366.15V364.7H366.96V369.28C366.96 370.213 366.727 370.9 366.26 371.34C365.794 371.78 365.11 372 364.21 372ZM364.09 369.78C363.577 369.78 363.117 369.673 362.71 369.46C362.31 369.24 361.99 368.937 361.75 368.55C361.517 368.163 361.4 367.717 361.4 367.21C361.4 366.697 361.517 366.25 361.75 365.87C361.99 365.483 362.31 365.183 362.71 364.97C363.117 364.757 363.577 364.65 364.09 364.65C364.544 364.65 364.957 364.743 365.33 364.93C365.704 365.11 366 365.39 366.22 365.77C366.447 366.15 366.56 366.63 366.56 367.21C366.56 367.783 366.447 368.26 366.22 368.64C366 369.02 365.704 369.307 365.33 369.5C364.957 369.687 364.544 369.78 364.09 369.78ZM364.2 368.94C364.554 368.94 364.867 368.867 365.14 368.72C365.414 368.573 365.627 368.37 365.78 368.11C365.94 367.85 366.02 367.55 366.02 367.21C366.02 366.87 365.94 366.57 365.78 366.31C365.627 366.05 365.414 365.85 365.14 365.71C364.867 365.563 364.554 365.49 364.2 365.49C363.847 365.49 363.53 365.563 363.25 365.71C362.977 365.85 362.76 366.05 362.6 366.31C362.447 366.57 362.37 366.87 362.37 367.21C362.37 367.55 362.447 367.85 362.6 368.11C362.76 368.37 362.977 368.573 363.25 368.72C363.53 368.867 363.847 368.94 364.2 368.94ZM372.26 368.72L372.28 367.49L375.33 364.7H376.49L374.15 367L373.63 367.44L372.26 368.72ZM371.48 370V362.58H372.44V370H371.48ZM375.53 370L373.45 367.42L374.07 366.65L376.71 370H375.53ZM380.404 364.65C380.837 364.65 381.217 364.733 381.544 364.9C381.877 365.067 382.137 365.32 382.324 365.66C382.511 366 382.604 366.43 382.604 366.95V370H381.644V367.06C381.644 366.547 381.517 366.16 381.264 365.9C381.017 365.64 380.667 365.51 380.214 365.51C379.874 365.51 379.577 365.577 379.324 365.71C379.071 365.843 378.874 366.04 378.734 366.3C378.601 366.56 378.534 366.883 378.534 367.27V370H377.574V364.7H378.494V366.13L378.344 365.75C378.517 365.403 378.784 365.133 379.144 364.94C379.504 364.747 379.924 364.65 380.404 364.65ZM386.651 370.06C386.117 370.06 385.644 369.943 385.231 369.71C384.817 369.477 384.491 369.157 384.251 368.75C384.011 368.337 383.891 367.87 383.891 367.35C383.891 366.823 384.011 366.357 384.251 365.95C384.491 365.543 384.817 365.227 385.231 365C385.644 364.767 386.117 364.65 386.651 364.65C387.177 364.65 387.647 364.767 388.061 365C388.481 365.227 388.807 365.543 389.041 365.95C389.281 366.35 389.401 366.817 389.401 367.35C389.401 367.877 389.281 368.343 389.041 368.75C388.807 369.157 388.481 369.477 388.061 369.71C387.647 369.943 387.177 370.06 386.651 370.06ZM386.651 369.22C386.991 369.22 387.294 369.143 387.561 368.99C387.834 368.837 388.047 368.62 388.201 368.34C388.354 368.053 388.431 367.723 388.431 367.35C388.431 366.97 388.354 366.643 388.201 366.37C388.047 366.09 387.834 365.873 387.561 365.72C387.294 365.567 386.991 365.49 386.651 365.49C386.311 365.49 386.007 365.567 385.741 365.72C385.474 365.873 385.261 366.09 385.101 366.37C384.941 366.643 384.861 366.97 384.861 367.35C384.861 367.723 384.941 368.053 385.101 368.34C385.261 368.62 385.474 368.837 385.741 368.99C386.007 369.143 386.311 369.22 386.651 369.22ZM391.702 370L389.732 364.7H390.642L392.392 369.5H391.962L393.782 364.7H394.592L396.372 369.5H395.952L397.742 364.7H398.602L396.622 370H395.702L394.032 365.62H394.312L392.622 370H391.702ZM399.576 370V362.58H400.536V370H399.576ZM404.729 370.06C404.162 370.06 403.662 369.943 403.229 369.71C402.802 369.477 402.469 369.157 402.229 368.75C401.996 368.343 401.879 367.877 401.879 367.35C401.879 366.823 401.992 366.357 402.219 365.95C402.452 365.543 402.769 365.227 403.169 365C403.576 364.767 404.032 364.65 404.539 364.65C405.052 364.65 405.506 364.763 405.899 364.99C406.292 365.217 406.599 365.537 406.819 365.95C407.046 366.357 407.159 366.833 407.159 367.38C407.159 367.42 407.156 367.467 407.149 367.52C407.149 367.573 407.146 367.623 407.139 367.67H402.629V366.98H406.639L406.249 367.22C406.256 366.88 406.186 366.577 406.039 366.31C405.892 366.043 405.689 365.837 405.429 365.69C405.176 365.537 404.879 365.46 404.539 365.46C404.206 365.46 403.909 365.537 403.649 365.69C403.389 365.837 403.186 366.047 403.039 366.32C402.892 366.587 402.819 366.893 402.819 367.24V367.4C402.819 367.753 402.899 368.07 403.059 368.35C403.226 368.623 403.456 368.837 403.749 368.99C404.042 369.143 404.379 369.22 404.759 369.22C405.072 369.22 405.356 369.167 405.609 369.06C405.869 368.953 406.096 368.793 406.289 368.58L406.819 369.2C406.579 369.48 406.279 369.693 405.919 369.84C405.566 369.987 405.169 370.06 404.729 370.06ZM410.682 370.06C410.169 370.06 409.709 369.947 409.302 369.72C408.902 369.493 408.585 369.177 408.352 368.77C408.119 368.363 408.002 367.89 408.002 367.35C408.002 366.81 408.119 366.34 408.352 365.94C408.585 365.533 408.902 365.217 409.302 364.99C409.709 364.763 410.169 364.65 410.682 364.65C411.129 364.65 411.532 364.75 411.892 364.95C412.252 365.15 412.539 365.45 412.752 365.85C412.972 366.25 413.082 366.75 413.082 367.35C413.082 367.95 412.975 368.45 412.762 368.85C412.555 369.25 412.272 369.553 411.912 369.76C411.552 369.96 411.142 370.06 410.682 370.06ZM410.762 369.22C411.095 369.22 411.395 369.143 411.662 368.99C411.935 368.837 412.149 368.62 412.302 368.34C412.462 368.053 412.542 367.723 412.542 367.35C412.542 366.97 412.462 366.643 412.302 366.37C412.149 366.09 411.935 365.873 411.662 365.72C411.395 365.567 411.095 365.49 410.762 365.49C410.422 365.49 410.119 365.567 409.852 365.72C409.585 365.873 409.372 366.09 409.212 366.37C409.052 366.643 408.972 366.97 408.972 367.35C408.972 367.723 409.052 368.053 409.212 368.34C409.372 368.62 409.585 368.837 409.852 368.99C410.119 369.143 410.422 369.22 410.762 369.22ZM412.572 370V368.57L412.632 367.34L412.532 366.11V362.58H413.492V370H412.572ZM417.628 372C417.142 372 416.668 371.93 416.208 371.79C415.755 371.657 415.385 371.463 415.098 371.21L415.558 370.47C415.805 370.683 416.108 370.85 416.468 370.97C416.828 371.097 417.205 371.16 417.598 371.16C418.225 371.16 418.685 371.013 418.978 370.72C419.272 370.427 419.418 369.98 419.418 369.38V368.26L419.518 367.21L419.468 366.15V364.7H420.378V369.28C420.378 370.213 420.145 370.9 419.678 371.34C419.212 371.78 418.528 372 417.628 372ZM417.508 369.78C416.995 369.78 416.535 369.673 416.128 369.46C415.728 369.24 415.408 368.937 415.168 368.55C414.935 368.163 414.818 367.717 414.818 367.21C414.818 366.697 414.935 366.25 415.168 365.87C415.408 365.483 415.728 365.183 416.128 364.97C416.535 364.757 416.995 364.65 417.508 364.65C417.962 364.65 418.375 364.743 418.748 364.93C419.122 365.11 419.418 365.39 419.638 365.77C419.865 366.15 419.978 366.63 419.978 367.21C419.978 367.783 419.865 368.26 419.638 368.64C419.418 369.02 419.122 369.307 418.748 369.5C418.375 369.687 417.962 369.78 417.508 369.78ZM417.618 368.94C417.972 368.94 418.285 368.867 418.558 368.72C418.832 368.573 419.045 368.37 419.198 368.11C419.358 367.85 419.438 367.55 419.438 367.21C419.438 366.87 419.358 366.57 419.198 366.31C419.045 366.05 418.832 365.85 418.558 365.71C418.285 365.563 417.972 365.49 417.618 365.49C417.265 365.49 416.948 365.563 416.668 365.71C416.395 365.85 416.178 366.05 416.018 366.31C415.865 366.57 415.788 366.87 415.788 367.21C415.788 367.55 415.865 367.85 416.018 368.11C416.178 368.37 416.395 368.573 416.668 368.72C416.948 368.867 417.265 368.94 417.618 368.94ZM424.573 370.06C424.006 370.06 423.506 369.943 423.073 369.71C422.646 369.477 422.313 369.157 422.073 368.75C421.839 368.343 421.723 367.877 421.723 367.35C421.723 366.823 421.836 366.357 422.063 365.95C422.296 365.543 422.613 365.227 423.013 365C423.419 364.767 423.876 364.65 424.383 364.65C424.896 364.65 425.349 364.763 425.743 364.99C426.136 365.217 426.443 365.537 426.663 365.95C426.889 366.357 427.003 366.833 427.003 367.38C427.003 367.42 426.999 367.467 426.993 367.52C426.993 367.573 426.989 367.623 426.983 367.67H422.473V366.98H426.483L426.093 367.22C426.099 366.88 426.029 366.577 425.883 366.31C425.736 366.043 425.533 365.837 425.273 365.69C425.019 365.537 424.723 365.46 424.383 365.46C424.049 365.46 423.753 365.537 423.493 365.69C423.233 365.837 423.029 366.047 422.883 366.32C422.736 366.587 422.663 366.893 422.663 367.24V367.4C422.663 367.753 422.743 368.07 422.903 368.35C423.069 368.623 423.299 368.837 423.593 368.99C423.886 369.143 424.223 369.22 424.603 369.22C424.916 369.22 425.199 369.167 425.453 369.06C425.713 368.953 425.939 368.793 426.133 368.58L426.663 369.2C426.423 369.48 426.123 369.693 425.763 369.84C425.409 369.987 425.013 370.06 424.573 370.06Z" fill="#505050"/>
<path d="M219.708 357.096C219.068 357.096 218.456 357 217.872 356.808C217.288 356.608 216.828 356.352 216.492 356.04L216.936 355.104C217.256 355.384 217.664 355.616 218.16 355.8C218.656 355.984 219.172 356.076 219.708 356.076C220.196 356.076 220.592 356.02 220.896 355.908C221.2 355.796 221.424 355.644 221.568 355.452C221.712 355.252 221.784 355.028 221.784 354.78C221.784 354.492 221.688 354.26 221.496 354.084C221.312 353.908 221.068 353.768 220.764 353.664C220.468 353.552 220.14 353.456 219.78 353.376C219.42 353.296 219.056 353.204 218.688 353.1C218.328 352.988 217.996 352.848 217.692 352.68C217.396 352.512 217.156 352.288 216.972 352.008C216.788 351.72 216.696 351.352 216.696 350.904C216.696 350.472 216.808 350.076 217.032 349.716C217.264 349.348 217.616 349.056 218.088 348.84C218.568 348.616 219.176 348.504 219.912 348.504C220.4 348.504 220.884 348.568 221.364 348.696C221.844 348.824 222.26 349.008 222.612 349.248L222.216 350.208C221.856 349.968 221.476 349.796 221.076 349.692C220.676 349.58 220.288 349.524 219.912 349.524C219.44 349.524 219.052 349.584 218.748 349.704C218.444 349.824 218.22 349.984 218.076 350.184C217.94 350.384 217.872 350.608 217.872 350.856C217.872 351.152 217.964 351.388 218.148 351.564C218.34 351.74 218.584 351.88 218.88 351.984C219.184 352.088 219.516 352.184 219.876 352.272C220.236 352.352 220.596 352.444 220.956 352.548C221.324 352.652 221.656 352.788 221.952 352.956C222.256 353.124 222.5 353.348 222.684 353.628C222.868 353.908 222.96 354.268 222.96 354.708C222.96 355.132 222.844 355.528 222.612 355.896C222.38 356.256 222.02 356.548 221.532 356.772C221.052 356.988 220.444 357.096 219.708 357.096ZM227.221 357.072C226.677 357.072 226.197 356.972 225.781 356.772C225.373 356.572 225.053 356.268 224.821 355.86C224.597 355.444 224.485 354.924 224.485 354.3V350.64H225.637V354.168C225.637 354.792 225.785 355.26 226.081 355.572C226.385 355.884 226.809 356.04 227.353 356.04C227.753 356.04 228.101 355.96 228.397 355.8C228.693 355.632 228.921 355.392 229.081 355.08C229.241 354.76 229.321 354.376 229.321 353.928V350.64H230.473V357H229.381V355.284L229.561 355.74C229.353 356.164 229.041 356.492 228.625 356.724C228.209 356.956 227.741 357.072 227.221 357.072ZM235.438 357.072C234.79 357.072 234.21 356.932 233.698 356.652C233.194 356.372 232.798 355.988 232.51 355.5C232.222 355.012 232.078 354.452 232.078 353.82C232.078 353.188 232.222 352.628 232.51 352.14C232.798 351.652 233.194 351.272 233.698 351C234.21 350.72 234.79 350.58 235.438 350.58C236.014 350.58 236.526 350.696 236.974 350.928C237.43 351.152 237.782 351.488 238.03 351.936L237.154 352.5C236.946 352.188 236.69 351.96 236.386 351.816C236.09 351.664 235.77 351.588 235.426 351.588C235.01 351.588 234.638 351.68 234.31 351.864C233.982 352.048 233.722 352.308 233.53 352.644C233.338 352.972 233.242 353.364 233.242 353.82C233.242 354.276 233.338 354.672 233.53 355.008C233.722 355.344 233.982 355.604 234.31 355.788C234.638 355.972 235.01 356.064 235.426 356.064C235.77 356.064 236.09 355.992 236.386 355.848C236.69 355.696 236.946 355.464 237.154 355.152L238.03 355.704C237.782 356.144 237.43 356.484 236.974 356.724C236.526 356.956 236.014 357.072 235.438 357.072ZM242.2 357.072C241.552 357.072 240.972 356.932 240.46 356.652C239.956 356.372 239.56 355.988 239.272 355.5C238.984 355.012 238.84 354.452 238.84 353.82C238.84 353.188 238.984 352.628 239.272 352.14C239.56 351.652 239.956 351.272 240.46 351C240.972 350.72 241.552 350.58 242.2 350.58C242.776 350.58 243.288 350.696 243.736 350.928C244.192 351.152 244.544 351.488 244.792 351.936L243.916 352.5C243.708 352.188 243.452 351.96 243.148 351.816C242.852 351.664 242.532 351.588 242.188 351.588C241.772 351.588 241.4 351.68 241.072 351.864C240.744 352.048 240.484 352.308 240.292 352.644C240.1 352.972 240.004 353.364 240.004 353.82C240.004 354.276 240.1 354.672 240.292 355.008C240.484 355.344 240.744 355.604 241.072 355.788C241.4 355.972 241.772 356.064 242.188 356.064C242.532 356.064 242.852 355.992 243.148 355.848C243.452 355.696 243.708 355.464 243.916 355.152L244.792 355.704C244.544 356.144 244.192 356.484 243.736 356.724C243.288 356.956 242.776 357.072 242.2 357.072ZM249.022 357.072C248.342 357.072 247.742 356.932 247.222 356.652C246.71 356.372 246.31 355.988 246.022 355.5C245.742 355.012 245.602 354.452 245.602 353.82C245.602 353.188 245.738 352.628 246.01 352.14C246.29 351.652 246.67 351.272 247.15 351C247.638 350.72 248.186 350.58 248.794 350.58C249.41 350.58 249.954 350.716 250.426 350.988C250.898 351.26 251.266 351.644 251.53 352.14C251.802 352.628 251.938 353.2 251.938 353.856C251.938 353.904 251.934 353.96 251.926 354.024C251.926 354.088 251.922 354.148 251.914 354.204H246.502V353.376H251.314L250.846 353.664C250.854 353.256 250.77 352.892 250.594 352.572C250.418 352.252 250.174 352.004 249.862 351.828C249.558 351.644 249.202 351.552 248.794 351.552C248.394 351.552 248.038 351.644 247.726 351.828C247.414 352.004 247.17 352.256 246.994 352.584C246.818 352.904 246.73 353.272 246.73 353.688V353.88C246.73 354.304 246.826 354.684 247.018 355.02C247.218 355.348 247.494 355.604 247.846 355.788C248.198 355.972 248.602 356.064 249.058 356.064C249.434 356.064 249.774 356 250.078 355.872C250.39 355.744 250.662 355.552 250.894 355.296L251.53 356.04C251.242 356.376 250.882 356.632 250.45 356.808C250.026 356.984 249.55 357.072 249.022 357.072ZM255.361 357.072C254.833 357.072 254.329 357 253.849 356.856C253.377 356.712 253.005 356.536 252.733 356.328L253.213 355.416C253.485 355.6 253.821 355.756 254.221 355.884C254.621 356.012 255.029 356.076 255.445 356.076C255.981 356.076 256.365 356 256.597 355.848C256.837 355.696 256.957 355.484 256.957 355.212C256.957 355.012 256.885 354.856 256.741 354.744C256.597 354.632 256.405 354.548 256.165 354.492C255.933 354.436 255.673 354.388 255.385 354.348C255.097 354.3 254.809 354.244 254.521 354.18C254.233 354.108 253.969 354.012 253.729 353.892C253.489 353.764 253.297 353.592 253.153 353.376C253.009 353.152 252.937 352.856 252.937 352.488C252.937 352.104 253.045 351.768 253.261 351.48C253.477 351.192 253.781 350.972 254.173 350.82C254.573 350.66 255.045 350.58 255.589 350.58C256.005 350.58 256.425 350.632 256.849 350.736C257.281 350.832 257.633 350.972 257.905 351.156L257.413 352.068C257.125 351.876 256.825 351.744 256.513 351.672C256.201 351.6 255.889 351.564 255.577 351.564C255.073 351.564 254.697 351.648 254.449 351.816C254.201 351.976 254.077 352.184 254.077 352.44C254.077 352.656 254.149 352.824 254.293 352.944C254.445 353.056 254.637 353.144 254.869 353.208C255.109 353.272 255.373 353.328 255.661 353.376C255.949 353.416 256.237 353.472 256.525 353.544C256.813 353.608 257.073 353.7 257.305 353.82C257.545 353.94 257.737 354.108 257.881 354.324C258.033 354.54 258.109 354.828 258.109 355.188C258.109 355.572 257.997 355.904 257.773 356.184C257.549 356.464 257.233 356.684 256.825 356.844C256.417 356.996 255.929 357.072 255.361 357.072ZM261.373 357.072C260.845 357.072 260.341 357 259.861 356.856C259.389 356.712 259.017 356.536 258.745 356.328L259.225 355.416C259.497 355.6 259.833 355.756 260.233 355.884C260.633 356.012 261.041 356.076 261.457 356.076C261.993 356.076 262.377 356 262.609 355.848C262.849 355.696 262.969 355.484 262.969 355.212C262.969 355.012 262.897 354.856 262.753 354.744C262.609 354.632 262.417 354.548 262.177 354.492C261.945 354.436 261.685 354.388 261.397 354.348C261.109 354.3 260.821 354.244 260.533 354.18C260.245 354.108 259.981 354.012 259.741 353.892C259.501 353.764 259.309 353.592 259.165 353.376C259.021 353.152 258.949 352.856 258.949 352.488C258.949 352.104 259.057 351.768 259.273 351.48C259.489 351.192 259.793 350.972 260.185 350.82C260.585 350.66 261.057 350.58 261.601 350.58C262.017 350.58 262.437 350.632 262.861 350.736C263.293 350.832 263.645 350.972 263.917 351.156L263.425 352.068C263.137 351.876 262.837 351.744 262.525 351.672C262.213 351.6 261.901 351.564 261.589 351.564C261.085 351.564 260.709 351.648 260.461 351.816C260.213 351.976 260.089 352.184 260.089 352.44C260.089 352.656 260.161 352.824 260.305 352.944C260.457 353.056 260.649 353.144 260.881 353.208C261.121 353.272 261.385 353.328 261.673 353.376C261.961 353.416 262.249 353.472 262.537 353.544C262.825 353.608 263.085 353.7 263.317 353.82C263.557 353.94 263.749 354.108 263.893 354.324C264.045 354.54 264.121 354.828 264.121 355.188C264.121 355.572 264.009 355.904 263.785 356.184C263.561 356.464 263.245 356.684 262.837 356.844C262.429 356.996 261.941 357.072 261.373 357.072Z" fill="#30C26B"/>
<path d="M189 359C189 365.075 184.075 370 178 370C171.925 370 167 365.075 167 359C167 352.925 171.925 348 178 348C184.075 348 189 352.925 189 359ZM176.728 364.824L184.889 356.663C185.166 356.386 185.166 355.937 184.889 355.66L183.885 354.656C183.608 354.379 183.159 354.379 182.882 354.656L176.226 361.312L173.118 358.204C172.841 357.927 172.392 357.927 172.115 358.204L171.111 359.208C170.834 359.485 170.834 359.934 171.111 360.211L175.724 364.824C176.001 365.102 176.45 365.102 176.728 364.824Z" fill="#30C26B"/>
<g clip-path="url(#clip0_434_2457)">
<path fill-rule="evenodd" clip-rule="evenodd" d="M93.84 48.4834C87.3009 48.4834 82 53.7969 82 60.3515V66.2856V72.2197V84.0878H93.84H366.16H378V72.2197V66.2856V60.3515C378 53.7969 372.699 48.4834 366.16 48.4834H93.84Z" fill="#EDF1F4"/>
<mask id="mask0_434_2457" style="mask-type:luminance" maskUnits="userSpaceOnUse" x="82" y="48" width="296" height="37">
<path fill-rule="evenodd" clip-rule="evenodd" d="M93.84 48.4834C87.3009 48.4834 82 53.7969 82 60.3515V66.2856V72.2197V84.0878H93.84H366.16H378V72.2197V66.2856V60.3515C378 53.7969 372.699 48.4834 366.16 48.4834H93.84Z" fill="#EFEFEF"/>
</mask>
<g mask="url(#mask0_434_2457)">
<path d="M82.0001 84.0877H77.5601V88.5382H82.0001V84.0877ZM378 84.0877V88.5382H382.44V84.0877H378ZM86.4401 60.3514C86.4401 56.2548 89.7532 52.9338 93.8401 52.9338V44.0327C84.8489 44.0327 77.5601 51.3388 77.5601 60.3514H86.4401ZM86.4401 66.2855V60.3514H77.5601V66.2855H86.4401ZM86.4401 72.2195V66.2855H77.5601V72.2195H86.4401ZM86.4401 84.0877V72.2195H77.5601V84.0877H86.4401ZM93.8401 79.6371H82.0001V88.5382H93.8401V79.6371ZM366.16 79.6371H93.8401V88.5382H366.16V79.6371ZM378 79.6371H366.16V88.5382H378V79.6371ZM373.56 72.2195V84.0877H382.44V72.2195H373.56ZM373.56 66.2855V72.2195H382.44V66.2855H373.56ZM373.56 60.3514V66.2855H382.44V60.3514H373.56ZM366.16 52.9338C370.246 52.9338 373.56 56.2548 373.56 60.3514H382.44C382.44 51.3388 375.151 44.0327 366.16 44.0327V52.9338ZM93.8401 52.9338H366.16V44.0327H93.8401V52.9338Z" fill="#EFEFEF"/>
</g>
<path fill-rule="evenodd" clip-rule="evenodd" d="M101.24 70.7361C103.692 70.7361 105.68 68.7435 105.68 66.2855C105.68 63.8275 103.692 61.835 101.24 61.835C98.7878 61.835 96.8 63.8275 96.8 66.2855C96.8 68.7435 98.7878 70.7361 101.24 70.7361Z" fill="#CAD6E2"/>
<path fill-rule="evenodd" clip-rule="evenodd" d="M116.04 70.7361C118.492 70.7361 120.48 68.7435 120.48 66.2855C120.48 63.8275 118.492 61.835 116.04 61.835C113.588 61.835 111.6 63.8275 111.6 66.2855C111.6 68.7435 113.588 70.7361 116.04 70.7361Z" fill="#CAD6E2"/>
<path fill-rule="evenodd" clip-rule="evenodd" d="M130.84 70.7361C133.292 70.7361 135.28 68.7435 135.28 66.2855C135.28 63.8275 133.292 61.835 130.84 61.835C128.388 61.835 126.4 63.8275 126.4 66.2855C126.4 68.7435 128.388 70.7361 130.84 70.7361Z" fill="#CAD6E2"/>
<path fill-rule="evenodd" clip-rule="evenodd" d="M366.16 321.451C372.699 321.451 378 316.269 378 309.879V205.736V101.593V90.022H366.16H93.84H82V101.593V205.736V309.879C82 316.269 87.301 321.451 93.84 321.451H366.16Z" fill="white"/>
<mask id="mask1_434_2457" style="mask-type:luminance" maskUnits="userSpaceOnUse" x="82" y="90" width="296" height="232">
<path fill-rule="evenodd" clip-rule="evenodd" d="M366.16 321.451C372.699 321.451 378 316.269 378 309.879V205.736V101.593V90.022H366.16H93.84H82V101.593V205.736V309.879C82 316.269 87.301 321.451 93.84 321.451H366.16Z" fill="#CAD6E2"/>
</mask>
<g mask="url(#mask1_434_2457)">
<path d="M378 90.0219H382.44V85.6826H378V90.0219ZM82.0001 90.0219V85.6826H77.5601V90.0219H82.0001ZM373.56 309.879C373.56 313.873 370.246 317.111 366.16 317.111V325.79C375.151 325.79 382.44 318.666 382.44 309.879H373.56ZM373.56 205.736V309.879H382.44V205.736H373.56ZM373.56 101.593V205.736H382.44V101.593H373.56ZM373.56 90.0219V101.593H382.44V90.0219H373.56ZM366.16 94.3612H378V85.6826H366.16V94.3612ZM93.8401 94.3612H366.16V85.6826H93.8401V94.3612ZM82.0001 94.3612H93.8401V85.6826H82.0001V94.3612ZM86.4401 101.593V90.0219H77.5601V101.593H86.4401ZM86.4401 205.736V101.593H77.5601V205.736H86.4401ZM86.4401 309.879V205.736H77.5601V309.879H86.4401ZM93.8401 317.111C89.7532 317.111 86.4401 313.873 86.4401 309.879H77.5601C77.5601 318.666 84.8489 325.79 93.8401 325.79V317.111ZM366.16 317.111H93.8401V325.79H366.16V317.111Z" fill="#EFEFEF"/>
</g>
<g filter="url(#filter0_d_434_2457)">
<path d="M346.92 275.461H317.32C311.598 275.461 306.96 280.111 306.96 285.846C306.96 291.581 311.598 296.231 317.32 296.231H346.92C352.642 296.231 357.28 291.581 357.28 285.846C357.28 280.111 352.642 275.461 346.92 275.461Z" fill="#2EB3B3"/>
<path d="M346.92 277.687H317.32C312.824 277.687 309.18 281.34 309.18 285.846C309.18 290.352 312.824 294.005 317.32 294.005H346.92C351.416 294.005 355.06 290.352 355.06 285.846C355.06 281.34 351.416 277.687 346.92 277.687Z" stroke="#02306A" stroke-width="3"/>
</g>
<path d="M287.72 277.687H107.16C105.934 277.687 104.94 278.683 104.94 279.912V291.78C104.94 293.009 105.934 294.005 107.16 294.005H287.72C288.946 294.005 289.94 293.009 289.94 291.78V279.912C289.94 278.683 288.946 277.687 287.72 277.687Z" fill="#EDF1F4" stroke="#CAD6E2" stroke-width="3"/>
<path fill-rule="evenodd" clip-rule="evenodd" d="M178.2 150.846C178.2 149.207 179.525 147.879 181.16 147.879H259.6C261.235 147.879 262.56 149.207 262.56 150.846C262.56 152.485 261.235 153.813 259.6 153.813H181.16C179.525 153.813 178.2 152.485 178.2 150.846Z" fill="#CAD6E2"/>
<path d="M341.722 133.043H181.16C179.525 133.043 178.2 134.372 178.2 136.01C178.2 137.649 179.525 138.978 181.16 138.978H341.722C343.357 138.978 344.682 137.649 344.682 136.01C344.682 134.372 343.357 133.043 341.722 133.043Z" fill="#CAD6E2"/>
<path d="M234.44 118.208H181.16C179.525 118.208 178.2 119.537 178.2 121.176C178.2 122.814 179.525 124.143 181.16 124.143H234.44C236.075 124.143 237.4 122.814 237.4 121.176C237.4 119.537 236.075 118.208 234.44 118.208Z" fill="#171B2A"/>
<path d="M132.32 160.489C145.807 160.489 156.74 149.53 156.74 136.011C156.74 122.492 145.807 111.533 132.32 111.533C118.833 111.533 107.9 122.492 107.9 136.011C107.9 149.53 118.833 160.489 132.32 160.489Z" fill="#F15D22" stroke="#171B2A" stroke-width="3"/>
<mask id="mask2_434_2457" style="mask-type:alpha" maskUnits="userSpaceOnUse" x="106" y="110" width="53" height="52">
<path d="M132.32 160.489C145.807 160.489 156.74 149.53 156.74 136.011C156.74 122.492 145.807 111.533 132.32 111.533C118.833 111.533 107.9 122.492 107.9 136.011C107.9 149.53 118.833 160.489 132.32 160.489Z" fill="white" stroke="white" stroke-width="3"/>
</mask>
<g mask="url(#mask2_434_2457)">
<g filter="url(#filter1_d_434_2457)">
<path fill-rule="evenodd" clip-rule="evenodd" d="M132.32 146.395C138.859 146.395 144.16 141.082 144.16 134.527C144.16 127.973 138.859 122.659 132.32 122.659C125.781 122.659 120.48 127.973 120.48 134.527C120.48 141.082 125.781 146.395 132.32 146.395Z" fill="#F15D22"/>
<path d="M141.94 134.527C141.94 139.853 137.633 144.17 132.32 144.17C127.007 144.17 122.7 139.853 122.7 134.527C122.7 129.201 127.007 124.884 132.32 124.884C137.633 124.884 141.94 129.201 141.94 134.527Z" fill="#F15D22" stroke="#171B2A" stroke-width="3"/>
</g>
<g filter="url(#filter2_d_434_2457)">
<path fill-rule="evenodd" clip-rule="evenodd" d="M132.32 180.516C142.946 180.516 151.56 171.882 151.56 161.231C151.56 150.579 142.946 141.945 132.32 141.945C121.694 141.945 113.08 150.579 113.08 161.231C113.08 171.882 121.694 180.516 132.32 180.516Z" fill="#F15D22"/>
<path d="M149.34 161.23C149.34 170.653 141.72 178.291 132.32 178.291C122.92 178.291 115.3 170.653 115.3 161.23C115.3 151.808 122.92 144.17 132.32 144.17C141.72 144.17 149.34 151.808 149.34 161.23Z" fill="#F15D22" stroke="#171B2A" stroke-width="3"/>
</g>
</g>
<path d="M232.96 225.022H114.56C112.925 225.022 111.6 226.35 111.6 227.989C111.6 229.628 112.925 230.956 114.56 230.956H232.96C234.595 230.956 235.92 229.628 235.92 227.989C235.92 226.35 234.595 225.022 232.96 225.022Z" fill="#CAD6E2"/>
<path d="M241.84 210.187H114.56C112.925 210.187 111.6 211.515 111.6 213.154C111.6 214.792 112.925 216.121 114.56 216.121H241.84C243.475 216.121 244.8 214.792 244.8 213.154C244.8 211.515 243.475 210.187 241.84 210.187Z" fill="#CAD6E2"/>
<path fill-rule="evenodd" clip-rule="evenodd" d="M111.6 198.319C111.6 196.679 112.925 195.352 114.56 195.352H195.96C197.595 195.352 198.92 196.679 198.92 198.319C198.92 199.958 197.595 201.286 195.96 201.286H114.56C112.925 201.286 111.6 199.958 111.6 198.319Z" fill="#171B2A"/>
<path d="M330.64 237.632C344.127 237.632 355.06 226.673 355.06 213.154C355.06 199.635 344.127 188.676 330.64 188.676C317.153 188.676 306.22 199.635 306.22 213.154C306.22 226.673 317.153 237.632 330.64 237.632Z" fill="#227BE5" stroke="#003169" stroke-width="3"/>
<mask id="mask3_434_2457" style="mask-type:alpha" maskUnits="userSpaceOnUse" x="304" y="187" width="53" height="53">
<path d="M330.64 237.632C344.127 237.632 355.06 226.673 355.06 213.154C355.06 199.635 344.127 188.676 330.64 188.676C317.153 188.676 306.22 199.635 306.22 213.154C306.22 226.673 317.153 237.632 330.64 237.632Z" fill="white" stroke="white" stroke-width="3"/>
</mask>
<g mask="url(#mask3_434_2457)">
<g filter="url(#filter3_d_434_2457)">
<path fill-rule="evenodd" clip-rule="evenodd" d="M330.64 223.539C337.179 223.539 342.48 218.225 342.48 211.67C342.48 205.116 337.179 199.802 330.64 199.802C324.101 199.802 318.8 205.116 318.8 211.67C318.8 218.225 324.101 223.539 330.64 223.539Z" fill="#7FB6F6"/>
<path d="M340.26 211.67C340.26 216.996 335.953 221.313 330.64 221.313C325.327 221.313 321.02 216.996 321.02 211.67C321.02 206.344 325.327 202.027 330.64 202.027C335.953 202.027 340.26 206.344 340.26 211.67Z" stroke="#02306A" stroke-width="3"/>
</g>
<g filter="url(#filter4_d_434_2457)">
<path fill-rule="evenodd" clip-rule="evenodd" d="M330.64 257.659C341.267 257.659 349.88 249.025 349.88 238.374C349.88 227.722 341.267 219.088 330.64 219.088C320.014 219.088 311.4 227.722 311.4 238.374C311.4 249.025 320.014 257.659 330.64 257.659Z" fill="#7FB6F6"/>
<path d="M347.66 238.373C347.66 247.795 340.04 255.434 330.64 255.434C321.241 255.434 313.62 247.795 313.62 238.373C313.62 228.952 321.241 221.313 330.64 221.313C340.04 221.313 347.66 228.952 347.66 238.373Z" stroke="#02306A" stroke-width="3"/>
</g>
</g>
</g>
<g clip-path="url(#clip1_434_2457)">
<path d="M430.75 17H339.25C330.839 17 324 23.8387 324 32.25V100.875C324 109.286 330.839 116.125 339.25 116.125H362.125V136.141C362.125 138.476 364.794 139.834 366.676 138.452L396.438 116.125H430.75C439.161 116.125 446 109.286 446 100.875V32.25C446 23.8387 439.161 17 430.75 17Z" fill="#F15D22"/>
</g>
<defs>
<filter id="filter0_d_434_2457" x="306.96" y="275.461" width="53.3201" height="24.769" filterUnits="userSpaceOnUse" color-interpolation-filters="sRGB">
<feFlood flood-opacity="0" result="BackgroundImageFix"/>
<feColorMatrix in="SourceAlpha" type="matrix" values="0 0 0 0 0 0 0 0 0 0 0 0 0 0 0 0 0 0 127 0" result="hardAlpha"/>
<feOffset dx="3" dy="4"/>
<feColorMatrix type="matrix" values="0 0 0 0 0 0 0 0 0 0 0 0 0 0 0 0 0 0 0.2 0"/>
<feBlend mode="normal" in2="BackgroundImageFix" result="effect1_dropShadow_434_2457"/>
<feBlend mode="normal" in="SourceGraphic" in2="effect1_dropShadow_434_2457" result="shape"/>
</filter>
<filter id="filter1_d_434_2457" x="120.48" y="122.659" width="26.6799" height="27.7363" filterUnits="userSpaceOnUse" color-interpolation-filters="sRGB">
<feFlood flood-opacity="0" result="BackgroundImageFix"/>
<feColorMatrix in="SourceAlpha" type="matrix" values="0 0 0 0 0 0 0 0 0 0 0 0 0 0 0 0 0 0 127 0" result="hardAlpha"/>
<feOffset dx="3" dy="4"/>
<feColorMatrix type="matrix" values="0 0 0 0 0 0 0 0 0 0 0 0 0 0 0 0 0 0 0.2 0"/>
<feBlend mode="normal" in2="BackgroundImageFix" result="effect1_dropShadow_434_2457"/>
<feBlend mode="normal" in="SourceGraphic" in2="effect1_dropShadow_434_2457" result="shape"/>
</filter>
<filter id="filter2_d_434_2457" x="113.08" y="141.945" width="41.48" height="42.5713" filterUnits="userSpaceOnUse" color-interpolation-filters="sRGB">
<feFlood flood-opacity="0" result="BackgroundImageFix"/>
<feColorMatrix in="SourceAlpha" type="matrix" values="0 0 0 0 0 0 0 0 0 0 0 0 0 0 0 0 0 0 127 0" result="hardAlpha"/>
<feOffset dx="3" dy="4"/>
<feColorMatrix type="matrix" values="0 0 0 0 0 0 0 0 0 0 0 0 0 0 0 0 0 0 0.2 0"/>
<feBlend mode="normal" in2="BackgroundImageFix" result="effect1_dropShadow_434_2457"/>
<feBlend mode="normal" in="SourceGraphic" in2="effect1_dropShadow_434_2457" result="shape"/>
</filter>
<filter id="filter3_d_434_2457" x="318.8" y="199.802" width="26.6799" height="27.7363" filterUnits="userSpaceOnUse" color-interpolation-filters="sRGB">
<feFlood flood-opacity="0" result="BackgroundImageFix"/>
<feColorMatrix in="SourceAlpha" type="matrix" values="0 0 0 0 0 0 0 0 0 0 0 0 0 0 0 0 0 0 127 0" result="hardAlpha"/>
<feOffset dx="3" dy="4"/>
<feColorMatrix type="matrix" values="0 0 0 0 0 0 0 0 0 0 0 0 0 0 0 0 0 0 0.2 0"/>
<feBlend mode="normal" in2="BackgroundImageFix" result="effect1_dropShadow_434_2457"/>
<feBlend mode="normal" in="SourceGraphic" in2="effect1_dropShadow_434_2457" result="shape"/>
</filter>
<filter id="filter4_d_434_2457" x="311.4" y="219.088" width="41.48" height="42.5713" filterUnits="userSpaceOnUse" color-interpolation-filters="sRGB">
<feFlood flood-opacity="0" result="BackgroundImageFix"/>
<feColorMatrix in="SourceAlpha" type="matrix" values="0 0 0 0 0 0 0 0 0 0 0 0 0 0 0 0 0 0 127 0" result="hardAlpha"/>
<feOffset dx="3" dy="4"/>
<feColorMatrix type="matrix" values="0 0 0 0 0 0 0 0 0 0 0 0 0 0 0 0 0 0 0.2 0"/>
<feBlend mode="normal" in2="BackgroundImageFix" result="effect1_dropShadow_434_2457"/>
<feBlend mode="normal" in="SourceGraphic" in2="effect1_dropShadow_434_2457" result="shape"/>
</filter>
<clipPath id="clip0_434_2457">
<rect width="296" height="270" fill="white" transform="translate(82 47)"/>
</clipPath>
<clipPath id="clip1_434_2457">
<rect width="122" height="122" fill="white" transform="translate(324 17)"/>
</clipPath>
</defs>
</svg>
