<svg width="110" height="115" viewBox="0 0 110 115" fill="none" xmlns="http://www.w3.org/2000/svg">
<path fill-rule="evenodd" clip-rule="evenodd" d="M90.3699 28.4185L86.1468 32.2577C92.6802 40.0435 96.6147 50.0837 96.6147 61.0429C96.6147 85.7893 76.5537 105.85 51.8073 105.85C27.0609 105.85 7 85.7893 7 61.0429C7 36.2965 27.0609 16.2355 51.8073 16.2355C63.7954 16.2355 74.6839 20.9435 82.7249 28.6113L87.1144 24.6207L92.4883 11.618C92.8247 10.8041 93.9729 10.791 94.3277 11.5971L97.0912 17.8753C97.183 18.0839 97.3433 18.2548 97.5456 18.3599L103.831 21.6243C104.601 22.0239 104.532 23.1465 103.719 23.449L90.3699 28.4185ZM91.6147 61.0429C91.6147 83.0279 73.7923 100.85 51.8073 100.85C29.8223 100.85 12 83.0279 12 61.0429C12 39.0579 29.8223 21.2355 51.8073 21.2355C62.3289 21.2355 71.897 25.3176 79.0145 31.9843L72.6042 37.8119C67.2708 32.8491 60.1199 29.8135 52.2601 29.8135C35.7625 29.8135 22.3885 43.1875 22.3885 59.6851C22.3885 76.1827 35.7625 89.5566 52.2601 89.5566C68.7577 89.5566 82.1317 76.1827 82.1317 59.6851C82.1317 52.847 79.834 46.5455 75.9686 41.5106L82.4438 35.6241C88.171 42.5192 91.6147 51.3789 91.6147 61.0429ZM52.2601 32.8135C59.2399 32.8135 65.5982 35.4747 70.3757 39.8378L60.2712 49.0237C55.2557 45.2463 48.1077 45.4406 43.2912 49.8192C37.8424 54.7727 37.4408 63.2053 42.3943 68.6541C47.3477 74.1028 55.7803 74.5044 61.2291 69.551C66.0456 65.1723 66.9183 58.0751 63.6345 52.7234L73.7401 43.5365C77.1251 48.032 79.1317 53.6242 79.1317 59.6851C79.1317 74.5258 67.1008 86.5566 52.2601 86.5566C37.4194 86.5566 25.3885 74.5258 25.3885 59.6851C25.3885 44.8443 37.4194 32.8135 52.2601 32.8135Z" fill="#F15D22"/>
</svg>
